<?xml version="1.0" encoding="utf-8"?>
<!-- Generator: Adobe Illustrator 15.0.0, SVG Export Plug-In . SVG Version: 6.00 Build 0)  -->
<!DOCTYPE svg PUBLIC "-//W3C//DTD SVG 1.1//EN" "http://www.w3.org/Graphics/SVG/1.1/DTD/svg11.dtd">
<svg version="1.1" id="Layer_1" xmlns="http://www.w3.org/2000/svg" xmlns:xlink="http://www.w3.org/1999/xlink" x="0px" y="0px"
	 width="812px" height="812px" viewBox="-150 -150 812 812" enable-background="new -150 -150 812 812" xml:space="preserve">
<g>
	<path d="M-2523.443-355.899c200.43,0,362.908,162.48,362.908,362.909s-162.479,362.905-362.908,362.905
		s-362.908-162.476-362.908-362.905S-2723.873-355.899-2523.443-355.899 M-2523.443-390.899
		c-53.702,0-105.816,10.525-154.895,31.284c-47.387,20.043-89.937,48.729-126.469,85.261
		c-36.532,36.532-65.218,79.082-85.261,126.469c-20.758,49.079-31.284,101.193-31.284,154.895
		c0,53.702,10.525,105.815,31.284,154.895c20.043,47.386,48.729,89.937,85.261,126.467c36.532,36.531,79.082,65.217,126.469,85.26
		c49.078,20.758,101.192,31.283,154.895,31.283s105.816-10.525,154.895-31.283c47.387-20.043,89.938-48.729,126.47-85.26
		c36.531-36.531,65.217-79.082,85.26-126.467c20.759-49.079,31.284-101.192,31.284-154.895c0-53.702-10.525-105.816-31.284-154.895
		c-20.043-47.387-48.729-89.938-85.26-126.469c-36.532-36.532-79.082-65.218-126.47-85.261
		C-2417.626-380.374-2469.741-390.899-2523.443-390.899L-2523.443-390.899z"/>
</g>
<g>
	<path d="M-2523.443-288.678c163.305,0,295.688,132.383,295.688,295.688c0,163.303-132.384,295.686-295.688,295.686
		c-163.305,0-295.688-132.383-295.688-295.686C-2819.13-156.295-2686.748-288.678-2523.443-288.678 M-2523.443-323.678
		c-44.627,0-87.938,8.748-128.73,26.001c-39.382,16.657-74.744,40.496-105.102,70.854s-54.197,65.72-70.854,105.102
		c-17.253,40.792-26.001,84.103-26.001,128.729s8.748,87.938,26.001,128.729c16.657,39.382,40.496,74.743,70.854,105.102
		c30.358,30.358,65.72,54.198,105.102,70.854c40.792,17.254,84.103,26.002,128.73,26.002c44.627,0,87.938-8.748,128.729-26.002
		c39.383-16.656,74.744-40.496,105.103-70.854c30.358-30.358,54.197-65.72,70.854-105.102
		c17.254-40.791,26.002-84.102,26.002-128.729s-8.748-87.938-26.002-128.729c-16.656-39.382-40.496-74.744-70.854-105.102
		s-65.72-54.197-105.103-70.854C-2435.504-314.93-2478.816-323.678-2523.443-323.678L-2523.443-323.678z"/>
</g>
<g>
	<path d="M1566.386,193.004c-7.817-7.669-163.215-153.406-163.215-153.406s-31.482-33.76-86.756-34.088
		c-55.273-0.297-92.147,36.863-92.147,36.863s-40.2,35.92-38.061,91.84c2.14,55.867,31.927,85.357,32.837,85.961
		c0.943,0.625,154.953,157.718,154.953,157.718s9.683,8.889,18.75,0c9.047-8.93,173.639-167.368,173.639-167.368
		S1574.235,200.673,1566.386,193.004z M1535.381,204.413c-2.235,1.959-150.069,144.444-150.069,144.444s-2.035,2.34-4.291,0
		c-2.277-2.33-147.506-150.79-147.506-150.79s-22.732-27.626-21.102-64.49c1.632-36.842,20.783-95.495,102.975-102.561
		c0,0,41.365,0.805,68.387,25.804c27.013,24.978,151.606,142.792,151.606,142.792S1537.637,202.475,1535.381,204.413z"/>
	<path d="M1274.657,148.896L1274.657,148.896c-5.444-5.445-14.258-5.445-19.691,0c-5.413,5.444-5.413,14.257,0,19.703
		l105.728,106.596v-0.052v0.052c5.444,5.413,14.258,5.413,19.681-0.052c5.424-5.445,5.424-14.228-0.021-19.683l0,0l0,0
		L1274.657,148.896z"/>
	<path d="M1583.907,210.525c0,0,164.613,158.438,173.67,167.368c9.057,8.889,18.74,0,18.74,0s153.998-157.093,154.908-157.718
		c0.965-0.604,30.752-30.094,32.881-85.961c2.162-55.92-38.059-91.84-38.059-91.84s-36.854-37.16-92.182-36.863
		c-55.23,0.328-86.713,34.088-86.713,34.088s-155.387,145.736-163.246,153.406C1576.089,200.673,1583.907,210.525,1583.907,210.525z
		 M1614.976,199.614c0,0,124.541-117.814,151.574-142.792c27.033-24.999,68.418-25.804,68.418-25.804
		c82.148,7.065,101.301,65.719,102.941,102.561c1.664,36.863-21.078,64.49-21.078,64.49s-145.281,148.459-147.518,150.79
		c-2.256,2.34-4.311,0-4.311,0s-147.781-142.485-150.027-144.444C1612.72,202.475,1614.976,199.614,1614.976,199.614z"/>
	<path d="M1875.667,148.896L1875.667,148.896c5.434-5.445,14.279-5.445,19.691,0c5.424,5.444,5.424,14.257,0,19.703
		l-105.705,106.596v-0.052v0.052c-5.457,5.413-14.26,5.413-19.725-0.052c-5.424-5.445-5.424-14.228,0.031-19.683l0,0l0,0
		L1875.667,148.896z"/>
	<path d="M1531.101,382.1c0,11.717-9.522,21.229-21.228,21.229c-11.727,0-21.239-9.512-21.239-21.229
		c0-11.77,9.513-21.281,21.239-21.281C1521.578,360.818,1531.101,370.33,1531.101,382.1z"/>
	<path d="M1622.899,377.174c0,11.717-9.514,21.229-21.186,21.229c-11.748,0-21.26-9.512-21.26-21.229
		c0-11.77,9.512-21.27,21.26-21.27C1613.386,355.904,1622.899,365.404,1622.899,377.174z"/>
	<path d="M1687.642,424.566c0,11.715-9.533,21.26-21.27,21.26c-11.693,0-21.195-9.545-21.195-21.26
		c0-11.738,9.502-21.238,21.195-21.238C1678.108,403.328,1687.642,412.828,1687.642,424.566z"/>
	<path d="M1622.899,467.023c0,11.756-9.514,21.279-21.186,21.279c-11.748,0-21.26-9.523-21.26-21.279
		c0-11.674,9.512-21.197,21.26-21.197C1613.386,445.826,1622.899,455.35,1622.899,467.023z"/>
	<path d="M1531.101,453.094c0,11.715-9.522,21.271-21.228,21.271c-11.727,0-21.239-9.557-21.239-21.271
		c0-11.77,9.513-21.271,21.239-21.271C1521.578,431.822,1531.101,441.324,1531.101,453.094z"/>
	<path d="M1460.68,516.959c0,11.715-9.502,21.227-21.239,21.227c-11.736,0-21.249-9.512-21.249-21.227
		c0-11.738,9.513-21.24,21.249-21.24C1451.178,495.719,1460.68,505.221,1460.68,516.959z"/>
	<path d="M1580.454,528.42c0,11.727-9.514,21.27-21.262,21.27c-11.715,0-21.228-9.543-21.228-21.27
		c0-11.717,9.513-21.23,21.228-21.23C1570.94,507.189,1580.454,516.703,1580.454,528.42z"/>
	<path d="M1673.786,552.994c0,11.717-9.512,21.229-21.195,21.229c-11.77,0-21.26-9.512-21.26-21.229
		c0-11.715,9.49-21.227,21.26-21.227C1664.274,531.768,1673.786,541.279,1673.786,552.994z"/>
	<path d="M1636.944,607.051c0,11.715-9.5,21.227-21.227,21.227c-11.77,0-21.26-9.512-21.26-21.227
		c0-11.727,9.49-21.229,21.26-21.229C1627.444,585.822,1636.944,595.324,1636.944,607.051z"/>
	<path d="M1531.101,610.971c0,11.727-9.522,21.227-21.228,21.227c-11.727,0-21.239-9.5-21.239-21.227s9.513-21.23,21.239-21.23
		C1521.578,589.74,1531.101,599.244,1531.101,610.971z"/>
</g>
<g>
	<g>
		<path d="M955.689,848.262l81.301,46.451v96.15l-81.773,46.934l-81.725-48.778v-94.306L955.689,848.262 M955.689,818.262
			c-5.09,0-10.178,1.293-14.76,3.882l-82.197,46.45c-9.417,5.322-15.24,15.302-15.24,26.119v94.306
			c0,10.563,5.555,20.347,14.625,25.761l81.725,48.778c4.732,2.824,10.053,4.239,15.376,4.239c5.152,0,10.306-1.325,14.933-3.981
			l81.773-46.934c9.318-5.349,15.066-15.273,15.066-26.019v-96.15c0-10.767-5.77-20.707-15.117-26.049l-81.301-46.451
			C965.963,819.58,960.826,818.262,955.689,818.262L955.689,818.262z"/>
	</g>
	<g>
		<path d="M1053.803,1016.418l81.254,46.45v96.152l-81.727,46.911l-81.771-48.757v-94.307L1053.803,1016.418 M1053.803,986.418
			c-5.087,0-10.174,1.292-14.752,3.878l-82.245,46.45c-9.421,5.321-15.247,15.303-15.247,26.122v94.307
			c0,10.567,5.56,20.355,14.637,25.768l81.771,48.757c4.729,2.819,10.046,4.232,15.363,4.232c5.153,0,10.307-1.325,14.935-3.981
			l81.728-46.911c9.318-5.35,15.065-15.273,15.065-26.019v-96.152c0-10.764-5.767-20.702-15.111-26.045l-81.254-46.45
			C1064.08,987.737,1058.941,986.418,1053.803,986.418L1053.803,986.418z"/>
	</g>
	<g>
		<path d="M1342.178,848.262l81.276,46.451v96.15l-81.737,46.934l-81.76-48.778v-94.306L1342.178,848.262 M1342.178,818.262
			c-5.089,0-10.177,1.293-14.757,3.88l-82.221,46.45c-9.419,5.322-15.243,15.303-15.243,26.121v94.306
			c0,10.564,5.557,20.351,14.63,25.764l81.76,48.778c4.73,2.822,10.05,4.236,15.37,4.236c5.154,0,10.311-1.326,14.938-3.983
			l81.737-46.934c9.316-5.35,15.062-15.273,15.062-26.017v-96.15c0-10.766-5.768-20.705-15.114-26.047l-81.276-46.451
			C1352.453,819.58,1347.314,818.262,1342.178,818.262L1342.178,818.262z"/>
	</g>
	<g>
		<path d="M1148.918,848.262l81.311,46.451v96.15l-81.762,46.934l-81.749-48.778v-94.306L1148.918,848.262 M1148.918,818.262
			c-5.09,0-10.18,1.293-14.76,3.882l-82.199,46.45c-9.418,5.322-15.241,15.302-15.241,26.119v94.306
			c0,10.564,5.556,20.35,14.628,25.763l81.75,48.778c4.731,2.823,10.051,4.237,15.372,4.237c5.152,0,10.308-1.326,14.935-3.981
			l81.762-46.934c9.318-5.35,15.064-15.273,15.064-26.019v-96.15c0-10.768-5.77-20.709-15.119-26.05l-81.311-46.45
			C1159.188,819.579,1154.053,818.262,1148.918,818.262L1148.918,818.262z"/>
	</g>
	<g>
		<path d="M864.658,1018.263l81.277,46.473v96.154l-81.75,46.909l-81.726-48.778v-94.285L864.658,1018.263 M864.658,988.263
			c-5.092,0-10.183,1.294-14.765,3.885l-82.198,46.473c-9.414,5.322-15.235,15.301-15.235,26.115v94.285
			c0,10.563,5.555,20.347,14.625,25.761l81.726,48.778c4.732,2.824,10.053,4.239,15.376,4.239c5.151,0,10.304-1.325,14.931-3.979
			l81.749-46.909c9.321-5.349,15.069-15.274,15.069-26.021v-96.154c0-10.763-5.766-20.701-15.109-26.043l-81.277-46.473
			C874.938,989.582,869.797,988.263,864.658,988.263L864.658,988.263z"/>
	</g>
	
		<polyline fill="none" stroke="#000000" stroke-width="30" stroke-linecap="round" stroke-linejoin="round" stroke-miterlimit="10" points="
		1342.178,833.525 1342.178,719.59 1439.715,663.846 1535.404,718.645 	"/>
	
		<polyline fill="none" stroke="#000000" stroke-width="30" stroke-linecap="round" stroke-linejoin="round" stroke-miterlimit="10" points="
		1148.918,831.68 1148.918,717.734 1051.381,662 	"/>
	<g>
		
			<polyline fill="none" stroke="#000000" stroke-width="30" stroke-linecap="round" stroke-linejoin="round" stroke-miterlimit="10" points="
			1484.088,778.83 1484.088,806.92 1484.088,836.893 		"/>
		
			<polyline fill="none" stroke="#000000" stroke-width="30" stroke-linecap="round" stroke-linejoin="round" stroke-miterlimit="10" points="
			1537.965,778.83 1537.965,806.92 1537.965,836.893 		"/>
		
			<line fill="none" stroke="#000000" stroke-width="30" stroke-linejoin="round" stroke-miterlimit="10" x1="1484.088" y1="806.92" x2="1537.491" y2="806.92"/>
	</g>
	<g>
		
			<polyline fill="none" stroke="#000000" stroke-width="30" stroke-linecap="round" stroke-linejoin="round" stroke-miterlimit="10" points="
			944.62,701.255 944.62,729.346 944.62,759.305 		"/>
		
			<polyline fill="none" stroke="#000000" stroke-width="30" stroke-linecap="round" stroke-linejoin="round" stroke-miterlimit="10" points="
			998.497,701.255 998.497,729.346 998.497,759.305 		"/>
		
			<line fill="none" stroke="#000000" stroke-width="30" stroke-linejoin="round" stroke-miterlimit="10" x1="944.62" y1="729.346" x2="998.035" y2="729.346"/>
	</g>
	<g>
		
			<polyline fill="none" stroke="#000000" stroke-width="30" stroke-linecap="round" stroke-linejoin="round" stroke-miterlimit="10" points="
			1233.006,1118.382 1233.006,1146.497 1233.006,1176.457 		"/>
		
			<polyline fill="none" stroke="#000000" stroke-width="30" stroke-linecap="round" stroke-linejoin="round" stroke-miterlimit="10" points="
			1286.896,1118.382 1286.896,1146.497 1286.896,1176.457 		"/>
		
			<line fill="none" stroke="#000000" stroke-width="30" stroke-linejoin="round" stroke-miterlimit="10" x1="1233.006" y1="1146.497" x2="1286.435" y2="1146.497"/>
	</g>
</g>
<g>
	<path d="M-265.125,933.054c0,0-35.161-50.749-42.032-103.492c0,0,1.744-16.764-17.736-15.534
		c-19.477,1.281-54.59,1.079-54.59,1.079s-22.4-1.542-18.608,25.22c3.792,26.704,9.329,118.56,35.473,147.061
		c0,0-43.775,40.855-53.924,110.055c-10.253,69.305-20.762,234.459-81.605,267.268c0,0-24.709,22.657-32.091,37.161
		c-7.382,14.561-19.886,22.454-35.677,25.018c-15.785,2.51-80.218,29.778-77.708,92.934c2.563,63.151,10.456,80.989,32.087,77.708
		c0,0,22.454-5.589,18.354-28.501c-4.101-22.965-1.026-86.627,54.025-83.553c54.95,3.025,59.936,40.22,136.966,42.238
		c84.646,2.218,328.646-90.782,363.941-363.738C-38.251,1163.976-24.546,919.932-265.125,933.054z M-296.186,1468.664
		c-68.813,30.48-112.926,36.288-157.469,15.891c-44.393-20.3-58.333-65.204-28.81-89.296
		c29.528-24.093,82.888-84.526,91.552-200.782c6.968-94.523,4.559-149.678,70.225-200.117c0,0-38.345-60.023-36.5-100.365h5.127
		c0,0,15.993,53.409,49.106,86.676c33.01,33.219,86.423,85.248,76.893,133.072c-9.536,47.925-25.837,94.11-45.521,109.693
		l21.019,19.736c0,0,51.153-60.843,53.205-129.531c2.049-68.842-48.132-115.691-69.814-136.556c0,0-10.201-6.87,3.589-9.175
		c13.733-2.255,87.755-16.815,137.68,47.313c49.929,64.227,76.276,145.269,27.885,250.196
		C-146.46,1370.347-224.546,1436.932-296.186,1468.664z"/>
	<path d="M-254.924,1249.629l-20.401,38.649l-13.584,76.123c0,0,0.718,14.556-14.045,5.738
		c-14.866-8.866-94.623-58.844-94.623-58.844s-5.078-6.716,0-12.099c5.123-5.483,88.984-38.751,88.984-38.751l31.576-30.549
		L-254.924,1249.629z"/>
</g>
<polyline fill="none" stroke="#000000" stroke-width="30" stroke-linecap="round" stroke-linejoin="round" stroke-miterlimit="10" points="
	1622.898,1254.496 1761.574,1254.496 1817.737,1122.565 1909.625,1491.782 2021.912,920.08 2113.82,1264.687 2202.287,1063.876 
	2261.832,1235.747 2397.125,1235.747 "/>
<g>
	<g>
		<g>
			<path fill="none" stroke="#000000" stroke-width="25" stroke-miterlimit="10" d="M-1019.62,1268.244
				c0,0,74.773-21.137,115.216-91.916"/>
			<g>
				<path fill="none" stroke="#000000" stroke-width="25" stroke-miterlimit="10" d="M-877.939,1106.944
					c0,0,31.307-110.515-56.002-218.569"/>
				<path fill="none" stroke="#000000" stroke-width="25" stroke-miterlimit="10" d="M-888.03,840.757
					c0,0,168.538,121.264,74.132,335.571"/>
				<path fill="none" stroke="#000000" stroke-width="25" stroke-miterlimit="10" d="M-892.855,788.468
					c0,0,158.901,43.513,156.989,267.021c-1.943,223.364-144.454,212.756-144.454,212.756"/>
			</g>
		</g>
		<g>
			<polyline fill="none" stroke="#000000" stroke-width="25" stroke-miterlimit="10" points="-1017.051,863.821 -1082.218,983.581 
				-1234.696,893.075 -1120.123,726.074 -1033.44,776.842 			"/>
			<polyline fill="none" stroke="#000000" stroke-width="25" stroke-miterlimit="10" points="-1102.386,971.626 -1129.102,1016.236 
				-1237.266,948.889 -1210.644,907.271 			"/>
			<polyline fill="none" stroke="#000000" stroke-width="25" stroke-miterlimit="10" points="-1098.906,734.738 -1009.843,585.567 
				-922.221,636.102 -982.876,740.113 			"/>
			
				<line fill="none" stroke="#000000" stroke-width="25" stroke-miterlimit="10" x1="-1030.714" y1="632.904" x2="-951.741" y2="681.056"/>
		</g>
	</g>
	<g>
		<g>
			<path d="M-961.205,726.074c-48.418,0-87.639,39.281-87.639,87.638c0,48.464,39.221,87.653,87.639,87.653
				c48.386,0,87.622-39.189,87.622-87.653C-873.583,765.355-912.819,726.074-961.205,726.074z M-961.205,876.356
				c-34.566,0-62.584-28.048-62.584-62.645c0-34.583,28.018-62.552,62.584-62.552s62.582,27.969,62.582,62.552
				C-898.623,848.309-926.639,876.356-961.205,876.356z"/>
			<path d="M-961.205,774.711c-21.546,0-39.017,17.549-39.017,39.001c0,21.607,17.471,39.063,39.017,39.063
				c21.528,0,38.984-17.456,38.984-39.063C-922.221,792.26-939.677,774.711-961.205,774.711z M-961.205,826.027
				c-6.77,0-12.254-5.578-12.254-12.315c0-6.724,5.484-12.159,12.254-12.159c6.737,0,12.19,5.436,12.19,12.159
				C-949.015,820.449-954.468,826.027-961.205,826.027z"/>
		</g>
		<path d="M-807.381,1255.256h-481.483c-28.064,0-50.8,22.766-50.8,50.829c0,28.049,22.736,50.722,50.8,50.722h481.483
			c28.049,0,50.8-22.673,50.8-50.722C-756.581,1278.021-779.332,1255.256-807.381,1255.256z M-808.525,1330.984h-481.138
			c-13.79,0-24.945-11.142-24.945-24.899c0-13.772,11.156-25.007,24.945-25.007h481.138c13.821,0,24.978,11.234,24.978,25.007
			C-783.548,1319.843-794.704,1330.984-808.525,1330.984z"/>
		<path d="M-897.181,1092.029c-12.441,0-23.787,4.59-32.545,12.048h-296.792c-21.027,0-38.028,17.019-38.028,38.047
			c0,21.026,17.001,38.027,38.028,38.027h296.792c8.758,7.554,20.104,12.065,32.545,12.065c27.656,0,50.079-22.437,50.079-50.093
			C-847.102,1114.451-869.524,1092.029-897.181,1092.029z M-1226.923,1154.673c-6.895,0-12.505-5.624-12.505-12.549
			c0-6.927,5.61-12.551,12.505-12.551h281.262c-1.034,4.073-1.599,8.194-1.599,12.551c0,4.308,0.564,8.475,1.599,12.549H-1226.923z
			 M-897.181,1166.207c-13.288,0-24.068-10.812-24.068-24.083c0-13.273,10.78-24.085,24.068-24.085
			c13.287,0,24.067,10.812,24.067,24.085C-873.113,1155.396-883.894,1166.207-897.181,1166.207z"/>
		<g>
			<path d="M-1352.402,737.402c-35.381,0-64.025,28.736-64.025,64.055c0,35.319,28.644,64.057,64.025,64.057
				c35.365,0,64.023-28.737,64.023-64.057C-1288.379,766.139-1317.038,737.402-1352.402,737.402z M-1352.402,839.738
				c-21.154,0-38.312-17.158-38.312-38.281c0-21.121,17.157-38.279,38.312-38.279c21.122,0,38.263,17.158,38.263,38.279
				C-1314.139,822.58-1331.281,839.738-1352.402,839.738z"/>
			<rect x="-1365.409" y="788.468" width="25.98" height="26.026"/>
			<rect x="-1213.981" y="662.111" width="25.98" height="25.979"/>
			<rect x="-1416.427" y="700.141" width="25.979" height="25.934"/>
			<rect x="-1226.986" y="765.466" width="25.979" height="25.916"/>
			<rect x="-1301.384" y="888.375" width="25.98" height="26.026"/>
			<path d="M-1315.894,939.504c-19.899-1.41-35.648-17.879-35.648-38.139h-25.776c0,34.551,27.28,62.598,61.424,63.961V939.504z"/>
			<path d="M-1352.402,677.467c19.899-1.395,35.631-17.925,35.631-38.217h25.744c0,34.488-27.249,62.646-61.375,64.041V677.467z"/>
			<path d="M-1189.224,981.748c-26.982,13.366-57.38,20.935-89.564,20.935c-111.127,0-201.24-90.036-201.24-201.226
				c0-111.188,90.113-201.223,201.24-201.223c81.636,0,151.897,48.605,183.486,118.381l15.528-26.951
				c-38.734-70.058-113.336-117.441-199.014-117.441c-125.511,0-227.267,101.74-227.267,227.234
				c0,125.496,101.755,227.235,227.267,227.235c41.617,0,80.602-11.141,114.15-30.711L-1189.224,981.748z"/>
		</g>
	</g>
</g>
<path fill="none" stroke="#000000" stroke-width="30" stroke-miterlimit="10" d="M-1745.998,166.05
	c0,21.647-17.604,39.191-39.306,39.191c-21.648,0-39.197-17.544-39.197-39.191c0-21.763,17.549-39.425,39.197-39.425
	C-1763.602,126.625-1745.998,144.288-1745.998,166.05z"/>
<g>
	<path fill="none" stroke="#000000" stroke-width="30" stroke-miterlimit="10" d="M-1693.47-334.147
		c0,21.647-17.549,39.195-39.254,39.195c-21.648,0-39.251-17.548-39.251-39.195c0-21.648,17.603-39.196,39.251-39.196
		C-1711.019-373.343-1693.47-355.795-1693.47-334.147z"/>
	<path fill="none" stroke="#000000" stroke-width="30" stroke-miterlimit="10" d="M-1538.799,345.16
		c0,21.648-17.604,39.199-39.254,39.199c-21.646,0-39.252-17.551-39.252-39.199s17.605-39.305,39.252-39.305
		C-1556.403,305.855-1538.799,323.512-1538.799,345.16z"/>
	<path fill="none" stroke="#000000" stroke-width="30" stroke-miterlimit="10" d="M-1329.378,250.022
		c0,21.652-17.489,39.306-39.192,39.306c-21.71,0-39.313-17.654-39.313-39.306c0-21.761,17.604-39.313,39.313-39.313
		C-1346.867,210.708-1329.378,228.261-1329.378,250.022z"/>
	<path fill="none" stroke="#000000" stroke-width="30" stroke-miterlimit="10" d="M-1389.652-194.001l13.613-38.056
		c0,0,20.909-38.74-9.341-49.223c-30.308-10.481-44.438,23.927-44.438,23.927l-18.4,49.452
		c-62.265-12.533-115.817-5.015-115.817-5.015s-13.277-55.032-16.638-70.187c-3.418-15.382-15.041-24.725-37.656-19.598
		c-22.669,5.013-16.979,30.308-16.979,30.308l15.271,71.326c-36.233,7.863-108.411,37.828-108.411,37.828
		s-32.874-36.688-50.646-56.856c-17.888-20.053-36.856-5.355-36.856-5.355c-21.482,18.915-4.85,43.753-4.85,43.753l43.354,51.273
		c-48.308,28.371-79.639,84.542-79.639,84.542s-33.954-15.04-63.408-27.118c-29.455-12.077-38.514,13.218-38.514,13.218
		c-10.54,35.892,18.117,39.994,18.117,39.994l55.49,23.812c0,0-47.571,55.833-37.714,182.645
		c9.798,126.817,121.347,119.186,121.347,119.186c129.604-12.881,135.246-88.536,146.582-128.187
		c11.335-39.649,26.091-51.728,26.091-51.728s26.149,24.838,34.295,31.677c11.222,9.571,31.106,26.203,46.431,14.354
		c26.035-20.164,7.573-43.066,7.573-43.066l-55.431-49.451c41.077-47.853,106.025-45.233,106.025-45.233
		s16.577,41.588,21.874,52.069c5.303,10.598,18.119,29.055,43.413,19.257s10.199-40.678,10.199-40.678l-12.082-27.573l36.976-2.277
		c42.671-2.962,125.673-34.752,125.275-107.56C-1264.89-145.463-1389.652-194.001-1389.652-194.001z M-1786.784,248.768
		c-47.911,0-86.768-38.741-86.768-86.708c0-47.968,38.856-86.707,86.768-86.707c47.848,0,86.706,38.739,86.706,86.707
		C-1700.078,210.027-1738.937,248.768-1786.784,248.768z"/>
</g>
<g>
	<g>
		<path d="M-2095.5,762.443v215.424c0,0,0.532,6.529,10.392,17.985c9.859,11.457,126.829,139.885,189.178,247.531
			c0,0,34.43,72.208-39.433,72.208c-80.145,0-498.793,0-498.793,0s-70.876-5.596-45.297-56.754
			c25.58-51.158,75.138-128.428,197.705-266.981c0,0,7.994-6.595,7.994-12.59s0-216.823,0-216.823H-2095.5 M-2095.5,732.443
			h-178.254c-16.569,0-30,13.432-30,30v209.012c-0.144,0.163-0.297,0.336-0.463,0.524c-57.22,64.683-102.072,119.846-137.119,168.64
			c-27.785,38.683-49.029,72.964-64.949,104.802c-14.126,28.253-8.58,49.252-1.44,61.893c8.617,15.255,23.838,26.354,45.24,32.987
			c13.245,4.104,24.705,5.099,25.968,5.198c0.786,0.062,1.573,0.093,2.361,0.093h498.793c39.55,0,58.507-16.885,67.446-31.05
			c9.758-15.463,12.425-35.443,7.714-57.781c-2.995-14.204-8.078-25.094-8.648-26.289c-0.345-0.723-0.718-1.431-1.119-2.124
			c-26.673-46.052-80.912-126.266-187.832-246.889c-2.155-2.431-3.857-4.351-4.566-5.175c-1.475-1.714-2.475-3.077-3.131-4.063
			V762.443C-2065.5,745.875-2078.932,732.443-2095.5,732.443L-2095.5,732.443z"/>
	</g>
	<g>
		<path d="M-2187.139,1021.03c0.224,0,0.445,0.001,0.671,0.002c70.984,0.399,93.965,60.551,93.766,89.127
			c-0.2,28.577,0.935,45.563,0.001,73.141c0,0-34.24,3.33-34.24,33.173s-0.266,34.906-0.266,34.906h-117.239l0.534-34.904
			c0,0-2.931-31.978-33.839-33.175c0,0-3.997-54.556,0-77.137C-2273.767,1083.652-2257.553,1021.032-2187.139,1021.03
			 M-2187.139,991.03L-2187.139,991.03c-39.825,0.001-72.513,16.098-94.529,46.549c-15.772,21.814-22.64,46.494-25.625,63.355
			c-4.425,25.001-1.092,74.823-0.379,84.558l1.96,26.747l26.799,1.038c2.584,0.1,2.768,0.427,3.545,1.804
			c0.674,1.194,1.176,2.727,1.418,3.548l-0.494,32.291l-0.466,30.459h30.463h117.239h28.467l1.492-28.428
			c0.072-1.372,0.307-8.059,0.307-36.479c0-0.233,0.009-0.419,0.021-0.563c1.309-1.047,4.758-2.358,7.341-2.765l26.996-1.665
			l-0.135-27.166c0.582-17.176,0.396-30.306,0.199-44.208c-0.129-9.11-0.262-18.53-0.184-29.737
			c0.153-22.018-9.093-57.273-35.656-84.174c-22.521-22.807-52.93-34.966-87.939-35.163L-2187.139,991.03L-2187.139,991.03z"/>
	</g>
	
		<line fill="none" stroke="#000000" stroke-width="18" stroke-miterlimit="10" x1="-2208.74" y1="1219.404" x2="-2208.74" y2="1251.379"/>
	
		<line fill="none" stroke="#000000" stroke-width="30" stroke-linecap="round" stroke-miterlimit="10" x1="-2208.74" y1="1216.741" x2="-2208.74" y2="1251.379"/>
	
		<line fill="none" stroke="#000000" stroke-width="30" stroke-linecap="round" stroke-miterlimit="10" x1="-2157.05" y1="1216.741" x2="-2157.05" y2="1251.379"/>
	
		<line fill="none" stroke="#000000" stroke-width="30" stroke-linecap="round" stroke-miterlimit="10" x1="-2184.76" y1="1142.137" x2="-2184.76" y2="1176.774"/>
	
		<line fill="none" stroke="#000000" stroke-width="30" stroke-linecap="round" stroke-miterlimit="10" x1="-2137.066" y1="1115.755" x2="-2118.946" y2="1144.266"/>
	
		<line fill="none" stroke="#000000" stroke-width="30" stroke-linecap="round" stroke-miterlimit="10" x1="-2236.213" y1="1116.965" x2="-2254.333" y2="1145.476"/>
	<g>
		<path d="M-2254.333,621.713c15.445,0,27.964,12.52,27.964,27.963c0,15.444-12.519,27.964-27.964,27.964
			c-15.444,0-27.963-12.52-27.963-27.964C-2282.296,634.232-2269.777,621.713-2254.333,621.713 M-2254.333,601.713
			c-26.447,0-47.963,21.516-47.963,47.963s21.516,47.964,47.963,47.964s47.964-21.517,47.964-47.964
			S-2227.886,601.713-2254.333,601.713L-2254.333,601.713z"/>
	</g>
	<g>
		<path d="M-2111.087,659.215c9.492,0,17.186,7.694,17.186,17.187c0,9.491-7.693,17.187-17.186,17.187s-17.187-7.695-17.187-17.187
			C-2128.273,666.909-2120.579,659.215-2111.087,659.215 M-2111.087,639.215c-20.505,0-37.187,16.682-37.187,37.187
			s16.682,37.187,37.187,37.187c20.504,0,37.186-16.682,37.186-37.187S-2090.583,639.215-2111.087,639.215L-2111.087,639.215z"/>
	</g>
	<g>
		<path d="M-2151.55,570.467c8.869,0,16.061,7.191,16.061,16.061c0,8.871-7.191,16.061-16.061,16.061
			c-8.871,0-16.061-7.189-16.061-16.061C-2167.61,577.658-2160.421,570.467-2151.55,570.467 M-2151.55,550.467
			c-19.884,0-36.061,16.177-36.061,36.061c0,19.885,16.177,36.061,36.061,36.061s36.061-16.176,36.061-36.061
			C-2115.489,566.644-2131.666,550.467-2151.55,550.467L-2151.55,550.467z"/>
	</g>
</g>
<g>
	<g>
		<path d="M-745.181,145.254v199.101h-52.44V145.254H-745.181 M-745.181,115.254h-52.44c-16.568,0-30,13.432-30,30v199.101
			c0,16.568,13.432,30,30,30h52.44c16.568,0,30-13.432,30-30V145.254C-715.181,128.686-728.613,115.254-745.181,115.254
			L-745.181,115.254z"/>
	</g>
	<g>
		<path d="M-827.48,208.566v108.076h-48.389c0,0-51.586-2.301-51.586-54.572c0-52.271,52.865-53.504,52.865-53.504H-827.48
			 M-797.48,178.566h-30h-47.11h-0.35l-0.35,0.008c-3.365,0.079-21.084,0.954-39.525,10.501
			c-27.497,14.235-42.64,40.159-42.64,72.995c0,32.493,14.671,58.476,41.311,73.16c18.12,9.988,35.616,11.234,38.939,11.382
			l0.668,0.03h0.669h48.389h30v-30V208.566V178.566L-797.48,178.566z"/>
	</g>
	<g>
		<path d="M-667.702,208.566c0,0,52.864,1.233,52.864,53.504c0,52.271-51.585,54.572-51.585,54.572h-48.39V208.566H-667.702
			 M-667.352,178.566h-0.35h-47.111h-30v30v108.076v30h30h48.39h0.668l0.668-0.03c3.323-0.147,20.819-1.394,38.938-11.382
			c26.639-14.685,41.309-40.667,41.309-73.16c0-32.836-15.143-58.76-42.639-72.995c-18.441-9.547-36.16-10.422-39.525-10.501
			L-667.352,178.566L-667.352,178.566z"/>
	</g>
	<g>
		<path d="M-667.604,245.231c10.138,0,18.358,8.219,18.358,18.357s-8.22,18.358-18.358,18.358c-10.14,0-18.359-8.22-18.359-18.358
			S-677.744,245.231-667.604,245.231 M-667.604,225.231c-21.151,0-38.359,17.207-38.359,38.357
			c0,21.151,17.208,38.358,38.359,38.358c21.151,0,38.358-17.207,38.358-38.358C-629.245,242.438-646.453,225.231-667.604,225.231
			L-667.604,225.231z"/>
	</g>
	<g>
		<path d="M-457.754,301.208c11.551,0,20.917,9.364,20.917,20.916s-9.366,20.916-20.917,20.916
			c-11.552,0-20.917-9.364-20.917-20.916S-469.306,301.208-457.754,301.208 M-457.754,283.208
			c-21.459,0-38.917,17.458-38.917,38.916s17.458,38.916,38.917,38.916s38.917-17.458,38.917-38.916
			S-436.295,283.208-457.754,283.208L-457.754,283.208z"/>
	</g>
	<g>
		<path d="M-871.235,245.231c10.138,0,18.358,8.219,18.358,18.357s-8.22,18.358-18.358,18.358c-10.14,0-18.359-8.22-18.359-18.358
			S-881.375,245.231-871.235,245.231 M-871.235,225.231c-21.151,0-38.359,17.207-38.359,38.357
			c0,21.151,17.208,38.358,38.359,38.358c21.151,0,38.358-17.207,38.358-38.358C-832.877,242.438-850.084,225.231-871.235,225.231
			L-871.235,225.231z"/>
	</g>
	<g>
		<path d="M-771.361,92.41c7.075,0,7.075,7.435,7.075,7.435v14.788h-14.149V99.525C-778.436,99.525-778.436,92.41-771.361,92.41
			 M-771.361,62.41c-23.207,0-37.074,18.871-37.074,37.115v15.107c0,16.568,13.432,30,30,30h14.149c16.568,0,30-13.432,30-30V99.845
			C-734.287,81.443-748.154,62.41-771.361,62.41L-771.361,62.41z"/>
	</g>
	
		<line fill="none" stroke="#000000" stroke-width="30" stroke-linecap="round" stroke-linejoin="round" stroke-miterlimit="10" x1="-771.401" y1="-332.244" x2="-771.361" y2="76.987"/>
	<g>
		<path d="M-764.367,374.08v18.865h-14.069V374.08H-764.367 M-764.367,344.08h-14.069c-16.568,0-30,13.432-30,30v18.865
			c0,16.568,13.432,30,30,30h14.069c16.568,0,30-13.432,30-30V374.08C-734.367,357.512-747.798,344.08-764.367,344.08
			L-764.367,344.08z"/>
	</g>
	
		<line fill="none" stroke="#000000" stroke-width="30" stroke-linecap="round" stroke-linejoin="round" stroke-miterlimit="10" x1="-811.69" y1="412.853" x2="-731.112" y2="412.853"/>
	<g>
		<path d="M-379.034-152.116v39.649c0,0-2.729,0-13.642,0c-11.298,0-11.298,12.15-11.298,12.15v444.137
			c0,0-1.879,51.267-52.76,51.267c-51.013,0-52.759-51.267-52.759-51.267s0-425.125,0-441.152c0-15.135-13.87-15.135-13.87-15.135
			h-18.105v-39.649H-379.034 M-349.034-182.116h-30h-162.434h-30v30v39.649v30h30h1.976v426.288v0.511l0.018,0.511
			c0.112,3.298,1.158,20.664,10.742,38.693c14.244,26.795,39.813,41.552,71.999,41.552c32.119,0,57.666-14.747,71.936-41.525
			c9.595-18.005,10.684-35.349,10.804-38.643l0.021-0.549v-0.55V-82.466h24.939v-30v-39.649V-182.116L-349.034-182.116z"/>
	</g>
	<g>
		<path d="M-435.63-200.079v96.565h-42.207v-96.565H-435.63 M-435.63-230.079h-42.207c-16.568,0-30,13.432-30,30v96.565
			c0,16.568,13.432,30,30,30h42.207c16.568,0,30-13.432,30-30v-96.565C-405.63-216.647-419.062-230.079-435.63-230.079
			L-435.63-230.079z"/>
	</g>
	
		<line fill="none" stroke="#000000" stroke-width="30" stroke-linecap="round" stroke-linejoin="round" stroke-miterlimit="10" x1="-322.543" y1="154.671" x2="-322.543" y2="164.904"/>
	
		<line fill="none" stroke="#000000" stroke-width="30" stroke-linecap="round" stroke-linejoin="round" stroke-miterlimit="10" x1="-322.543" y1="233.357" x2="-322.543" y2="243.589"/>
	
		<line fill="none" stroke="#000000" stroke-width="30" stroke-linecap="round" stroke-linejoin="round" stroke-miterlimit="10" x1="-322.543" y1="313.589" x2="-322.543" y2="323.821"/>
	
		<line fill="none" stroke="#000000" stroke-width="30" stroke-linecap="round" stroke-linejoin="round" stroke-miterlimit="10" x1="-322.543" y1="391.608" x2="-322.543" y2="401.84"/>
</g>
<g>
	<path d="M255.222,0.304c141.324,0,255.891,114.565,255.891,255.892c0,141.321-114.566,255.887-255.891,255.887
		S-0.668,397.518-0.668,256.196C-0.668,114.87,113.897,0.304,255.222,0.304 M255.222-29.696c-38.582,0-76.025,7.563-111.291,22.479
		C109.884,7.184,79.313,27.793,53.067,54.04S6.211,110.857-8.189,144.905c-14.916,35.265-22.479,72.709-22.479,111.292
		c0,38.581,7.563,76.024,22.479,111.289c14.401,34.047,35.01,64.617,61.256,90.863c26.246,26.245,56.817,46.854,90.864,61.256
		c35.266,14.915,72.709,22.479,111.291,22.479c38.582,0,76.025-7.563,111.291-22.479c34.047-14.401,64.618-35.011,90.864-61.256
		c26.246-26.246,46.855-56.816,61.256-90.863c14.916-35.265,22.479-72.708,22.479-111.289c0-38.582-7.563-76.026-22.479-111.292
		c-14.4-34.047-35.01-64.619-61.256-90.865S400.56,7.184,366.513-7.217C331.247-22.133,293.804-29.696,255.222-29.696
		L255.222-29.696z"/>
</g>
<g>
	
		<line fill="none" stroke="#000000" stroke-width="30" stroke-linecap="round" stroke-miterlimit="10" x1="255.222" y1="-96.162" x2="255.222" y2="-15.196"/>
	
		<line fill="none" stroke="#000000" stroke-width="30" stroke-linecap="round" stroke-linejoin="round" stroke-miterlimit="10" x1="216.336" y1="-96.162" x2="294.109" y2="-96.162"/>
</g>
<g>
	
		<line fill="none" stroke="#000000" stroke-width="30" stroke-linecap="round" stroke-miterlimit="10" x1="255.222" y1="607.805" x2="255.222" y2="526.838"/>
	
		<line fill="none" stroke="#000000" stroke-width="30" stroke-linecap="round" stroke-linejoin="round" stroke-miterlimit="10" x1="216.336" y1="607.805" x2="294.109" y2="607.805"/>
</g>
<g>
	
		<line fill="none" stroke="#000000" stroke-width="30" stroke-linecap="round" stroke-miterlimit="10" x1="606.649" y1="238.498" x2="525.684" y2="238.498"/>
	
		<line fill="none" stroke="#000000" stroke-width="30" stroke-linecap="round" stroke-linejoin="round" stroke-miterlimit="10" x1="606.649" y1="199.612" x2="606.649" y2="277.386"/>
</g>
<g>
	
		<line fill="none" stroke="#000000" stroke-width="30" stroke-linecap="round" stroke-miterlimit="10" x1="421.833" y1="-54.35" x2="380.185" y2="15.082"/>
	
		<line fill="none" stroke="#000000" stroke-width="30" stroke-linecap="round" stroke-linejoin="round" stroke-miterlimit="10" x1="388.487" y1="-74.354" x2="455.182" y2="-34.346"/>
</g>
<g>
	
		<line fill="none" stroke="#000000" stroke-width="30" stroke-linecap="round" stroke-miterlimit="10" x1="552.061" y1="66.468" x2="482.63" y2="108.117"/>
	
		<line fill="none" stroke="#000000" stroke-width="30" stroke-linecap="round" stroke-linejoin="round" stroke-miterlimit="10" x1="532.06" y1="33.121" x2="572.066" y2="99.816"/>
</g>
<g>
	
		<line fill="none" stroke="#000000" stroke-width="30" stroke-linecap="round" stroke-miterlimit="10" x1="439.393" y1="556.962" x2="397.744" y2="487.53"/>
	
		<line fill="none" stroke="#000000" stroke-width="30" stroke-linecap="round" stroke-linejoin="round" stroke-miterlimit="10" x1="406.047" y1="576.966" x2="472.741" y2="536.959"/>
</g>
<g>
	
		<line fill="none" stroke="#000000" stroke-width="30" stroke-linecap="round" stroke-miterlimit="10" x1="566.558" y1="421.196" x2="497.127" y2="379.548"/>
	
		<line fill="none" stroke="#000000" stroke-width="30" stroke-linecap="round" stroke-linejoin="round" stroke-miterlimit="10" x1="546.557" y1="454.544" x2="586.563" y2="387.849"/>
</g>
<g>
	
		<line fill="none" stroke="#000000" stroke-width="30" stroke-linecap="round" stroke-miterlimit="10" x1="-96.815" y1="238.498" x2="-15.85" y2="238.498"/>
	
		<line fill="none" stroke="#000000" stroke-width="30" stroke-linecap="round" stroke-linejoin="round" stroke-miterlimit="10" x1="-96.815" y1="199.612" x2="-96.815" y2="277.386"/>
</g>
<g>
	
		<line fill="none" stroke="#000000" stroke-width="30" stroke-linecap="round" stroke-miterlimit="10" x1="88.001" y1="-54.35" x2="129.649" y2="15.082"/>
	
		<line fill="none" stroke="#000000" stroke-width="30" stroke-linecap="round" stroke-linejoin="round" stroke-miterlimit="10" x1="121.347" y1="-74.354" x2="54.652" y2="-34.346"/>
</g>
<g>
	
		<line fill="none" stroke="#000000" stroke-width="30" stroke-linecap="round" stroke-miterlimit="10" x1="-42.227" y1="66.468" x2="27.204" y2="108.117"/>
	
		<line fill="none" stroke="#000000" stroke-width="30" stroke-linecap="round" stroke-linejoin="round" stroke-miterlimit="10" x1="-22.226" y1="33.121" x2="-62.232" y2="99.816"/>
</g>
<g>
	
		<line fill="none" stroke="#000000" stroke-width="30" stroke-linecap="round" stroke-miterlimit="10" x1="70.441" y1="556.962" x2="112.09" y2="487.53"/>
	
		<line fill="none" stroke="#000000" stroke-width="30" stroke-linecap="round" stroke-linejoin="round" stroke-miterlimit="10" x1="103.787" y1="576.966" x2="37.093" y2="536.959"/>
</g>
<g>
	
		<line fill="none" stroke="#000000" stroke-width="30" stroke-linecap="round" stroke-miterlimit="10" x1="-56.724" y1="421.196" x2="12.707" y2="379.548"/>
	
		<line fill="none" stroke="#000000" stroke-width="30" stroke-linecap="round" stroke-linejoin="round" stroke-miterlimit="10" x1="-36.723" y1="454.544" x2="-76.729" y2="387.849"/>
</g>
<g>
	<path d="M129.649,136.76c15.717,0,28.458,12.741,28.458,28.458c0,15.717-12.741,28.458-28.458,28.458s-28.458-12.741-28.458-28.458
		C101.191,149.501,113.932,136.76,129.649,136.76 M129.649,106.76c-32.234,0-58.458,26.224-58.458,58.458
		c0,32.233,26.224,58.458,58.458,58.458s58.458-26.224,58.458-58.458C188.107,132.984,161.883,106.76,129.649,106.76L129.649,106.76
		z"/>
</g>
<g>
	<path d="M302.458,61.659c25.659,0,46.458,20.799,46.458,46.458c0,25.658-20.799,46.458-46.458,46.458
		c-25.66,0-46.458-20.799-46.458-46.458C256,82.458,276.798,61.659,302.458,61.659 M302.458,31.659
		c-42.159,0-76.458,34.299-76.458,76.458c0,42.159,34.299,76.458,76.458,76.458s76.458-34.299,76.458-76.458
		C378.916,65.958,344.617,31.659,302.458,31.659L302.458,31.659z"/>
</g>
<g>
	<path d="M333.727,361.629c25.659,0,46.458,20.799,46.458,46.457s-20.799,46.458-46.458,46.458c-25.66,0-46.458-20.8-46.458-46.458
		S308.066,361.629,333.727,361.629 M333.727,331.629c-42.159,0-76.458,34.299-76.458,76.457c0,42.159,34.299,76.458,76.458,76.458
		s76.458-34.299,76.458-76.458C410.185,365.928,375.886,331.629,333.727,331.629L333.727,331.629z"/>
</g>
<g>
	<path d="M439.394,210.673c9.09,0,16.458,7.368,16.458,16.458c0,9.089-7.368,16.458-16.458,16.458s-16.458-7.368-16.458-16.458
		C422.936,218.042,430.304,210.673,439.394,210.673 M439.394,180.673c-25.617,0-46.458,20.841-46.458,46.458
		s20.841,46.458,46.458,46.458s46.458-20.841,46.458-46.458S465.011,180.673,439.394,180.673L439.394,180.673z"/>
</g>
<g>
	<path d="M101.191,344.709c9.09,0,16.458,7.368,16.458,16.458c0,9.089-7.368,16.458-16.458,16.458s-16.458-7.369-16.458-16.458
		C84.733,352.077,92.102,344.709,101.191,344.709 M101.191,314.709c-25.617,0-46.458,20.841-46.458,46.458
		s20.841,46.458,46.458,46.458s46.458-20.841,46.458-46.458S126.809,314.709,101.191,314.709L101.191,314.709z"/>
</g>
<g>
	<path d="M242.336,246.928c16.822,0,30.458,13.636,30.458,30.458s-13.636,30.457-30.458,30.457s-30.458-13.635-30.458-30.457
		S225.514,246.928,242.336,246.928 M242.336,216.928c-33.337,0-60.458,27.121-60.458,60.458c0,33.336,27.122,60.457,60.458,60.457
		s60.458-27.121,60.458-60.457C302.794,244.049,275.673,216.928,242.336,216.928L242.336,216.928z"/>
</g>
</svg>
