<?xml version="1.0" encoding="utf-8"?>
<!-- Generator: Adobe Illustrator 15.0.0, SVG Export Plug-In . SVG Version: 6.00 Build 0)  -->
<!DOCTYPE svg PUBLIC "-//W3C//DTD SVG 1.1//EN" "http://www.w3.org/Graphics/SVG/1.1/DTD/svg11.dtd">
<svg version="1.1" id="Layer_1" xmlns="http://www.w3.org/2000/svg" xmlns:xlink="http://www.w3.org/1999/xlink" x="0px" y="0px"
	 width="812px" height="812px" viewBox="-150 -150 812 812" enable-background="new -150 -150 812 812" xml:space="preserve">
<g>
	<path d="M-2523.443-355.899c200.43,0,362.908,162.48,362.908,362.909s-162.479,362.905-362.908,362.905
		s-362.908-162.476-362.908-362.905S-2723.873-355.899-2523.443-355.899 M-2523.443-390.899
		c-53.702,0-105.816,10.525-154.895,31.284c-47.387,20.043-89.937,48.729-126.469,85.261
		c-36.532,36.532-65.218,79.082-85.261,126.469c-20.758,49.079-31.284,101.193-31.284,154.895
		c0,53.702,10.525,105.815,31.284,154.895c20.043,47.386,48.729,89.937,85.261,126.467c36.532,36.531,79.082,65.217,126.469,85.26
		c49.078,20.758,101.192,31.283,154.895,31.283s105.816-10.525,154.895-31.283c47.387-20.043,89.938-48.729,126.47-85.26
		c36.531-36.531,65.217-79.082,85.26-126.467c20.759-49.079,31.284-101.192,31.284-154.895c0-53.702-10.525-105.816-31.284-154.895
		c-20.043-47.387-48.729-89.938-85.26-126.469c-36.532-36.532-79.082-65.218-126.47-85.261
		C-2417.626-380.374-2469.741-390.899-2523.443-390.899L-2523.443-390.899z"/>
</g>
<g>
	<path d="M-2523.443-288.678c163.305,0,295.688,132.383,295.688,295.688c0,163.303-132.384,295.686-295.688,295.686
		c-163.305,0-295.688-132.383-295.688-295.686C-2819.13-156.295-2686.748-288.678-2523.443-288.678 M-2523.443-323.678
		c-44.627,0-87.938,8.748-128.73,26.001c-39.382,16.657-74.744,40.496-105.102,70.854s-54.197,65.72-70.854,105.102
		c-17.253,40.792-26.001,84.103-26.001,128.729s8.748,87.938,26.001,128.729c16.657,39.382,40.496,74.743,70.854,105.102
		c30.358,30.358,65.72,54.198,105.102,70.854c40.792,17.254,84.103,26.002,128.73,26.002c44.627,0,87.938-8.748,128.729-26.002
		c39.383-16.656,74.744-40.496,105.103-70.854c30.358-30.358,54.197-65.72,70.854-105.102
		c17.254-40.791,26.002-84.102,26.002-128.729s-8.748-87.938-26.002-128.729c-16.656-39.382-40.496-74.744-70.854-105.102
		s-65.72-54.197-105.103-70.854C-2435.504-314.93-2478.816-323.678-2523.443-323.678L-2523.443-323.678z"/>
</g>
<g>
	<path d="M1566.386,193.004c-7.817-7.669-163.215-153.406-163.215-153.406s-31.482-33.76-86.756-34.088
		c-55.273-0.297-92.147,36.863-92.147,36.863s-40.2,35.92-38.061,91.84c2.14,55.867,31.927,85.357,32.837,85.961
		c0.943,0.625,154.953,157.718,154.953,157.718s9.683,8.889,18.75,0c9.047-8.93,173.639-167.368,173.639-167.368
		S1574.235,200.673,1566.386,193.004z M1535.381,204.413c-2.235,1.959-150.069,144.444-150.069,144.444s-2.035,2.34-4.291,0
		c-2.277-2.33-147.506-150.79-147.506-150.79s-22.732-27.626-21.102-64.49c1.632-36.842,20.783-95.495,102.975-102.561
		c0,0,41.365,0.805,68.387,25.804c27.013,24.978,151.606,142.792,151.606,142.792S1537.637,202.475,1535.381,204.413z"/>
	<path d="M1274.657,148.896L1274.657,148.896c-5.444-5.445-14.258-5.445-19.691,0c-5.413,5.444-5.413,14.257,0,19.703
		l105.728,106.596v-0.052v0.052c5.444,5.413,14.258,5.413,19.681-0.052c5.424-5.445,5.424-14.228-0.021-19.683l0,0l0,0
		L1274.657,148.896z"/>
	<path d="M1583.907,210.525c0,0,164.613,158.438,173.67,167.368c9.057,8.889,18.74,0,18.74,0s153.998-157.093,154.908-157.718
		c0.965-0.604,30.752-30.094,32.881-85.961c2.162-55.92-38.059-91.84-38.059-91.84s-36.854-37.16-92.182-36.863
		c-55.23,0.328-86.713,34.088-86.713,34.088s-155.387,145.736-163.246,153.406C1576.089,200.673,1583.907,210.525,1583.907,210.525z
		 M1614.976,199.614c0,0,124.541-117.814,151.574-142.792c27.033-24.999,68.418-25.804,68.418-25.804
		c82.148,7.065,101.301,65.719,102.941,102.561c1.664,36.863-21.078,64.49-21.078,64.49s-145.281,148.459-147.518,150.79
		c-2.256,2.34-4.311,0-4.311,0s-147.781-142.485-150.027-144.444C1612.72,202.475,1614.976,199.614,1614.976,199.614z"/>
	<path d="M1875.667,148.896L1875.667,148.896c5.434-5.445,14.279-5.445,19.691,0c5.424,5.444,5.424,14.257,0,19.703
		l-105.705,106.596v-0.052v0.052c-5.457,5.413-14.26,5.413-19.725-0.052c-5.424-5.445-5.424-14.228,0.031-19.683l0,0l0,0
		L1875.667,148.896z"/>
	<path d="M1531.101,382.1c0,11.717-9.522,21.229-21.228,21.229c-11.727,0-21.239-9.512-21.239-21.229
		c0-11.77,9.513-21.281,21.239-21.281C1521.578,360.818,1531.101,370.33,1531.101,382.1z"/>
	<path d="M1622.899,377.174c0,11.717-9.514,21.229-21.186,21.229c-11.748,0-21.26-9.512-21.26-21.229
		c0-11.77,9.512-21.27,21.26-21.27C1613.386,355.904,1622.899,365.404,1622.899,377.174z"/>
	<path d="M1687.642,424.566c0,11.715-9.533,21.26-21.27,21.26c-11.693,0-21.195-9.545-21.195-21.26
		c0-11.738,9.502-21.238,21.195-21.238C1678.108,403.328,1687.642,412.828,1687.642,424.566z"/>
	<path d="M1622.899,467.023c0,11.756-9.514,21.279-21.186,21.279c-11.748,0-21.26-9.523-21.26-21.279
		c0-11.674,9.512-21.197,21.26-21.197C1613.386,445.826,1622.899,455.35,1622.899,467.023z"/>
	<path d="M1531.101,453.094c0,11.715-9.522,21.271-21.228,21.271c-11.727,0-21.239-9.557-21.239-21.271
		c0-11.77,9.513-21.271,21.239-21.271C1521.578,431.822,1531.101,441.324,1531.101,453.094z"/>
	<path d="M1460.68,516.959c0,11.715-9.502,21.227-21.239,21.227c-11.736,0-21.249-9.512-21.249-21.227
		c0-11.738,9.513-21.24,21.249-21.24C1451.178,495.719,1460.68,505.221,1460.68,516.959z"/>
	<path d="M1580.454,528.42c0,11.727-9.514,21.27-21.262,21.27c-11.715,0-21.228-9.543-21.228-21.27
		c0-11.717,9.513-21.23,21.228-21.23C1570.94,507.189,1580.454,516.703,1580.454,528.42z"/>
	<path d="M1673.786,552.994c0,11.717-9.512,21.229-21.195,21.229c-11.77,0-21.26-9.512-21.26-21.229
		c0-11.715,9.49-21.227,21.26-21.227C1664.274,531.768,1673.786,541.279,1673.786,552.994z"/>
	<path d="M1636.944,607.051c0,11.715-9.5,21.227-21.227,21.227c-11.77,0-21.26-9.512-21.26-21.227
		c0-11.727,9.49-21.229,21.26-21.229C1627.444,585.822,1636.944,595.324,1636.944,607.051z"/>
	<path d="M1531.101,610.971c0,11.727-9.522,21.227-21.228,21.227c-11.727,0-21.239-9.5-21.239-21.227s9.513-21.23,21.239-21.23
		C1521.578,589.74,1531.101,599.244,1531.101,610.971z"/>
</g>
<g>
	<g>
		<path d="M955.689,848.262l81.301,46.451v96.15l-81.773,46.934l-81.725-48.778v-94.306L955.689,848.262 M955.689,818.262
			c-5.09,0-10.178,1.293-14.76,3.882l-82.197,46.45c-9.417,5.322-15.24,15.302-15.24,26.119v94.306
			c0,10.563,5.555,20.347,14.625,25.761l81.725,48.778c4.732,2.824,10.053,4.239,15.376,4.239c5.152,0,10.306-1.325,14.933-3.981
			l81.773-46.934c9.318-5.349,15.066-15.273,15.066-26.019v-96.15c0-10.767-5.77-20.707-15.117-26.049l-81.301-46.451
			C965.963,819.58,960.826,818.262,955.689,818.262L955.689,818.262z"/>
	</g>
	<g>
		<path d="M1053.803,1016.418l81.254,46.45v96.152l-81.727,46.911l-81.771-48.757v-94.307L1053.803,1016.418 M1053.803,986.418
			c-5.087,0-10.174,1.292-14.752,3.878l-82.245,46.45c-9.421,5.321-15.247,15.303-15.247,26.122v94.307
			c0,10.567,5.56,20.355,14.637,25.768l81.771,48.757c4.729,2.819,10.046,4.232,15.363,4.232c5.153,0,10.307-1.325,14.935-3.981
			l81.728-46.911c9.318-5.35,15.065-15.273,15.065-26.019v-96.152c0-10.764-5.767-20.702-15.111-26.045l-81.254-46.45
			C1064.08,987.737,1058.941,986.418,1053.803,986.418L1053.803,986.418z"/>
	</g>
	<g>
		<path d="M1342.178,848.262l81.276,46.451v96.15l-81.737,46.934l-81.76-48.778v-94.306L1342.178,848.262 M1342.178,818.262
			c-5.089,0-10.177,1.293-14.757,3.88l-82.221,46.45c-9.419,5.322-15.243,15.303-15.243,26.121v94.306
			c0,10.564,5.557,20.351,14.63,25.764l81.76,48.778c4.73,2.822,10.05,4.236,15.37,4.236c5.154,0,10.311-1.326,14.938-3.983
			l81.737-46.934c9.316-5.35,15.062-15.273,15.062-26.017v-96.15c0-10.766-5.768-20.705-15.114-26.047l-81.276-46.451
			C1352.453,819.58,1347.314,818.262,1342.178,818.262L1342.178,818.262z"/>
	</g>
	<g>
		<path d="M1148.918,848.262l81.311,46.451v96.15l-81.762,46.934l-81.749-48.778v-94.306L1148.918,848.262 M1148.918,818.262
			c-5.09,0-10.18,1.293-14.76,3.882l-82.199,46.45c-9.418,5.322-15.241,15.302-15.241,26.119v94.306
			c0,10.564,5.556,20.35,14.628,25.763l81.75,48.778c4.731,2.823,10.051,4.237,15.372,4.237c5.152,0,10.308-1.326,14.935-3.981
			l81.762-46.934c9.318-5.35,15.064-15.273,15.064-26.019v-96.15c0-10.768-5.77-20.709-15.119-26.05l-81.311-46.45
			C1159.188,819.579,1154.053,818.262,1148.918,818.262L1148.918,818.262z"/>
	</g>
	<g>
		<path d="M864.658,1018.263l81.277,46.473v96.154l-81.75,46.909l-81.726-48.778v-94.285L864.658,1018.263 M864.658,988.263
			c-5.092,0-10.183,1.294-14.765,3.885l-82.198,46.473c-9.414,5.322-15.235,15.301-15.235,26.115v94.285
			c0,10.563,5.555,20.347,14.625,25.761l81.726,48.778c4.732,2.824,10.053,4.239,15.376,4.239c5.151,0,10.304-1.325,14.931-3.979
			l81.749-46.909c9.321-5.349,15.069-15.274,15.069-26.021v-96.154c0-10.763-5.766-20.701-15.109-26.043l-81.277-46.473
			C874.938,989.582,869.797,988.263,864.658,988.263L864.658,988.263z"/>
	</g>
	
		<polyline fill="none" stroke="#000000" stroke-width="30" stroke-linecap="round" stroke-linejoin="round" stroke-miterlimit="10" points="
		1342.178,833.525 1342.178,719.59 1439.715,663.846 1535.404,718.645 	"/>
	
		<polyline fill="none" stroke="#000000" stroke-width="30" stroke-linecap="round" stroke-linejoin="round" stroke-miterlimit="10" points="
		1148.918,831.68 1148.918,717.734 1051.381,662 	"/>
	<g>
		
			<polyline fill="none" stroke="#000000" stroke-width="30" stroke-linecap="round" stroke-linejoin="round" stroke-miterlimit="10" points="
			1484.088,778.83 1484.088,806.92 1484.088,836.893 		"/>
		
			<polyline fill="none" stroke="#000000" stroke-width="30" stroke-linecap="round" stroke-linejoin="round" stroke-miterlimit="10" points="
			1537.965,778.83 1537.965,806.92 1537.965,836.893 		"/>
		
			<line fill="none" stroke="#000000" stroke-width="30" stroke-linejoin="round" stroke-miterlimit="10" x1="1484.088" y1="806.92" x2="1537.491" y2="806.92"/>
	</g>
	<g>
		
			<polyline fill="none" stroke="#000000" stroke-width="30" stroke-linecap="round" stroke-linejoin="round" stroke-miterlimit="10" points="
			944.62,701.255 944.62,729.346 944.62,759.305 		"/>
		
			<polyline fill="none" stroke="#000000" stroke-width="30" stroke-linecap="round" stroke-linejoin="round" stroke-miterlimit="10" points="
			998.497,701.255 998.497,729.346 998.497,759.305 		"/>
		
			<line fill="none" stroke="#000000" stroke-width="30" stroke-linejoin="round" stroke-miterlimit="10" x1="944.62" y1="729.346" x2="998.035" y2="729.346"/>
	</g>
	<g>
		
			<polyline fill="none" stroke="#000000" stroke-width="30" stroke-linecap="round" stroke-linejoin="round" stroke-miterlimit="10" points="
			1233.006,1118.382 1233.006,1146.497 1233.006,1176.457 		"/>
		
			<polyline fill="none" stroke="#000000" stroke-width="30" stroke-linecap="round" stroke-linejoin="round" stroke-miterlimit="10" points="
			1286.896,1118.382 1286.896,1146.497 1286.896,1176.457 		"/>
		
			<line fill="none" stroke="#000000" stroke-width="30" stroke-linejoin="round" stroke-miterlimit="10" x1="1233.006" y1="1146.497" x2="1286.435" y2="1146.497"/>
	</g>
</g>
<g>
	<path d="M-265.125,933.054c0,0-35.161-50.749-42.032-103.492c0,0,1.744-16.764-17.736-15.534
		c-19.477,1.281-54.59,1.079-54.59,1.079s-22.4-1.542-18.608,25.22c3.792,26.704,9.329,118.56,35.473,147.061
		c0,0-43.775,40.855-53.924,110.055c-10.253,69.305-20.762,234.459-81.605,267.268c0,0-24.709,22.657-32.091,37.161
		c-7.382,14.561-19.886,22.454-35.677,25.018c-15.785,2.51-80.218,29.778-77.708,92.934c2.563,63.151,10.456,80.989,32.087,77.708
		c0,0,22.454-5.589,18.354-28.501c-4.101-22.965-1.026-86.627,54.025-83.553c54.95,3.025,59.936,40.22,136.966,42.238
		c84.646,2.218,328.646-90.782,363.941-363.738C-38.251,1163.976-24.546,919.932-265.125,933.054z M-296.186,1468.664
		c-68.813,30.48-112.926,36.288-157.469,15.891c-44.393-20.3-58.333-65.204-28.81-89.296
		c29.528-24.093,82.888-84.526,91.552-200.782c6.968-94.523,4.559-149.678,70.225-200.117c0,0-38.345-60.023-36.5-100.365h5.127
		c0,0,15.993,53.409,49.106,86.676c33.01,33.219,86.423,85.248,76.893,133.072c-9.536,47.925-25.837,94.11-45.521,109.693
		l21.019,19.736c0,0,51.153-60.843,53.205-129.531c2.049-68.842-48.132-115.691-69.814-136.556c0,0-10.201-6.87,3.589-9.175
		c13.733-2.255,87.755-16.815,137.68,47.313c49.929,64.227,76.276,145.269,27.885,250.196
		C-146.46,1370.347-224.546,1436.932-296.186,1468.664z"/>
	<path d="M-254.924,1249.629l-20.401,38.649l-13.584,76.123c0,0,0.718,14.556-14.045,5.738
		c-14.866-8.866-94.623-58.844-94.623-58.844s-5.078-6.716,0-12.099c5.123-5.483,88.984-38.751,88.984-38.751l31.576-30.549
		L-254.924,1249.629z"/>
</g>
<polyline fill="none" stroke="#000000" stroke-width="30" stroke-linecap="round" stroke-linejoin="round" stroke-miterlimit="10" points="
	1622.898,1254.496 1761.574,1254.496 1817.737,1122.565 1909.625,1491.782 2021.912,920.08 2113.82,1264.687 2202.287,1063.876 
	2261.832,1235.747 2397.125,1235.747 "/>
<g>
	<g>
		<g>
			<path fill="none" stroke="#000000" stroke-width="25" stroke-miterlimit="10" d="M-1019.62,1268.244
				c0,0,74.773-21.137,115.216-91.916"/>
			<g>
				<path fill="none" stroke="#000000" stroke-width="25" stroke-miterlimit="10" d="M-877.939,1106.944
					c0,0,31.307-110.515-56.002-218.569"/>
				<path fill="none" stroke="#000000" stroke-width="25" stroke-miterlimit="10" d="M-888.03,840.757
					c0,0,168.538,121.264,74.132,335.571"/>
				<path fill="none" stroke="#000000" stroke-width="25" stroke-miterlimit="10" d="M-892.855,788.468
					c0,0,158.901,43.513,156.989,267.021c-1.943,223.364-144.454,212.756-144.454,212.756"/>
			</g>
		</g>
		<g>
			<polyline fill="none" stroke="#000000" stroke-width="25" stroke-miterlimit="10" points="-1017.051,863.821 -1082.218,983.581 
				-1234.696,893.075 -1120.123,726.074 -1033.44,776.842 			"/>
			<polyline fill="none" stroke="#000000" stroke-width="25" stroke-miterlimit="10" points="-1102.386,971.626 -1129.102,1016.236 
				-1237.266,948.889 -1210.644,907.271 			"/>
			<polyline fill="none" stroke="#000000" stroke-width="25" stroke-miterlimit="10" points="-1098.906,734.738 -1009.843,585.567 
				-922.221,636.102 -982.876,740.113 			"/>
			
				<line fill="none" stroke="#000000" stroke-width="25" stroke-miterlimit="10" x1="-1030.714" y1="632.904" x2="-951.741" y2="681.056"/>
		</g>
	</g>
	<g>
		<g>
			<path d="M-961.205,726.074c-48.418,0-87.639,39.281-87.639,87.638c0,48.464,39.221,87.653,87.639,87.653
				c48.386,0,87.622-39.189,87.622-87.653C-873.583,765.355-912.819,726.074-961.205,726.074z M-961.205,876.356
				c-34.566,0-62.584-28.048-62.584-62.645c0-34.583,28.018-62.552,62.584-62.552s62.582,27.969,62.582,62.552
				C-898.623,848.309-926.639,876.356-961.205,876.356z"/>
			<path d="M-961.205,774.711c-21.546,0-39.017,17.549-39.017,39.001c0,21.607,17.471,39.063,39.017,39.063
				c21.528,0,38.984-17.456,38.984-39.063C-922.221,792.26-939.677,774.711-961.205,774.711z M-961.205,826.027
				c-6.77,0-12.254-5.578-12.254-12.315c0-6.724,5.484-12.159,12.254-12.159c6.737,0,12.19,5.436,12.19,12.159
				C-949.015,820.449-954.468,826.027-961.205,826.027z"/>
		</g>
		<path d="M-807.381,1255.256h-481.483c-28.064,0-50.8,22.766-50.8,50.829c0,28.049,22.736,50.722,50.8,50.722h481.483
			c28.049,0,50.8-22.673,50.8-50.722C-756.581,1278.021-779.332,1255.256-807.381,1255.256z M-808.525,1330.984h-481.138
			c-13.79,0-24.945-11.142-24.945-24.899c0-13.772,11.156-25.007,24.945-25.007h481.138c13.821,0,24.978,11.234,24.978,25.007
			C-783.548,1319.843-794.704,1330.984-808.525,1330.984z"/>
		<path d="M-897.181,1092.029c-12.441,0-23.787,4.59-32.545,12.048h-296.792c-21.027,0-38.028,17.019-38.028,38.047
			c0,21.026,17.001,38.027,38.028,38.027h296.792c8.758,7.554,20.104,12.065,32.545,12.065c27.656,0,50.079-22.437,50.079-50.093
			C-847.102,1114.451-869.524,1092.029-897.181,1092.029z M-1226.923,1154.673c-6.895,0-12.505-5.624-12.505-12.549
			c0-6.927,5.61-12.551,12.505-12.551h281.262c-1.034,4.073-1.599,8.194-1.599,12.551c0,4.308,0.564,8.475,1.599,12.549H-1226.923z
			 M-897.181,1166.207c-13.288,0-24.068-10.812-24.068-24.083c0-13.273,10.78-24.085,24.068-24.085
			c13.287,0,24.067,10.812,24.067,24.085C-873.113,1155.396-883.894,1166.207-897.181,1166.207z"/>
		<g>
			<path d="M-1352.402,737.402c-35.381,0-64.025,28.736-64.025,64.055c0,35.319,28.644,64.057,64.025,64.057
				c35.365,0,64.023-28.737,64.023-64.057C-1288.379,766.139-1317.038,737.402-1352.402,737.402z M-1352.402,839.738
				c-21.154,0-38.312-17.158-38.312-38.281c0-21.121,17.157-38.279,38.312-38.279c21.122,0,38.263,17.158,38.263,38.279
				C-1314.139,822.58-1331.281,839.738-1352.402,839.738z"/>
			<rect x="-1365.409" y="788.468" width="25.98" height="26.026"/>
			<rect x="-1213.981" y="662.111" width="25.98" height="25.979"/>
			<rect x="-1416.427" y="700.141" width="25.979" height="25.934"/>
			<rect x="-1226.986" y="765.466" width="25.979" height="25.916"/>
			<rect x="-1301.384" y="888.375" width="25.98" height="26.026"/>
			<path d="M-1315.894,939.504c-19.899-1.41-35.648-17.879-35.648-38.139h-25.776c0,34.551,27.28,62.598,61.424,63.961V939.504z"/>
			<path d="M-1352.402,677.467c19.899-1.395,35.631-17.925,35.631-38.217h25.744c0,34.488-27.249,62.646-61.375,64.041V677.467z"/>
			<path d="M-1189.224,981.748c-26.982,13.366-57.38,20.935-89.564,20.935c-111.127,0-201.24-90.036-201.24-201.226
				c0-111.188,90.113-201.223,201.24-201.223c81.636,0,151.897,48.605,183.486,118.381l15.528-26.951
				c-38.734-70.058-113.336-117.441-199.014-117.441c-125.511,0-227.267,101.74-227.267,227.234
				c0,125.496,101.755,227.235,227.267,227.235c41.617,0,80.602-11.141,114.15-30.711L-1189.224,981.748z"/>
		</g>
	</g>
</g>
<path fill="none" stroke="#000000" stroke-width="30" stroke-miterlimit="10" d="M-1745.998,166.05
	c0,21.647-17.604,39.191-39.306,39.191c-21.648,0-39.197-17.544-39.197-39.191c0-21.763,17.549-39.425,39.197-39.425
	C-1763.602,126.625-1745.998,144.288-1745.998,166.05z"/>
<g>
	<path fill="none" stroke="#000000" stroke-width="30" stroke-miterlimit="10" d="M-1693.47-334.147
		c0,21.647-17.549,39.195-39.254,39.195c-21.648,0-39.251-17.548-39.251-39.195c0-21.648,17.603-39.196,39.251-39.196
		C-1711.019-373.343-1693.47-355.795-1693.47-334.147z"/>
	<path fill="none" stroke="#000000" stroke-width="30" stroke-miterlimit="10" d="M-1538.799,345.16
		c0,21.648-17.604,39.199-39.254,39.199c-21.646,0-39.252-17.551-39.252-39.199s17.605-39.305,39.252-39.305
		C-1556.403,305.855-1538.799,323.512-1538.799,345.16z"/>
	<path fill="none" stroke="#000000" stroke-width="30" stroke-miterlimit="10" d="M-1329.378,250.022
		c0,21.652-17.489,39.306-39.192,39.306c-21.71,0-39.313-17.654-39.313-39.306c0-21.761,17.604-39.313,39.313-39.313
		C-1346.867,210.708-1329.378,228.261-1329.378,250.022z"/>
	<path fill="none" stroke="#000000" stroke-width="30" stroke-miterlimit="10" d="M-1389.652-194.001l13.613-38.056
		c0,0,20.909-38.74-9.341-49.223c-30.308-10.481-44.438,23.927-44.438,23.927l-18.4,49.452
		c-62.265-12.533-115.817-5.015-115.817-5.015s-13.277-55.032-16.638-70.187c-3.418-15.382-15.041-24.725-37.656-19.598
		c-22.669,5.013-16.979,30.308-16.979,30.308l15.271,71.326c-36.233,7.863-108.411,37.828-108.411,37.828
		s-32.874-36.688-50.646-56.856c-17.888-20.053-36.856-5.355-36.856-5.355c-21.482,18.915-4.85,43.753-4.85,43.753l43.354,51.273
		c-48.308,28.371-79.639,84.542-79.639,84.542s-33.954-15.04-63.408-27.118c-29.455-12.077-38.514,13.218-38.514,13.218
		c-10.54,35.892,18.117,39.994,18.117,39.994l55.49,23.812c0,0-47.571,55.833-37.714,182.645
		c9.798,126.817,121.347,119.186,121.347,119.186c129.604-12.881,135.246-88.536,146.582-128.187
		c11.335-39.649,26.091-51.728,26.091-51.728s26.149,24.838,34.295,31.677c11.222,9.571,31.106,26.203,46.431,14.354
		c26.035-20.164,7.573-43.066,7.573-43.066l-55.431-49.451c41.077-47.853,106.025-45.233,106.025-45.233
		s16.577,41.588,21.874,52.069c5.303,10.598,18.119,29.055,43.413,19.257s10.199-40.678,10.199-40.678l-12.082-27.573l36.976-2.277
		c42.671-2.962,125.673-34.752,125.275-107.56C-1264.89-145.463-1389.652-194.001-1389.652-194.001z M-1786.784,248.768
		c-47.911,0-86.768-38.741-86.768-86.708c0-47.968,38.856-86.707,86.768-86.707c47.848,0,86.706,38.739,86.706,86.707
		C-1700.078,210.027-1738.937,248.768-1786.784,248.768z"/>
</g>
<g>
	<g>
		<path d="M-2095.5,762.443v215.424c0,0,0.532,6.529,10.392,17.985c9.859,11.457,126.829,139.885,189.178,247.531
			c0,0,34.43,72.208-39.433,72.208c-80.145,0-498.793,0-498.793,0s-70.876-5.596-45.297-56.754
			c25.58-51.158,75.138-128.428,197.705-266.981c0,0,7.994-6.595,7.994-12.59s0-216.823,0-216.823H-2095.5 M-2095.5,732.443
			h-178.254c-16.569,0-30,13.432-30,30v209.012c-0.144,0.163-0.297,0.336-0.463,0.524c-57.22,64.683-102.072,119.846-137.119,168.64
			c-27.785,38.683-49.029,72.964-64.949,104.802c-14.126,28.253-8.58,49.252-1.44,61.893c8.617,15.255,23.838,26.354,45.24,32.987
			c13.245,4.104,24.705,5.099,25.968,5.198c0.786,0.062,1.573,0.093,2.361,0.093h498.793c39.55,0,58.507-16.885,67.446-31.05
			c9.758-15.463,12.425-35.443,7.714-57.781c-2.995-14.204-8.078-25.094-8.648-26.289c-0.345-0.723-0.718-1.431-1.119-2.124
			c-26.673-46.052-80.912-126.266-187.832-246.889c-2.155-2.431-3.857-4.351-4.566-5.175c-1.475-1.714-2.475-3.077-3.131-4.063
			V762.443C-2065.5,745.875-2078.932,732.443-2095.5,732.443L-2095.5,732.443z"/>
	</g>
	<g>
		<path d="M-2187.139,1021.03c0.224,0,0.445,0.001,0.671,0.002c70.984,0.399,93.965,60.551,93.766,89.127
			c-0.2,28.577,0.935,45.563,0.001,73.141c0,0-34.24,3.33-34.24,33.173s-0.266,34.906-0.266,34.906h-117.239l0.534-34.904
			c0,0-2.931-31.978-33.839-33.175c0,0-3.997-54.556,0-77.137C-2273.767,1083.652-2257.553,1021.032-2187.139,1021.03
			 M-2187.139,991.03L-2187.139,991.03c-39.825,0.001-72.513,16.098-94.529,46.549c-15.772,21.814-22.64,46.494-25.625,63.355
			c-4.425,25.001-1.092,74.823-0.379,84.558l1.96,26.747l26.799,1.038c2.584,0.1,2.768,0.427,3.545,1.804
			c0.674,1.194,1.176,2.727,1.418,3.548l-0.494,32.291l-0.466,30.459h30.463h117.239h28.467l1.492-28.428
			c0.072-1.372,0.307-8.059,0.307-36.479c0-0.233,0.009-0.419,0.021-0.563c1.309-1.047,4.758-2.358,7.341-2.765l26.996-1.665
			l-0.135-27.166c0.582-17.176,0.396-30.306,0.199-44.208c-0.129-9.11-0.262-18.53-0.184-29.737
			c0.153-22.018-9.093-57.273-35.656-84.174c-22.521-22.807-52.93-34.966-87.939-35.163L-2187.139,991.03L-2187.139,991.03z"/>
	</g>
	
		<line fill="none" stroke="#000000" stroke-width="18" stroke-miterlimit="10" x1="-2208.74" y1="1219.404" x2="-2208.74" y2="1251.379"/>
	
		<line fill="none" stroke="#000000" stroke-width="30" stroke-linecap="round" stroke-miterlimit="10" x1="-2208.74" y1="1216.741" x2="-2208.74" y2="1251.379"/>
	
		<line fill="none" stroke="#000000" stroke-width="30" stroke-linecap="round" stroke-miterlimit="10" x1="-2157.05" y1="1216.741" x2="-2157.05" y2="1251.379"/>
	
		<line fill="none" stroke="#000000" stroke-width="30" stroke-linecap="round" stroke-miterlimit="10" x1="-2184.76" y1="1142.137" x2="-2184.76" y2="1176.774"/>
	
		<line fill="none" stroke="#000000" stroke-width="30" stroke-linecap="round" stroke-miterlimit="10" x1="-2137.066" y1="1115.755" x2="-2118.946" y2="1144.266"/>
	
		<line fill="none" stroke="#000000" stroke-width="30" stroke-linecap="round" stroke-miterlimit="10" x1="-2236.213" y1="1116.965" x2="-2254.333" y2="1145.476"/>
	<g>
		<path d="M-2254.333,621.713c15.445,0,27.964,12.52,27.964,27.963c0,15.444-12.519,27.964-27.964,27.964
			c-15.444,0-27.963-12.52-27.963-27.964C-2282.296,634.232-2269.777,621.713-2254.333,621.713 M-2254.333,601.713
			c-26.447,0-47.963,21.516-47.963,47.963s21.516,47.964,47.963,47.964s47.964-21.517,47.964-47.964
			S-2227.886,601.713-2254.333,601.713L-2254.333,601.713z"/>
	</g>
	<g>
		<path d="M-2111.087,659.215c9.492,0,17.186,7.694,17.186,17.187c0,9.491-7.693,17.187-17.186,17.187s-17.187-7.695-17.187-17.187
			C-2128.273,666.909-2120.579,659.215-2111.087,659.215 M-2111.087,639.215c-20.505,0-37.187,16.682-37.187,37.187
			s16.682,37.187,37.187,37.187c20.504,0,37.186-16.682,37.186-37.187S-2090.583,639.215-2111.087,639.215L-2111.087,639.215z"/>
	</g>
	<g>
		<path d="M-2151.55,570.467c8.869,0,16.061,7.191,16.061,16.061c0,8.871-7.191,16.061-16.061,16.061
			c-8.871,0-16.061-7.189-16.061-16.061C-2167.61,577.658-2160.421,570.467-2151.55,570.467 M-2151.55,550.467
			c-19.884,0-36.061,16.177-36.061,36.061c0,19.885,16.177,36.061,36.061,36.061s36.061-16.176,36.061-36.061
			C-2115.489,566.644-2131.666,550.467-2151.55,550.467L-2151.55,550.467z"/>
	</g>
</g>
<g>
	<g>
		<path d="M-745.181,145.254v199.101h-52.44V145.254H-745.181 M-745.181,115.254h-52.44c-16.568,0-30,13.432-30,30v199.101
			c0,16.568,13.432,30,30,30h52.44c16.568,0,30-13.432,30-30V145.254C-715.181,128.686-728.613,115.254-745.181,115.254
			L-745.181,115.254z"/>
	</g>
	<g>
		<path d="M-827.48,208.566v108.076h-48.389c0,0-51.586-2.301-51.586-54.572c0-52.271,52.865-53.504,52.865-53.504H-827.48
			 M-797.48,178.566h-30h-47.11h-0.35l-0.35,0.008c-3.365,0.079-21.084,0.954-39.525,10.501
			c-27.497,14.235-42.64,40.159-42.64,72.995c0,32.493,14.671,58.476,41.311,73.16c18.12,9.988,35.616,11.234,38.939,11.382
			l0.668,0.03h0.669h48.389h30v-30V208.566V178.566L-797.48,178.566z"/>
	</g>
	<g>
		<path d="M-667.702,208.566c0,0,52.864,1.233,52.864,53.504c0,52.271-51.585,54.572-51.585,54.572h-48.39V208.566H-667.702
			 M-667.352,178.566h-0.35h-47.111h-30v30v108.076v30h30h48.39h0.668l0.668-0.03c3.323-0.147,20.819-1.394,38.938-11.382
			c26.639-14.685,41.309-40.667,41.309-73.16c0-32.836-15.143-58.76-42.639-72.995c-18.441-9.547-36.16-10.422-39.525-10.501
			L-667.352,178.566L-667.352,178.566z"/>
	</g>
	<g>
		<path d="M-667.604,245.231c10.138,0,18.358,8.219,18.358,18.357s-8.22,18.358-18.358,18.358c-10.14,0-18.359-8.22-18.359-18.358
			S-677.744,245.231-667.604,245.231 M-667.604,225.231c-21.151,0-38.359,17.207-38.359,38.357
			c0,21.151,17.208,38.358,38.359,38.358c21.151,0,38.358-17.207,38.358-38.358C-629.245,242.438-646.453,225.231-667.604,225.231
			L-667.604,225.231z"/>
	</g>
	<g>
		<path d="M-457.754,301.208c11.551,0,20.917,9.364,20.917,20.916s-9.366,20.916-20.917,20.916
			c-11.552,0-20.917-9.364-20.917-20.916S-469.306,301.208-457.754,301.208 M-457.754,283.208
			c-21.459,0-38.917,17.458-38.917,38.916s17.458,38.916,38.917,38.916s38.917-17.458,38.917-38.916
			S-436.295,283.208-457.754,283.208L-457.754,283.208z"/>
	</g>
	<g>
		<path d="M-871.235,245.231c10.138,0,18.358,8.219,18.358,18.357s-8.22,18.358-18.358,18.358c-10.14,0-18.359-8.22-18.359-18.358
			S-881.375,245.231-871.235,245.231 M-871.235,225.231c-21.151,0-38.359,17.207-38.359,38.357
			c0,21.151,17.208,38.358,38.359,38.358c21.151,0,38.358-17.207,38.358-38.358C-832.877,242.438-850.084,225.231-871.235,225.231
			L-871.235,225.231z"/>
	</g>
	<g>
		<path d="M-771.361,92.41c7.075,0,7.075,7.435,7.075,7.435v14.788h-14.149V99.525C-778.436,99.525-778.436,92.41-771.361,92.41
			 M-771.361,62.41c-23.207,0-37.074,18.871-37.074,37.115v15.107c0,16.568,13.432,30,30,30h14.149c16.568,0,30-13.432,30-30V99.845
			C-734.287,81.443-748.154,62.41-771.361,62.41L-771.361,62.41z"/>
	</g>
	
		<line fill="none" stroke="#000000" stroke-width="30" stroke-linecap="round" stroke-linejoin="round" stroke-miterlimit="10" x1="-771.401" y1="-332.244" x2="-771.361" y2="76.987"/>
	<g>
		<path d="M-764.367,374.08v18.865h-14.069V374.08H-764.367 M-764.367,344.08h-14.069c-16.568,0-30,13.432-30,30v18.865
			c0,16.568,13.432,30,30,30h14.069c16.568,0,30-13.432,30-30V374.08C-734.367,357.512-747.798,344.08-764.367,344.08
			L-764.367,344.08z"/>
	</g>
	
		<line fill="none" stroke="#000000" stroke-width="30" stroke-linecap="round" stroke-linejoin="round" stroke-miterlimit="10" x1="-811.69" y1="412.853" x2="-731.112" y2="412.853"/>
	<g>
		<path d="M-379.034-152.116v39.649c0,0-2.729,0-13.642,0c-11.298,0-11.298,12.15-11.298,12.15v444.137
			c0,0-1.879,51.267-52.76,51.267c-51.013,0-52.759-51.267-52.759-51.267s0-425.125,0-441.152c0-15.135-13.87-15.135-13.87-15.135
			h-18.105v-39.649H-379.034 M-349.034-182.116h-30h-162.434h-30v30v39.649v30h30h1.976v426.288v0.511l0.018,0.511
			c0.112,3.298,1.158,20.664,10.742,38.693c14.244,26.795,39.813,41.552,71.999,41.552c32.119,0,57.666-14.747,71.936-41.525
			c9.595-18.005,10.684-35.349,10.804-38.643l0.021-0.549v-0.55V-82.466h24.939v-30v-39.649V-182.116L-349.034-182.116z"/>
	</g>
	<g>
		<path d="M-435.63-200.079v96.565h-42.207v-96.565H-435.63 M-435.63-230.079h-42.207c-16.568,0-30,13.432-30,30v96.565
			c0,16.568,13.432,30,30,30h42.207c16.568,0,30-13.432,30-30v-96.565C-405.63-216.647-419.062-230.079-435.63-230.079
			L-435.63-230.079z"/>
	</g>
	
		<line fill="none" stroke="#000000" stroke-width="30" stroke-linecap="round" stroke-linejoin="round" stroke-miterlimit="10" x1="-322.543" y1="154.671" x2="-322.543" y2="164.904"/>
	
		<line fill="none" stroke="#000000" stroke-width="30" stroke-linecap="round" stroke-linejoin="round" stroke-miterlimit="10" x1="-322.543" y1="233.357" x2="-322.543" y2="243.589"/>
	
		<line fill="none" stroke="#000000" stroke-width="30" stroke-linecap="round" stroke-linejoin="round" stroke-miterlimit="10" x1="-322.543" y1="313.589" x2="-322.543" y2="323.821"/>
	
		<line fill="none" stroke="#000000" stroke-width="30" stroke-linecap="round" stroke-linejoin="round" stroke-miterlimit="10" x1="-322.543" y1="391.608" x2="-322.543" y2="401.84"/>
</g>
<g>
	<g>
		<path d="M1317.978-757.5c141.324,0,255.891,114.565,255.891,255.892c0,141.321-114.566,255.887-255.891,255.887
			s-255.89-114.565-255.89-255.887C1062.088-642.935,1176.653-757.5,1317.978-757.5 M1317.978-787.5
			c-38.581,0-76.025,7.563-111.29,22.479c-34.048,14.401-64.619,35.01-90.865,61.256s-46.855,56.817-61.256,90.865
			c-14.916,35.265-22.479,72.709-22.479,111.292c0,38.581,7.563,76.024,22.479,111.289c14.401,34.047,35.011,64.617,61.257,90.863
			c26.245,26.245,56.817,46.854,90.864,61.256c35.266,14.916,72.709,22.479,111.29,22.479c38.582,0,76.025-7.563,111.291-22.479
			c34.047-14.401,64.618-35.011,90.864-61.256c26.246-26.246,46.855-56.816,61.256-90.863
			c14.916-35.265,22.479-72.708,22.479-111.289c0-38.582-7.563-76.026-22.479-111.292c-14.4-34.047-35.01-64.619-61.256-90.865
			s-56.817-46.855-90.864-61.256C1394.003-779.938,1356.56-787.5,1317.978-787.5L1317.978-787.5z"/>
	</g>
	<g>
		
			<line fill="none" stroke="#000000" stroke-width="30" stroke-linecap="round" stroke-miterlimit="10" x1="1317.978" y1="-853.967" x2="1317.978" y2="-773"/>
		
			<line fill="none" stroke="#000000" stroke-width="30" stroke-linecap="round" stroke-linejoin="round" stroke-miterlimit="10" x1="1279.092" y1="-853.967" x2="1356.865" y2="-853.967"/>
	</g>
	<g>
		
			<line fill="none" stroke="#000000" stroke-width="30" stroke-linecap="round" stroke-miterlimit="10" x1="1317.978" y1="-150" x2="1317.978" y2="-230.967"/>
		
			<line fill="none" stroke="#000000" stroke-width="30" stroke-linecap="round" stroke-linejoin="round" stroke-miterlimit="10" x1="1279.092" y1="-150" x2="1356.865" y2="-150"/>
	</g>
	<g>
		
			<line fill="none" stroke="#000000" stroke-width="30" stroke-linecap="round" stroke-miterlimit="10" x1="1669.405" y1="-519.307" x2="1588.439" y2="-519.307"/>
		
			<line fill="none" stroke="#000000" stroke-width="30" stroke-linecap="round" stroke-linejoin="round" stroke-miterlimit="10" x1="1669.405" y1="-558.192" x2="1669.405" y2="-480.419"/>
	</g>
	<g>
		
			<line fill="none" stroke="#000000" stroke-width="30" stroke-linecap="round" stroke-miterlimit="10" x1="1484.589" y1="-812.154" x2="1442.94" y2="-742.723"/>
		
			<line fill="none" stroke="#000000" stroke-width="30" stroke-linecap="round" stroke-linejoin="round" stroke-miterlimit="10" x1="1451.243" y1="-832.158" x2="1517.938" y2="-792.151"/>
	</g>
	<g>
		
			<line fill="none" stroke="#000000" stroke-width="30" stroke-linecap="round" stroke-miterlimit="10" x1="1614.816" y1="-691.336" x2="1545.386" y2="-649.688"/>
		
			<line fill="none" stroke="#000000" stroke-width="30" stroke-linecap="round" stroke-linejoin="round" stroke-miterlimit="10" x1="1594.815" y1="-724.684" x2="1634.822" y2="-657.989"/>
	</g>
	<g>
		
			<line fill="none" stroke="#000000" stroke-width="30" stroke-linecap="round" stroke-miterlimit="10" x1="1502.148" y1="-200.843" x2="1460.5" y2="-270.274"/>
		
			<line fill="none" stroke="#000000" stroke-width="30" stroke-linecap="round" stroke-linejoin="round" stroke-miterlimit="10" x1="1468.803" y1="-180.839" x2="1535.497" y2="-220.846"/>
	</g>
	<g>
		
			<line fill="none" stroke="#000000" stroke-width="30" stroke-linecap="round" stroke-miterlimit="10" x1="1629.313" y1="-336.608" x2="1559.883" y2="-378.257"/>
		
			<line fill="none" stroke="#000000" stroke-width="30" stroke-linecap="round" stroke-linejoin="round" stroke-miterlimit="10" x1="1609.313" y1="-303.261" x2="1649.319" y2="-369.956"/>
	</g>
	<g>
		
			<line fill="none" stroke="#000000" stroke-width="30" stroke-linecap="round" stroke-miterlimit="10" x1="965.94" y1="-519.307" x2="1046.906" y2="-519.307"/>
		
			<line fill="none" stroke="#000000" stroke-width="30" stroke-linecap="round" stroke-linejoin="round" stroke-miterlimit="10" x1="965.94" y1="-558.192" x2="965.94" y2="-480.419"/>
	</g>
	<g>
		
			<line fill="none" stroke="#000000" stroke-width="30" stroke-linecap="round" stroke-miterlimit="10" x1="1150.757" y1="-812.154" x2="1192.405" y2="-742.723"/>
		
			<line fill="none" stroke="#000000" stroke-width="30" stroke-linecap="round" stroke-linejoin="round" stroke-miterlimit="10" x1="1184.103" y1="-832.158" x2="1117.408" y2="-792.151"/>
	</g>
	<g>
		
			<line fill="none" stroke="#000000" stroke-width="30" stroke-linecap="round" stroke-miterlimit="10" x1="1020.529" y1="-691.336" x2="1089.96" y2="-649.688"/>
		
			<line fill="none" stroke="#000000" stroke-width="30" stroke-linecap="round" stroke-linejoin="round" stroke-miterlimit="10" x1="1040.53" y1="-724.684" x2="1000.523" y2="-657.989"/>
	</g>
	<g>
		
			<line fill="none" stroke="#000000" stroke-width="30" stroke-linecap="round" stroke-miterlimit="10" x1="1133.197" y1="-200.843" x2="1174.846" y2="-270.274"/>
		
			<line fill="none" stroke="#000000" stroke-width="30" stroke-linecap="round" stroke-linejoin="round" stroke-miterlimit="10" x1="1166.543" y1="-180.839" x2="1099.849" y2="-220.846"/>
	</g>
	<g>
		
			<line fill="none" stroke="#000000" stroke-width="30" stroke-linecap="round" stroke-miterlimit="10" x1="1006.032" y1="-336.608" x2="1075.463" y2="-378.257"/>
		
			<line fill="none" stroke="#000000" stroke-width="30" stroke-linecap="round" stroke-linejoin="round" stroke-miterlimit="10" x1="1026.033" y1="-303.261" x2="986.026" y2="-369.956"/>
	</g>
	<g>
		<path d="M1192.405-621.044c15.718,0,28.458,12.741,28.458,28.458c0,15.717-12.74,28.458-28.458,28.458
			s-28.458-12.741-28.458-28.458C1163.947-608.304,1176.688-621.044,1192.405-621.044 M1192.405-651.044
			c-32.233,0-58.458,26.224-58.458,58.458c0,32.233,26.225,58.458,58.458,58.458s58.458-26.224,58.458-58.458
			C1250.863-624.82,1224.639-651.044,1192.405-651.044L1192.405-651.044z"/>
	</g>
	<g>
		<path d="M1365.214-696.146c25.659,0,46.458,20.799,46.458,46.458c0,25.658-20.799,46.458-46.458,46.458
			c-25.66,0-46.458-20.799-46.458-46.458C1318.756-675.347,1339.554-696.146,1365.214-696.146 M1365.214-726.146
			c-42.159,0-76.458,34.299-76.458,76.458c0,42.159,34.299,76.458,76.458,76.458s76.458-34.299,76.458-76.458
			C1441.672-691.847,1407.373-726.146,1365.214-726.146L1365.214-726.146z"/>
	</g>
	<g>
		<path d="M1396.482-396.176c25.659,0,46.458,20.799,46.458,46.457s-20.799,46.458-46.458,46.458
			c-25.66,0-46.458-20.8-46.458-46.458S1370.822-396.176,1396.482-396.176 M1396.482-426.176c-42.159,0-76.458,34.299-76.458,76.457
			c0,42.159,34.299,76.458,76.458,76.458s76.458-34.299,76.458-76.458C1472.94-391.877,1438.642-426.176,1396.482-426.176
			L1396.482-426.176z"/>
	</g>
	<g>
		<path d="M1502.149-547.131c9.09,0,16.458,7.368,16.458,16.458c0,9.089-7.368,16.458-16.458,16.458s-16.458-7.368-16.458-16.458
			C1485.691-539.763,1493.06-547.131,1502.149-547.131 M1502.149-577.131c-25.617,0-46.458,20.841-46.458,46.458
			s20.841,46.458,46.458,46.458s46.458-20.841,46.458-46.458S1527.767-577.131,1502.149-577.131L1502.149-577.131z"/>
	</g>
	<g>
		<path d="M1163.947-413.096c9.09,0,16.458,7.368,16.458,16.458c0,9.089-7.368,16.458-16.458,16.458s-16.458-7.369-16.458-16.458
			C1147.489-405.728,1154.857-413.096,1163.947-413.096 M1163.947-443.096c-25.617,0-46.458,20.841-46.458,46.458
			s20.841,46.458,46.458,46.458s46.458-20.841,46.458-46.458S1189.564-443.096,1163.947-443.096L1163.947-443.096z"/>
	</g>
	<g>
		<path d="M1305.092-510.877c16.822,0,30.458,13.636,30.458,30.458s-13.636,30.457-30.458,30.457s-30.459-13.635-30.459-30.457
			S1288.27-510.877,1305.092-510.877 M1305.092-540.877c-33.337,0-60.459,27.121-60.459,60.458
			c0,33.336,27.122,60.457,60.459,60.457s60.458-27.121,60.458-60.457C1365.55-513.756,1338.429-540.877,1305.092-540.877
			L1305.092-540.877z"/>
	</g>
</g>
<g>
	<g>
		<path d="M-744.622-616.128c12.434,0,22.538,10.104,22.538,22.535c0,12.424-10.104,22.528-22.538,22.528
			c-12.421,0-22.537-10.104-22.537-22.528C-767.158-606.025-757.043-616.128-744.622-616.128 M-744.622-634.128
			c-22.352,0-40.537,18.184-40.537,40.535c0,22.348,18.185,40.528,40.537,40.528c22.353,0,40.538-18.181,40.538-40.528
			C-704.084-615.945-722.269-634.128-744.622-634.128L-744.622-634.128z"/>
	</g>
	<g>
		<path d="M-579.654-1187.98c51.396,0,93.469,41.814,93.794,93.219c0,0.178,0.011,0.361,0.03,0.534v31.125
			c0,16.357-1.484,31.852-4.547,47.361c-0.238,1.265,0.054,2.571,0.818,3.616c0.751,1.035,1.911,1.708,3.195,1.854
			c6.395,0.716,11.829,3.616,16.153,8.61c7.993,9.231,11.097,24.71,8.526,42.498c-4.285,29.668-16.603,49.493-32.964,53.036
			c-1.934,0.408-3.396,2.017-3.605,4.001c-4.43,40.811-9.874,50.005-11.659,53.025c-3.847,6.499-10.846,13.521-20.249,20.321
			c-1.19,0.867-1.903,2.257-1.903,3.742l-0.04,47.727c0,1.213,0.49,2.394,1.346,3.261c0.868,0.856,2.038,1.345,3.262,1.345h50.047
			c0.388,0,0.762,0.014,1.149,0.021v38.032c-39.265,1.316-70.799,33.654-70.799,73.232v3.511c0,2.548,2.06,4.607,4.608,4.607h19.445
			c2.539,0,4.606-2.06,4.606-4.607v-3.511c0-3.011,0.304-6.041,0.898-8.976c0.598-2.873,1.474-5.693,2.602-8.368
			c2.258-5.308,5.486-10.095,9.58-14.189c2.039-2.026,4.266-3.866,6.616-5.453c2.392-1.609,4.941-2.999,7.574-4.108
			c5.507-2.339,11.347-3.519,17.344-3.519h22.129c6.008,0,11.839,1.18,17.355,3.519c2.633,1.109,5.171,2.499,7.574,4.13
			c2.341,1.565,4.568,3.405,6.603,5.432c4.108,4.095,7.336,8.882,9.583,14.189c1.139,2.675,2.016,5.495,2.601,8.356
			c0.606,2.946,0.911,5.969,0.911,8.987v3.511c0,2.548,2.058,4.607,4.606,4.607h19.443c2.549,0,4.607-2.06,4.607-4.607v-3.511
			c0-39.578-31.544-71.916-70.797-73.232v-35.545c73.588,12.3,124.513,70.308,124.513,142.733v107.512h-580.285v-107.512
			c0-76.98,59.294-138.114,138.94-144.508c-15.985,64.579-7.638,120.173-3.531,140.245c-13.228,8.609-21.325,23.215-21.325,38.929
			c0,25.715,20.917,46.632,46.631,46.632c25.713,0,46.629-20.917,46.629-46.632c0-25.701-20.917-46.617-46.629-46.617
			c-0.064,0-0.125,0-0.125,0c-4.348-23.197-10.345-74.758,5.39-133.291h36.777c2.549,0,4.608-2.057,4.608-4.605v-47.727
			c0-1.476-0.71-2.865-1.912-3.73c-9.392-6.803-16.383-13.823-20.237-20.343c-1.788-3.01-7.23-12.184-11.692-53.015
			c-0.22-1.963-1.671-3.583-3.604-4.001c-16.394-3.521-28.702-23.368-32.943-53.071c-2.582-17.73,0.522-33.21,8.526-42.446
			c4.314-5,9.758-7.909,16.163-8.635c1.275-0.146,2.434-0.821,3.197-1.865c0.763-1.036,1.055-2.347,0.805-3.605
			c-3.051-15.475-4.535-30.969-4.535-47.352v-31.052c0-51.74,42.084-93.825,93.814-93.825H-579.654 M-766.041-771.973h0.005
			 M-579.654-1217.98h-70.379c-68.271,0-123.814,55.548-123.814,123.825v31.052c0,11.137,0.614,21.915,1.863,32.559
			c-3.7,2.613-7.119,5.721-10.206,9.297c-13.88,16.052-19.388,39.598-15.508,66.318c2.703,18.906,8.126,35.023,16.118,47.902
			c6.827,11,14.615,18.183,22.111,22.857c4.253,30.625,9.36,42.714,13.911,50.377c4.24,7.157,10.252,14.176,17.943,20.961v10.125
			H-739c-5.104,0-9.968,1.288-14.238,3.593c-3.691-1.743-7.796-2.756-12.126-2.852c-0.224-0.005-0.448-0.007-0.673-0.007
			c-0.223,0-0.445,0.002-0.668,0.007c-0.708,0.016-1.409,0.056-2.104,0.119c-45.739,3.758-87.692,23.224-118.167,54.837
			c-30.956,32.113-48.004,74.568-48.004,119.545v107.512c0,16.568,13.431,30,30,30h580.285c16.568,0,30-13.432,30-30v-107.512
			c0-21.398-3.705-42.141-11.013-61.65c-7.163-19.122-17.612-36.619-31.06-52.005c-13.371-15.3-29.354-28.109-47.507-38.071
			c-18.375-10.085-38.558-17.015-59.988-20.597c-1.646-0.275-3.301-0.41-4.945-0.41c-3.813,0-7.579,0.728-11.097,2.128
			c-4.466-2.819-9.731-4.494-15.388-4.609l-0.207-0.005c-0.516-0.013-1.026-0.022-1.55-0.022h-24.633l0.009-10.125
			c7.713-6.795,13.737-13.824,17.979-20.99c4.549-7.695,9.643-19.795,13.867-50.373c7.479-4.673,15.251-11.846,22.071-22.819
			c7.997-12.87,13.437-28.973,16.164-47.862c3.872-26.79-1.646-50.38-15.538-66.423c-3.078-3.555-6.483-6.646-10.168-9.245
			c1.253-10.649,1.868-21.428,1.868-32.559v-31.125c0-0.506-0.013-1.013-0.038-1.519
			C-456.723-1163.221-512.088-1217.98-579.654-1217.98L-579.654-1217.98z M-744.265-576.167c-9.17,0-16.631-7.461-16.631-16.632
			c0-5.498,2.875-10.651,7.689-13.785c1.473-0.959,2.841-2.032,4.097-3.203c1.541,0.244,3.117,0.371,4.719,0.371h0.125
			c9.169,0,16.629,7.454,16.629,16.617C-727.636-583.628-735.096-576.167-744.265-576.167L-744.265-576.167z"/>
	</g>
	<g>
		<path d="M-682.13-1050.382c10.066,5.629,30.658,14.817,65.522,20.829c20.632,3.514,46.589,5.614,73.401,5.933
			c0.848,4.557,1.653,8.716,2.355,12.314c2.36,12.306,9.268,49.056,9.268,49.056c0.265,1.443,1.394,2.575,2.835,2.837
			c0.22,0.04,0.438,0.06,0.656,0.06c1.221,0,2.37-0.62,3.02-1.68c0.203-0.33,4.65-7.632,8.945-21.292
			c1.033,0.314,1.807,0.806,2.419,1.52c3.432,3.976,4.723,12.326,3.36,21.784c-2.635,18.216-9.921,29.541-14.82,29.605l-8.383-0.726
			c-0.086-0.005-0.172-0.008-0.256-0.008c-1.89,0-3.409,1.356-3.588,3.208l-0.638,6.664c-2.931,30.222-6.39,38.813-7.736,41.095
			c-7.349,12.402-37.184,29.713-69.083,29.713c-31.898,0-61.718-17.311-69.058-29.722c-1.354-2.289-4.829-10.888-7.762-41.086
			l-0.645-6.657c-0.178-1.837-1.717-3.208-3.53-3.208c-0.081,0-0.162,0-0.242,0l-6.689,0.452c-0.426,0.032-0.813,0.081-1.16,0.162
			c-5.594-0.573-12.734-10.869-15.393-29.513c-1.37-9.446-0.089-17.787,3.352-21.763c0.612-0.707,1.386-1.202,2.418-1.511
			c4.295,13.663,8.744,20.953,8.945,21.283c0.651,1.052,1.777,1.689,2.987,1.689c0.228,0,0.458-0.022,0.689-0.069
			c1.434-0.262,2.563-1.394,2.836-2.837c0,0,6.899-36.742,9.285-49.056l0.257-1.351
			C-686.715-1022.234-684.032-1036.149-682.13-1050.382 M-682.131-1080.382c-4.595,0-9.194,1.054-13.426,3.172
			c-8.886,4.447-14.993,13.006-16.309,22.855c-1.784,13.354-4.304,26.429-6.145,35.976c-0.004,0.021-0.017,0.086-0.021,0.108
			l-0.25,1.313c-0.279,1.444-0.618,3.203-0.997,5.189c-0.969,0.189-1.939,0.428-2.904,0.718
			c-6.438,1.932-12.132,5.597-16.466,10.598c-9.383,10.842-13.063,27.045-10.381,45.646l0,0c1.781,12.488,5.208,23.28,10.188,32.077
			c5.727,10.117,12.59,15.862,18.841,19.104c3.166,24.777,6.921,34.049,10.272,39.712c9.404,15.9,28.002,26.454,38.252,31.329
			c12.579,5.983,32.613,13.115,56.625,13.115c24.008,0,44.046-7.13,56.628-13.111c10.25-4.873,28.85-15.419,38.265-31.31
			c3.334-5.646,7.047-14.823,10.192-39.218c14.718-7.473,25.39-25.893,29.11-51.618c1.555-10.796,2.275-31.062-10.341-45.679
			c-4.31-4.998-9.98-8.67-16.406-10.623c-0.996-0.303-1.996-0.551-2.996-0.747c-0.379-1.994-0.715-3.754-0.988-5.181
			c-0.006-0.031-0.012-0.063-0.019-0.094c-0.674-3.453-1.475-7.586-2.306-12.055c-2.618-14.077-14.82-24.342-29.138-24.512
			c-25.215-0.299-49.62-2.255-68.718-5.508c-31.131-5.374-48.396-13.231-55.92-17.438
			C-672.03-1079.106-677.078-1080.382-682.131-1080.382L-682.131-1080.382z"/>
	</g>
	<g>
		<path d="M-390.491-643.273v38.166c0,23.78-14.051,45.606-35.796,55.605c-1.272,0.585-2.213,1.724-2.549,3.082
			c-0.845,3.481-4.668,6.447-9.297,7.222c-0.803,0.135-1.611,0.201-2.408,0.201c-2.588,0-5.066-0.696-6.903-1.998
			c-1.055-0.764-2.382-2.072-2.715-4.032c-0.325-1.955,0.502-3.618,1.264-4.684c1.693-2.39,4.754-4.155,8.202-4.732
			c0.804-0.137,1.601-0.21,2.393-0.21c1.995,0,3.919,0.43,5.589,1.266c0.643,0.318,1.346,0.479,2.053,0.479
			c0.638,0,1.277-0.131,1.877-0.393c20.51-9.103,33.767-29.445,33.767-51.806v-38.166H-390.491 M-390.491-661.273h-4.524
			c-9.941,0-18,8.059-18,18v38.166c0,13.645-7.243,26.187-18.798,33.133c-2.116-0.448-4.295-0.679-6.487-0.679
			c-1.777,0-3.598,0.156-5.411,0.465c-8.135,1.361-15.389,5.758-19.858,12.054c-3.842,5.397-5.385,11.809-4.345,18.061
			c0.003,0.021,0.007,0.042,0.01,0.063c1.054,6.195,4.57,11.734,9.904,15.597c0.05,0.035,0.1,0.07,0.149,0.106
			c4.833,3.425,10.98,5.312,17.311,5.312c1.8,0,3.612-0.151,5.389-0.449c9.255-1.549,16.972-6.824,21.149-14.09
			c25.382-13.808,41.512-40.562,41.512-69.571v-38.166C-372.491-653.214-380.549-661.273-390.491-661.273L-390.491-661.273z"/>
	</g>
	<path fill="none" stroke="#000000" stroke-width="30" stroke-linecap="round" stroke-linejoin="round" stroke-miterlimit="10" d="
		M-614.855-801.814 M-549.981-777.313c-0.011,37.989-28.504,67.734-64.862,67.734c-36.392,0-64.896-29.745-64.896-67.734v-29.485
		c20.521,9.185,43.289,14.188,64.884,14.188c21.608,0,44.374-5.003,64.895-14.198L-549.981-777.313z"/>
	<g>
		<path d="M-530.514-643.273v38.166c0,22.36,13.255,42.694,33.776,51.806c0.601,0.262,1.238,0.393,1.874,0.393
			c0.705,0,1.407-0.16,2.056-0.479c1.653-0.832,3.57-1.255,5.578-1.255c0.794,0,1.603,0.066,2.414,0.199
			c3.428,0.577,6.486,2.343,8.192,4.732c0.75,1.065,1.576,2.729,1.242,4.684c-0.322,1.96-1.66,3.276-2.715,4.032
			c-1.823,1.302-4.286,1.998-6.875,1.998c-0.798,0-1.608-0.066-2.415-0.201c-4.629-0.774-8.442-3.74-9.289-7.222
			c-0.345-1.358-1.285-2.497-2.558-3.082c-21.733-9.978-35.787-31.804-35.787-55.605v-38.166H-530.514 M-530.514-661.273h-4.506
			c-9.941,0-18,8.059-18,18v38.166c0,29.035,16.132,55.794,41.519,69.583c4.18,7.26,11.893,12.531,21.146,14.079
			c1.779,0.298,3.59,0.448,5.385,0.448c6.349,0,12.506-1.9,17.336-5.35c5.419-3.884,8.962-9.452,10.006-15.701
			c1.048-6.219-0.47-12.618-4.275-18.024c-0.022-0.032-0.046-0.065-0.069-0.098c-4.477-6.271-11.713-10.653-19.854-12.023
			c-0.025-0.005-0.051-0.009-0.076-0.013c-1.766-0.29-3.558-0.437-5.325-0.437c-2.191,0-4.364,0.228-6.471,0.671
			c-11.565-6.949-18.814-19.492-18.814-33.136v-38.166C-512.514-653.214-520.573-661.273-530.514-661.273L-530.514-661.273z"/>
	</g>
</g>
<path fill="none" stroke="#000000" stroke-width="5" stroke-miterlimit="10" d="M-4083.471-1046.779
	c-11.216,49.611,10.399,105.068,52.29,133.938c14.485,9.979,30.856,16.881,47.59,22.444c32.354,10.762,66.707,16.688,100.72,14.043
	c34.035-2.679,67.797-14.259,94.339-35.715c2.316-1.885,4.836-3.951,7.833-4.189c2.634-0.204,5.108,1.045,7.538,2.066
	c10.785,4.586,22.682,5.495,34.353,6.335c12.079,0.874,24.34,1.737,36.146-0.886c26.77-6.051,47.09-30.084,54.174-56.615
	c7.084-26.554,2.611-54.992-6.494-80.887c-19.231-54.526-57.898-99.652-95.702-143.405"/>
<path fill="none" stroke="#000000" stroke-width="5" stroke-miterlimit="10" d="M-3825.723-1093.268
	c3.587,82,65.708,157.982,145.381,177.838c17.801,35.034,46.137,63.381,74.019,91.07c13.782,13.714,27.813,27.598,44.57,37.452
	c16.779,9.854,36.896,15.439,55.922,11.183c2.725-0.624,5.586-1.532,7.425-3.621c1.794-1.998,2.43-4.769,2.861-7.425
	c8.288-48.328-14.781-95.906-37.146-139.545c22.932-10.875,35.556-39.666,28.041-63.892c27.02,6.494,55.355,3.349,82.692-1.51
	c21.774-3.86,43.957-9.014,62.144-21.547c30.924-21.32,45.047-60.713,46.364-98.279c1.204-32.673-6.925-67.4-30.152-90.423
	c-10.875-10.808-24.476-18.459-38.145-25.43c-28.063-14.327-57.24-26.417-87.188-36.135c-39.87-12.953-81.443-21.717-123.379-21.547
	c-41.937,0.159-84.304,9.593-120.359,31.038c-23.228,13.827-43.276,32.264-63.166,50.609c-11.057,10.206-22.273,20.56-30.402,33.229
	c-15.235,23.647-18.437,52.801-21.229,80.796"/>
<path fill="none" stroke="#000000" stroke-width="5" stroke-miterlimit="10" d="M-3825.723-1093.268
	c3.587,82,65.708,157.982,145.381,177.838c17.801,35.034,46.137,63.381,74.019,91.07c13.782,13.714,27.813,27.598,44.57,37.452
	c16.779,9.854,36.896,15.439,55.922,11.183c2.725-0.624,5.586-1.532,7.425-3.621c1.794-1.998,2.43-4.769,2.861-7.425
	c8.288-48.328-14.781-95.906-37.146-139.545c22.932-10.875,35.556-39.666,28.041-63.892c27.02,6.494,55.355,3.349,82.692-1.51
	c21.774-3.86,43.957-9.014,62.144-21.547c30.924-21.32,45.047-60.713,46.364-98.279c1.204-32.673-6.925-67.4-30.152-90.423
	c-10.875-10.808-24.476-18.459-38.145-25.43c-28.063-14.327-57.24-26.417-87.188-36.135c-39.87-12.953-81.443-21.717-123.379-21.547
	c-41.937,0.159-84.304,9.593-120.359,31.038c-23.228,13.827-43.276,32.264-63.166,50.609c-11.057,10.206-22.273,20.56-30.402,33.229
	c-15.235,23.647-18.437,52.801-21.229,80.796"/>
<path fill="none" stroke="#000000" stroke-width="5" stroke-miterlimit="10" d="M-3200.743-1190.457
	c24.908-24.396,26.497-68.66,3.36-94.748c-6.562-7.368-15.122-14.225-16.348-23.988c-0.772-6.21,1.703-12.307,3.61-18.278
	c17.574-54.821-17.165-120.689-72.315-137.195c1.317-54.708-38.735-107.679-91.683-121.347
	c-5.631-42.663-39.302-80.217-81.103-90.446c-9.559-2.316-19.64-3.417-28.291-8.128c-10.194-5.563-17.12-15.439-24.816-24.136
	c-30.629-34.739-78.583-53.437-124.696-48.623c-6.993,0.727-14.146,1.953-20.912,0.046c-7.583-2.112-13.532-7.833-19.776-12.67
	c-34.625-26.849-87.528-26.849-122.222,0c-6.221,4.813-12.17,10.558-19.753,12.727c-8.446,2.418-17.37,0.022-26.042-1.351
	c-27.133-4.303-55.81,1.953-78.673,17.154c-6.471,4.303-12.896,9.445-20.616,10.444c-6.97,0.908-13.805-1.771-20.548-3.678
	c-37.372-10.581-80.512,3.349-104.647,33.808c-45.16-15.439-100.129,7.697-120.655,50.803c-2.906,6.085-5.381,12.715-10.421,17.131
	c-7.379,6.369-18.051,6.437-27.723,7.538c-54.015,6.187-97.609,60.986-91.411,115.036c-26.701-1.556-53.788,11.023-69.795,32.366
	c-16.075,21.366-20.571,50.871-11.648,76.051c-35.238,45.569-41.618,112.345-5.813,157.494
	c-28.222,36.76-10.966,98.722,32.196,115.603c3.95,28.779,12.374,62.382,39.461,72.883c11.512,4.473,24.272,3.655,36.556,4.984
	c31.287,3.394,59.26,20.787,89.775,28.336c30.584,7.583,69.75,0.727,81.716-28.381c20.366,12.136,41.437,24.499,64.959,27.757
	c23.478,3.281,50.247-4.927,61.826-25.623c16.438,32.763,60.101,48.611,93.727,34.103c33.672-14.531,52.04-57.194,39.484-91.626
	c29.88,10.694,65.05,4.881,89.935-14.804c24.839-19.719,38.553-52.642,34.966-84.167c27.337,21.921,73.088,14.508,92.16-14.929
	c45.273,21.274,98.154,6.63,148.196,4.995c51.949-1.691,108.258,14.19,138.841,56.195c14.759,20.23,22.297,44.65,32.9,67.309
	c10.626,22.648,25.975,45.059,49.248,54.197c23.295,9.139,55.241-1.294,61.076-25.646c3.043-12.76-1.112-27.246,5.404-38.655
	c3.769-6.607,10.512-10.887,15.825-16.302C-3176.176-1137.656-3178.9-1174.019-3200.743-1190.457"/>
<g>
	<path fill="none" stroke="#000000" stroke-width="5" stroke-miterlimit="10" d="M-4032.384-1371.927l5.767,0.352l0.5-5.79
		c1.884-22.739,20.639-40.892,40.188-48.782c20.162-8.299,41.687-9.104,61.122-9.104h7.447l-2.906-6.698
		c-3.633-8.492-1.203-18.232,3.542-26.111c4.768-7.958,11.307-14.44,18.096-19.526c13.828-10.444,27.7-16.836,39.439-20.821
		c23.681-7.811,38.281-7.243,38.167-8.616c0-0.443-3.565-1.022-10.376-0.954c-6.812,0.091-16.893,0.976-29.38,4.302
		c-12.442,3.315-27.382,9.275-42.436,19.731c-7.629,5.279-15.167,12.136-21.025,21.275c-4.731,7.255-8.398,17.3-6.808,27.608
		c-18.26-0.219-38.598,0.733-59.014,8.708c-20.807,8.166-41.926,26.28-47.005,52.432c-24.826-0.156-50.253,9.605-70.153,26.616
		c-11.534,9.774-20.707,21.933-27.178,35.182c-3.247,6.607-5.472,13.623-7.266,20.65c-1.612,7.322-2.384,11.182-6.652,13.85
		c-23.75,13.306-41.459,37.396-47.749,61.622c-6.947,24.521-2.792,49.542,6.834,68.535c8.998,18.102,22.34,31.603,36.128,40.067
		c-7.534,24.705,3.123,44.902,11.576,54.488c4.632,5.302,9.15,8.299,12.238,10.092c3.27,1.624,5.018,2.191,5.177,1.885
		c0.522-0.84-6.448-3.974-14.236-14.509c-7.379-9.979-15.894-30.322-6.789-52.176l1.226-2.952l-2.748-1.737
		c-13.101-8.208-25.861-21.513-34.125-39.223c-8.219-17.607-11.33-39.791-4.859-61.52c6.494-21.865,21.048-42.061,44.093-54.923
		c3.247-2.043,6.902-6.062,8.446-10.058c1.658-3.939,2.316-7.629,3.065-10.796c1.612-6.142,3.542-12.272,6.494-18.084
		c5.722-11.648,13.918-22.456,24.203-31.208C-4080.201-1364.458-4055.543-1373.267-4032.384-1371.927z"/>
	<path fill="none" stroke="#000000" stroke-width="5" stroke-miterlimit="10" d="M-3908.982-1337.45
		c18.596-1.555,35.466-9.695,50.837-18.731c11.08-6.812,22.66-13.181,32.354-23.397c5.586-5.878,10.131-13.406,12.125-21.619
		c6.705,4.586,14.876,6.665,22.091,6.815c12.987,0.182,23.954-2.509,35.307-5.438c11.171-3.281,22.364-8.446,30.583-17.483
		c4.023-4.377,7.306-9.632,9.315-15.32c8.224,8.493,20.282,12.381,30.76,12.221c16.052-0.317,29.312-7.231,40.528-13.805
		c22.501-13.532,39.484-29.414,51.041-44.274c11.67-14.85,17.914-28.552,21.116-38.054c3.133-9.582,3.633-14.952,3.224-15.042
		c-1.589-0.727-5.313,21.388-29.085,49.191c-11.83,13.748-28.654,28.37-50.633,40.732c-10.875,6.051-23.182,11.716-36.214,11.603
		c-12.281,0.169-26.5-7.827-29.023-20.132c-0.006-0.041-0.009-0.081-0.016-0.121l-0.01,0.002c-0.011-0.054-0.025-0.107-0.036-0.161
		l-10.354,1.885c1.34,8.072-2.293,17.063-8.696,23.829c-6.244,6.766-15.598,11.182-25.634,13.998
		c-10.126,2.577-21.592,5.018-31.696,4.7c-9.967-0.136-20.003-5.392-22.818-13.555l-11.33,3.553
		c2.543,9.093-1.657,20.298-9.354,28.223c-7.697,8.23-18.777,14.611-29.675,21.207c-14.781,8.719-30.152,15.882-45.706,17.21
		c-15.394,1.396-31.242-3.19-40.619-13.623l-9.15,7.299c8.446,11.897,6.721,29.063-0.272,41.914
		c-6.902,12.976-19.39,22.466-32.037,29.641c-12.896,6.982-26.383,13.487-38.871,17.676c-12.51,4.155-25.384,4.927-34.285-1.26
		l-5.699,6.834c14.282,13.816,20.844,32.094,21.57,47.874c0.885,15.973-4.019,29.596-9.65,39.416
		c-11.83,19.856-24.68,25.611-23.75,26.69c0.136,0.318,3.315-0.794,8.605-4.28c5.199-3.531,12.624-9.627,19.367-19.81
		c6.652-10.047,12.783-24.556,12.533-42.243c-0.136-12.997-3.779-27.662-12.157-40.986c8.786,1.22,18.126-0.244,26.371-2.801
		c14.077-4.461,27.178-10.523,41.142-17.801c13.646-7.583,27.927-17.607,36.782-33.604c5.459-9.866,8.756-22.359,7.198-34.646
		C-3932.414-1338.202-3920.398-1336.477-3908.982-1337.45z"/>
	<path fill="none" stroke="#000000" stroke-width="5" stroke-miterlimit="10" d="M-3430.087-1329.968
		c14.009-14.974,18.073-31.594,15.031-32.729c-3.179-1.396-11.466,11.296-23.886,24.476c-10.789,11.747-21.382,20.277-22.724,24.256
		c-4.566-2.033-9.565-3.723-15.035-4.866c-15.994-3.344-36.848-1.789-53.711,11.321c-15.212-14.158-38.156-19.998-60.496-19.755
		c-12.261,0.352-24.385,0.84-37.645,5.37c-9.591,3.066-20.115,12.345-22.04,24.369c-7.538-3.487-15.703-6.154-24.097-7.794
		c-29.839-5.596-58.708-0.376-84.166,8.416c2.52-4.856,4.134-11.342,4.222-18.111c-0.591-17.278-3.111-28.654-5.858-29.528
		c-3.859-0.954-6.856,14.043-6.267,29.267c0.262,10.26-2.209,17.871-3.3,22.539c-0.406,0.161-0.814,0.321-1.218,0.484
		c-14.054,5.699-28.359,12.817-38.372,24.715c-7.509,8.929-11.981,20.536-11.27,31.814c-16.233-6.575-32.925-7.59-47.06-5.102
		c-17.097,2.929-30.425,10.864-39.507,18.72c-9.241,7.947-14.531,15.928-17.528,21.524c-2.997,5.654-3.814,8.957-3.429,9.139
		c1.249,0.84,6.335-12.34,24.499-26.224c9.059-6.721,21.638-13.249,37.168-15.201c15.394-2.043,33.831,0.488,50.314,10.229
		l12.102,7.163l-4.972-13.26c-3.701-9.763-0.159-22.569,7.901-31.753c8.242-9.445,20.821-15.769,34.466-21.07
		c27.087-10.604,58.806-17.778,89.912-11.875c10.989,2.135,21.365,6.108,30.175,11.512c0,0,45.024-33.626,56.082-33.978
		c22.319-0.534,43.639,5.233,56.444,18.652l3.52,3.701l3.587-3.564c13.759-13.441,33.558-16.348,49.088-13.714
		c15.78,2.577,28.268,10.58,37.214,18.016c17.914,15.508,24.203,28.291,25.43,27.439c0.431-0.238-0.727-3.542-3.951-9.229
		c-3.292-5.653-8.605-13.816-17.619-22.512c-5.356-5.105-12.15-10.557-20.571-14.913
		C-3451.695-1313.188-3440.263-1318.953-3430.087-1329.968z"/>
	<path fill="none" stroke="#000000" stroke-width="5" stroke-miterlimit="10" d="M-3667.445-1326.472
		c-9.037-12.227-12.034-24.93-15.508-24.805c-3.224-0.329-5.608,16.223,5.676,31.878c11.216,15.712,27.7,18.754,28.404,15.553
		C-3647.646-1307.082-3658.75-1313.984-3667.445-1326.472z"/>
	<path fill="none" stroke="#000000" stroke-width="5" stroke-miterlimit="10" d="M-3964.655-1136.839
		c-1.657,0.647,1.317,8.833-3.201,20.321c-3.905,11.478-17.347,23.5-34.943,32.571c-17.415,9.252-35.125,12.783-47.976,13.112
		c-12.919,0.352-21.093-1.657-21.729,0.068c-0.568,1.351,6.947,6.505,21.252,8.492c14.19,1.975,34.761-0.659,54.083-10.933
		c19.027-9.695,34.807-25.339,37.577-40.949C-3956.504-1129.494-3963.542-1137.895-3964.655-1136.839z"/>
	<path fill="none" stroke="#000000" stroke-width="5" stroke-miterlimit="10" d="M-3303.665-1382.372
		c10.898,11.897,15.53,26.826,16.575,39.212c2.066,25.532-8.537,39.881-6.562,40.767c0.5,1.135,14.917-12.261,15.122-41.153
		c-0.045-13.952-4.223-31.435-16.733-46.205c-11.534-14.316-34.262-26.962-57.398-18.777c-1.307,0.46-2.586,1-3.838,1.591
		c-0.364-15.451-7.338-29.351-15.644-39.146c-10.966-13.158-25.248-20.389-37.486-22.898c-6.034-1.293-11.622-1.483-16.488-0.999
		c17.557-12.216,31.634-28.607,37.74-47.181c7.152-20.73,1.771-41.403-6.04-54.651c-7.811-13.68-16.756-22.489-23-28.188
		c-6.38-5.665-10.354-8.174-10.898-7.595c-1.794,1.51,13.169,14.043,26.27,39.688c6.176,12.738,9.604,29.959,3.11,47.079
		c-6.153,17.131-20.934,32.968-39.37,44.354c-4.519,2.725-9.332,5.608-13.26,6.766c-3.841,1.166-6.661,0.741-7.393-0.01
		c-0.019-0.042-0.035-0.084-0.054-0.126l-0.033,0.017c-0.059-0.086-0.1-0.175-0.104-0.267l-10.558,5.416
		c7.129,14.713,2.498,32.366-5.608,44.377c-8.06,12.283-19.912,19.98-29.971,25.327c-20.684,10.229-34.92,13.737-34.353,15.485
		c0.25,1.021,14.758,0.363,37.645-8.515c11.125-4.745,24.839-12.159,35.238-26.383c7.828-10.725,13.978-26.343,11.54-42.618
		c2.504-0.068,4.797-0.528,6.988-1.123c3.565-1.098,6.567-2.502,9.384-4.028c6.1-1.506,15.364-2.64,27.194,1.031
		c10.513,3.212,22.274,10.138,31.129,21.808c8.855,11.318,14.963,27.711,10.83,43.367l-5.835,22.171l16.03-16.484
		c2.838-2.906,6.584-5.347,10.875-6.857C-3332.023-1403.181-3314.086-1394.303-3303.665-1382.372z"/>
	<path fill="none" stroke="#000000" stroke-width="5" stroke-miterlimit="10" d="M-3372.529-1359.167
		c-3.02,1.737,6.107,20.775,3.042,45.217c-2.407,24.556-15.507,41.085-12.942,43.458c1.726,2.827,21.865-12.931,24.953-42.107
		C-3354.024-1341.729-3370.213-1361.563-3372.529-1359.167z"/>
	<path fill="none" stroke="#000000" stroke-width="5" stroke-miterlimit="10" d="M-3272.809-1258.561
		c5.926-4.087,12.76-7.197,18.096-8.367c4.678-1.328,8.311,1.487,13.396,4.541c9.104,5.46,15.28,8.185,16.279,6.834
		c0.999-1.328-3.36-6.471-11.148-13.703c-1.975-1.737-3.973-3.803-7.266-5.903c-3.201-2.18-8.446-3.44-12.737-2.838
		c-8.469,1.124-16.007,4.496-23.432,9.445c-14.486,10.115-22.978,22.921-28.677,31.901c-2.634,4.348-5.449,8.651-5.426,12.738
		c-0.023,4.348,3.02,5.506,3.315,4.745c0.409-1.68,0.363-4.439,8.9-12.283C-3294.242-1239-3284.956-1250.137-3272.809-1258.561z"/>
	<path fill="none" stroke="#000000" stroke-width="5" stroke-miterlimit="10" d="M-3194.045-1198.335
		c-1.453-0.511-4.518,5.971-11.375,15.064c-3.451,4.484-7.992,9.695-13.646,14.486c-5.2,4.949-13.033,6.641-16.166,3.11
		l-9.173,7.254c2.679,4.552,4.178,10.251,3.95,16.279c-0.386,10.206-5.313,19.708-12.056,25.18
		c-6.902,5.642-15.394,7.924-22.478,8.344c-14.577,0.795-23.25-4.677-24.181-2.997c-1.022,0.886,6.471,9.899,24.067,11.58
		c8.514,0.669,19.526-0.954,29.38-8.072c9.877-7.118,16.87-19.719,17.347-33.615c0.141-3.648-0.211-7.287-1.01-10.78
		c1.478-0.105,2.905-0.354,4.234-0.709c5.722-1.657,9.786-4.949,12.941-8.049c6.085-6.187,10.24-12.454,13.146-17.994
		C-3193.386-1190.434-3192.796-1197.972-3194.045-1198.335z"/>
	<path fill="none" stroke="#000000" stroke-width="5" stroke-miterlimit="10" d="M-3331.41-1464.632l-0.182,0.25l-7.584,10.206
		l12.715-0.534c10.604-0.443,20.775,4.507,28.268,10.853c7.561,6.323,12.692,14.236,16.484,21.161
		c7.356,14.066,10.626,24.022,12.42,23.511c1.407-0.375,1.249-10.842-4.655-27.087c-3.111-7.98-8.038-17.585-16.847-25.884
		c-6.31-6-14.932-11.425-25.022-13.628c5.205-7.994,9.43-16.618,10.582-25.992c1.907-13.044-4.541-24.147-10.013-30.481
		c-11.443-12.874-19.277-19.084-20.503-18.221c-1.499,1.067,4.609,9.979,13.601,23.228c4.178,6.698,7.788,14.713,5.88,23.875
		C-3317.878-1484.192-3324.009-1474.452-3331.41-1464.632z"/>
	<path fill="none" stroke="#000000" stroke-width="5" stroke-miterlimit="10" d="M-3801.769-1552.421
		c-14.736-0.556-27.269-7.561-36.51-14.134c-18.414-14.021-27.064-25.782-28.404-24.601c-0.795,0.556,5.518,13.771,23.817,30.414
		c9.287,7.833,22.546,16.779,40.461,18.368c14.926,1.333,34.479-3.062,46.469-18.363c9.956,9.382,22.704,16.744,36.835,20.804
		c26.882,7.721,55.027,2.93,75.066-9.837c3.487,5.667,8.802,9.657,13.869,12.017c7.039,3.372,14.486,4.564,21.161,4.461
		c13.441-0.204,24.454-4.734,32.332-9.786c15.917-10.649,19.345-21.922,18.573-22.081c-1.249-0.977-6.607,8.525-21.797,16.461
		c-7.538,3.78-17.551,6.925-28.972,6.414c-10.74-0.306-24.953-5.88-27.632-17.063l-1.884-7.811l-6.63,4.779
		c-17.778,12.862-44.888,18.209-70.727,10.819c-14.69-4.234-27.541-12.306-36.691-22.342l-5.858-6.425l-3.769,7.697
		C-3769.301-1557.791-3787.306-1551.672-3801.769-1552.421z"/>
	<path fill="none" stroke="#000000" stroke-width="5" stroke-miterlimit="10" d="M-3600.012-1627.314
		c1.476,1.079,5.949-3.44,15.122-5.71c8.9-2.327,22.955-2.906,36.237,1.874c13.464,4.654,21.933,14.951,25.543,23.511
		c1.885,4.325,2.634,7.924,3.27,10.933c0.159,0.897,0.5,2.248,1.589,3.065c1.408,1.09,2.77,0.42,3.202-0.068
		c1.316-1.351-0.023-2.634-0.25-2.021c-0.415,0.305-0.394,0.529-0.897-0.04c0.319-0.096,1.056-0.466,1.056-0.937
		c0.862-2.77,1.385-7.742,0.227-13.419c-1.884-11.33-12.442-26.553-29.562-32.389c-16.848-5.949-33.218-3.599-43.526,1.51
		C-3598.649-1635.681-3601.351-1627.961-3600.012-1627.314z"/>
	<path fill="none" stroke="#000000" stroke-width="5" stroke-miterlimit="10" d="M-3733.858-1660.781
		c15.394-7.231,37.895-14.373,63.733-18.278c25.93-4.643,49.225-4.393,63.075,4.303c14.327,7.958,17.823,18.856,19.571,18.164
		c1.476,0.205,0.886-13.578-14.872-25.327c-15.394-12.579-43.503-13.941-69.659-9.082c-8.7,1.306-17.057,3.131-24.912,5.322
		c2.116-7.48,1.198-18.255-5.036-27.596c-6.744-9.899-15.939-15.156-22.365-17.88c-6.584-2.713-11.08-3.179-11.83-1.737
		c-2.089,3.349,13.76,11.852,24.09,26.338c4.791,7.186,6.38,15.326,6.153,21.014c-0.019,0.94-0.082,1.823-0.165,2.657
		c-12.577,4.18-23.49,9.255-31.849,14.542c-15.372,9.582-22.388,18.539-21.366,19.606
		C-3758.084-1647.34-3749.32-1653.686-3733.858-1660.781z"/>
	<path fill="none" stroke="#000000" stroke-width="5" stroke-miterlimit="10" d="M-3840.686-1699.357
		c8.346,2.078,15.683,4.797,21.029,6.459c-6.18,19.604-2.281,36.87-1.208,48.464c1.658,12.227,2.157,19.776,3.86,20.037
		c1.566,0.272,4.223-7.606,4.677-20.366c0.885-12.579-1.135-30.107,4.7-46.035c6.562-15.53,18.369-29.721,24.045-40.665
		c6.357-10.808,9.604-17.994,8.219-18.97c-1.385-0.977-7.084,4.461-15.167,14.021c-6.87,9.105-17.528,19.491-25.818,35.874
		c-4.663-3.918-11.977-8.162-21.294-10.535c-18.301-4.791-33.331,0.454-32.65,3.599
		C-3869.748-1704.057-3856.193-1703.523-3840.686-1699.357z"/>
	<path fill="none" stroke="#000000" stroke-width="5" stroke-miterlimit="10" d="M-4015.492-1541.977
		c13.101,10.524,23,13.873,23.704,12.579c0.976-1.589-7.152-7.493-17.869-18.856c-10.649-11.182-23.795-28.881-28.813-51.381
		c-4.881-22.421,0.75-43.855,8.128-56.967c7.288-13.418,15.394-19.526,14.213-21.116c-0.568-1.203-11.08,2.588-21.457,16.507
		c-10.217,13.509-18.414,37.951-12.715,64.153C-4044.486-1571.062-4028.32-1552.24-4015.492-1541.977z"/>
	<path fill="none" stroke="#000000" stroke-width="5" stroke-miterlimit="10" d="M-4282.322-1198.052
		c-19.844,13.93-30.743,33.944-34.898,48.657c-2.157,7.447-2.77,13.657-2.792,17.96c0,2.759,0.908,4.711,2.407,5.756
		c1.794,0.931,2.565-0.136,2.407-0.409c-0.545-0.704-1.226-1.419-0.182-4.586c1.43-3.814,3.27-9.343,6.199-15.757
		c5.813-12.772,16.529-29.596,33.853-41.744c17.256-12.317,36.624-17.063,50.587-18.289c6.948-0.556,13.01-0.817,16.506-0.443
		c3.588,0.363,5.2,1.782,5.949,1.294C-4196.655-1212.56-4241.68-1226.388-4282.322-1198.052z"/>
	<path fill="none" stroke="#000000" stroke-width="5" stroke-miterlimit="10" d="M-4272.127-1355.83
		c6.607,14.111,6.675,29.301,3.95,41.017c-5.517,24.204-19.73,34.148-18.164,35.613c0.137,1.283,17.71-6.596,26.475-33.388
		c4.109-12.919,5.245-30.425-2.089-47.794c-3.656-8.583-9.514-16.972-18.028-23.295c-8.242-6.471-20.889-9.956-32.15-6.846
		c-26.563,8.751-42.479,28.938-50.984,48.213c-21.027-2.389-35.431,10.574-40.948,19.755c-6.153,10.319-4.927,17.46-4.155,17.392
		c1.249,0.25,2.203-6.165,8.81-14.02c5.646-6.896,18.101-15.419,32.658-13.725l-6.819,19.538l15.507-15.508
		c1.447-1.435,2.267-3.011,2.57-4.579c3.709-8.693,9.15-17.545,16.525-25.482c7.924-8.446,18.437-16.858,29.721-19.81
		C-4293.22-1383.189-4278.303-1369.543-4272.127-1355.83z"/>
	<path fill="none" stroke="#000000" stroke-width="5" stroke-miterlimit="10" d="M-4232.325-1449.465
		c11.443-4.632,29.562-8.854,49.633-3.837l7.333,1.839l-0.84-7.742c-1.862-18.017-1.431-39.848,7.901-59.408
		c10.717-22.989,34.308-36.68,53.334-34.943l7.447,0.704l-1.975-7.004c-2.134-7.584-0.272-15.621,3.36-21.139
		c3.565-5.642,8.946-8.923,13.691-10.569c9.695-3.349,16.098-1.124,16.416-2.373c0.477-0.636-5.653-5.347-17.937-3.349
		c-5.88,1.067-13.351,4.348-18.891,11.432c-4.334,5.48-7.421,13.162-7.286,21.712c-22.492-0.155-47.47,15.416-59.059,40.295
		c-9.555,20.169-10.397,41.225-8.51,58.973c-20.23-2.14-37.095,3.731-47.39,9.71c-11.739,6.857-16.28,13.396-15.621,14.066
		C-4249.854-1440.077-4243.928-1444.765-4232.325-1449.465z"/>
	<path fill="none" stroke="#000000" stroke-width="5" stroke-miterlimit="10" d="M-3926.238-1601.056
		c1.362,0.67,5.768-4.393,7.743-14.724c2.043-10.183,0.5-25.18-6.744-39.223c-15.394-27.825-37.781-39.609-39.279-37.542
		c-2.815,2.838,15.507,19.083,28.495,43.06C-3922.673-1624.987-3928.963-1602.157-3926.238-1601.056z"/>
	<path fill="none" stroke="#000000" stroke-width="5" stroke-miterlimit="10" d="M-4110.039-1412.273
		c-0.992-0.148-1.99-0.282-2.994-0.398c-34.353-3.905-66.299,5.495-83.668,21.559c-8.582,8.14-12.283,17.415-13.169,23.783
		c-0.908,6.46,0.432,9.956,1.136,9.877c1.793,0.375,1.521-14.6,17.642-27.201c15.667-11.977,45.569-19.663,76.584-16.019
		c3.656,0.443,7.243,1.113,10.604,1.771l9.468,1.885l-2.361-9.31c-6.947-27.2,5.631-52.959,17.938-65.913
		c12.487-13.691,24.181-17.392,23.477-19.22c-0.045-1.147-13.441-0.284-29.176,13.407
		C-4098.399-1466.429-4113.396-1441.655-4110.039-1412.273z"/>
</g>
<path fill="none" stroke="#000000" stroke-width="5" stroke-miterlimit="10" d="M-3631.5-1272.5"/>
<g>
	<path fill="none" stroke="#000000" stroke-width="30" stroke-linecap="round" stroke-linejoin="round" stroke-miterlimit="10" d="
		M430.881,1220.583c0,0-76.943-56.181-135.567,15.878c-58.624,72.058-12.213,136.788,56.181,153.888
		c68.395,17.098,140.453,8.549,151.445,140.451c0,0-4.275,38.474,39.692,39.083c43.969,0.611,42.748-43.357,44.579-58.623
		c1.832-15.267,51.297-61.677,119.08-69.006c67.783-7.328,106.865-70.837,105.033-111.141
		c-1.831-40.304-34.196-152.056-174.039-119.079"/>
	<path fill="none" stroke="#000000" stroke-width="30" stroke-linecap="round" stroke-linejoin="round" stroke-miterlimit="10" d="
		M386.913,1326.839c0,0,77.554-107.478,176.481-3.053"/>
	<path fill="none" stroke="#000000" stroke-width="30" stroke-linecap="round" stroke-linejoin="round" stroke-miterlimit="10" d="
		M548.129,1235.85c0,0-44.579,0-59.234,34.809"/>
	<path fill="none" stroke="#000000" stroke-width="30" stroke-linecap="round" stroke-linejoin="round" stroke-miterlimit="10" d="
		M661.712,1278.154c0,0,32.977,106.087-78.165,121.964"/>
	<path fill="none" stroke="#000000" stroke-width="30" stroke-linecap="round" stroke-linejoin="round" stroke-miterlimit="10" d="
		M654.387,1151.782c0,0,6.918,37.267,15.062,47.946"/>
	<path fill="none" stroke="#000000" stroke-width="30" stroke-linecap="round" stroke-linejoin="round" stroke-miterlimit="10" d="
		M786.287,1235.85c0,0,33.792-146.762-66.356-101.166c0,0,40.709-151.038-89.974-148.596c0,0-12.618,50.482-28.495,67.174"/>
	<path fill="none" stroke="#000000" stroke-width="30" stroke-linecap="round" stroke-linejoin="round" stroke-miterlimit="10" d="
		M623.839,1006.975c0,0-18.716-112.078-122.121-69.332c0,0,10.992,140.861-89.971,149.002"/>
	<path fill="none" stroke="#000000" stroke-width="30" stroke-linecap="round" stroke-linejoin="round" stroke-miterlimit="10" d="
		M468.215,1060.126c0,0,23.327,31.404,63.631,56.237"/>
	<path fill="none" stroke="#000000" stroke-width="30" stroke-linecap="round" stroke-linejoin="round" stroke-miterlimit="10" d="
		M298.57,979.167c0,0,32.357-92.757,102.186-89.157c78.979,4.072,99.274,76.799,99.274,76.799"/>
	<path fill="none" stroke="#000000" stroke-width="30" stroke-linecap="round" stroke-linejoin="round" stroke-miterlimit="10" d="
		M301.42,944.563c0,0-58.013-26.869-96.484,14.045c-38.472,40.916-17.71,108.699-17.71,108.699"/>
	<path fill="none" stroke="#000000" stroke-width="30" stroke-linecap="round" stroke-linejoin="round" stroke-miterlimit="10" d="
		M170.127,1023.339c0,0-76.333,12.823-70.837,76.943c5.496,64.12,73.89,64.12,103.202,48.243"/>
	<path fill="none" stroke="#000000" stroke-width="30" stroke-linecap="round" stroke-linejoin="round" stroke-miterlimit="10" d="
		M162.188,1216.309c0,0,8.55-32.477,8.55-58.984"/>
	<path fill="none" stroke="#000000" stroke-width="30" stroke-linecap="round" stroke-linejoin="round" stroke-miterlimit="10" d="
		M99.008,1097.84c0,0-98.848,72.261-26.383,198.466c0,0,60.903,100.149,200.217,30.533"/>
	<path fill="none" stroke="#000000" stroke-width="30" stroke-linecap="round" stroke-linejoin="round" stroke-miterlimit="10" d="
		M340.91,1017.843c0,0-31.346,6.92-46.41,54.96"/>
	<path fill="none" stroke="#000000" stroke-width="30" stroke-linecap="round" stroke-linejoin="round" stroke-miterlimit="10" d="
		M312.007,1128.983c0,0,22.454,48.556,26.899,75.37"/>
</g>
<g>
	<g>
		<path fill="none" stroke="#000000" stroke-width="30" stroke-linecap="round" stroke-linejoin="round" stroke-miterlimit="10" d="
			M-184.543,1239.907h156.848v152.72c0,0-4.127,30.957,24.25,54.175s108.865,85.647,102.673,139.306
			c-6.191,53.658-44.371,83.841-85.647,81.003c-41.275-2.838-69.136-54.689-114.024-54.174
			c-44.887,0.516-86.679,59.85-125.891,57.271c-39.212-2.58-78.424-36.117-78.94-89.26s75.328-109.38,95.45-127.954
			s25.281-23.476,25.281-54.69C-184.543,1367.087-184.543,1239.907-184.543,1239.907z"/>
		<path fill="none" stroke="#000000" stroke-width="30" stroke-linecap="round" stroke-linejoin="round" stroke-miterlimit="10" d="
			M97.561,1587.71c0,0,9.523,32.3-3.735,59.156s-38.754,48.615-58.473,66.974c0,0-63.575,53.983-63.575,99.271s0,142.784,0,142.784
			h-155.025v-142.784c0,0,5.78-37.398-22.778-65.956c-28.557-28.557-98.59-89.07-99.951-117.627c-1.36-28.558,0-41.818,0-41.818"/>
	</g>
	<g>
		<path fill="none" stroke="#000000" stroke-width="30" stroke-linecap="round" stroke-linejoin="round" stroke-miterlimit="10" d="
			M-336.048,1383.211c0,0-189.703,192.763,0,429.381"/>
		<path fill="none" stroke="#000000" stroke-width="30" stroke-linecap="round" stroke-linejoin="round" stroke-miterlimit="10" d="
			M130.338,1383.211c0,0,189.702,192.763,0,429.381"/>
	</g>
</g>
<image overflow="visible" width="205" height="246" xlink:href="8235FDB7.jpg"  transform="matrix(2.9118 0 0 2.9118 2540.5508 -56.9399)">
</image>
<path fill="none" stroke="#000000" stroke-width="30" stroke-linecap="round" stroke-linejoin="round" stroke-miterlimit="10" d="
	M527.167-74.833c0,0-65.667,225.333-67.667,244.333s-22,65.178,17,144.089s78,158.911-2,293.911"/>
<path fill="none" stroke="#000000" stroke-width="30" stroke-linecap="round" stroke-linejoin="round" stroke-miterlimit="10" d="
	M96.5,607.5l9-44c0,0-148.095-102.006-152-249.911C-50.167,174.711,13.5,99.5,120.5,16.5c0,0-106-18-66-111"/>
<g>
	<path d="M210.75,124.41c100.541,0,182.045,81.504,182.045,182.045c0,100.541-81.504,182.045-182.045,182.045
		c-100.541,0-182.045-81.504-182.045-182.045C28.705,205.915,110.209,124.41,210.75,124.41 M210.75,94.41
		c-28.613,0-56.385,5.61-82.546,16.676c-25.254,10.682-47.928,25.967-67.392,45.431c-19.464,19.464-34.749,42.138-45.431,67.392
		C4.315,250.07-1.295,277.843-1.295,306.455c0,28.613,5.61,56.386,16.676,82.547c10.682,25.254,25.967,47.928,45.431,67.392
		c19.464,19.464,42.138,34.749,67.392,45.431c26.161,11.065,53.934,16.676,82.546,16.676s56.386-5.61,82.547-16.676
		c25.254-10.682,47.928-25.967,67.392-45.431s34.749-42.138,45.431-67.392c11.065-26.161,16.676-53.935,16.676-82.547
		s-5.61-56.385-16.676-82.546c-10.682-25.254-25.967-47.928-45.431-67.392c-19.464-19.464-42.138-34.749-67.392-45.431
		C267.136,100.021,239.363,94.41,210.75,94.41L210.75,94.41z"/>
</g>
<path fill="none" stroke="#000000" stroke-width="30" stroke-linecap="round" stroke-linejoin="round" stroke-miterlimit="10" d="
	M233.833,306.455c0,0-18.667-29.955-16.667-61.955s19.333-74.667,64-69.333s58.667,44.667,56,62s-8,44.577-30,69.289
	c0,0,17.333,62.711-35.333,100.711c-52.667,38-126.667,40.667-148,4s-4.667-78.001,3.333-91.334"/>
<path fill="none" stroke="#000000" stroke-width="30" stroke-linecap="round" stroke-linejoin="round" stroke-miterlimit="10" d="
	M113.391,346.499c0,0-37.558-20.397-36.891-40.532s32-34.135,30.667-8.135c0,0,44-60.754,66.667,8.623c0,0-36,56.71-4.667,61.377
	s59.333-7.333,62-9.333"/>
<path fill="none" stroke="#000000" stroke-width="30" stroke-linecap="round" stroke-linejoin="round" stroke-miterlimit="10" d="
	M222.092,279.876c0,0-44.592,22.534-49.592,26.579c0,0,26-46.621-16-60.622c-42-14-45.333-62.244-46-71.122"/>
</svg>
