<?xml version="1.0" encoding="utf-8"?>
<!-- Generator: Adobe Illustrator 15.0.0, SVG Export Plug-In . SVG Version: 6.00 Build 0)  -->
<!DOCTYPE svg PUBLIC "-//W3C//DTD SVG 1.1//EN" "http://www.w3.org/Graphics/SVG/1.1/DTD/svg11.dtd">
<svg version="1.1" id="Layer_1" xmlns="http://www.w3.org/2000/svg" xmlns:xlink="http://www.w3.org/1999/xlink" x="0px" y="0px"
	 width="812px" height="812px" viewBox="-150 -150 812 812" enable-background="new -150 -150 812 812" xml:space="preserve">
<g>
	<path d="M-636.589-105.408c200.43,0,362.908,162.48,362.908,362.909S-436.16,620.406-636.589,620.406
		S-999.498,457.93-999.498,257.501S-837.019-105.408-636.589-105.408 M-636.589-140.408c-53.702,0-105.816,10.525-154.895,31.284
		c-47.387,20.043-89.937,48.729-126.469,85.261c-36.532,36.532-65.218,79.082-85.261,126.469
		c-20.758,49.079-31.284,101.193-31.284,154.895c0,53.702,10.525,105.815,31.284,154.895
		c20.043,47.386,48.729,89.937,85.261,126.468s79.082,65.217,126.469,85.26c49.078,20.758,101.192,31.283,154.895,31.283
		s105.816-10.525,154.895-31.283c47.387-20.043,89.938-48.729,126.47-85.26c36.531-36.531,65.217-79.082,85.26-126.468
		c20.759-49.079,31.284-101.192,31.284-154.895c0-53.702-10.525-105.816-31.284-154.895c-20.043-47.387-48.729-89.938-85.26-126.469
		c-36.532-36.532-79.082-65.218-126.47-85.261C-530.773-129.882-582.887-140.408-636.589-140.408L-636.589-140.408z"/>
</g>
<g>
	<path d="M-636.589-38.187c163.305,0,295.688,132.383,295.688,295.688c0,163.303-132.384,295.686-295.688,295.686
		c-163.305,0-295.688-132.383-295.688-295.686C-932.277,94.197-799.895-38.187-636.589-38.187 M-636.589-73.187
		c-44.627,0-87.938,8.748-128.73,26.001c-39.382,16.657-74.744,40.496-105.102,70.854s-54.197,65.72-70.854,105.102
		c-17.253,40.792-26.001,84.103-26.001,128.729s8.748,87.938,26.001,128.729c16.657,39.382,40.496,74.743,70.854,105.102
		s65.72,54.197,105.102,70.854c40.792,17.253,84.103,26.001,128.73,26.001c44.627,0,87.938-8.748,128.729-26.001
		c39.383-16.657,74.744-40.496,105.103-70.854s54.197-65.72,70.854-105.102c17.254-40.791,26.002-84.102,26.002-128.729
		s-8.748-87.938-26.002-128.729c-16.656-39.382-40.496-74.744-70.854-105.102s-65.72-54.197-105.103-70.854
		C-548.651-64.438-591.962-73.187-636.589-73.187L-636.589-73.187z"/>
</g>
<path d="M247.229,134.705C239.411,127.035,84.014-18.701,84.014-18.701S52.531-52.461-2.742-52.789
	C-58.016-53.086-94.89-15.926-94.89-15.926s-40.2,35.92-38.061,91.84c2.14,55.867,31.927,85.357,32.837,85.961
	C-99.17,162.5,54.84,319.593,54.84,319.593s9.683,8.889,18.75,0c9.047-8.929,173.639-167.367,173.639-167.367
	S255.078,142.374,247.229,134.705z M216.224,146.114c-2.235,1.959-150.069,144.445-150.069,144.445s-2.035,2.34-4.291,0
	c-2.277-2.331-147.506-150.79-147.506-150.79s-22.732-27.626-21.102-64.49C-105.112,38.437-85.961-20.216-3.77-27.282
	c0,0,41.365,0.805,68.387,25.804C91.63,23.5,216.224,141.314,216.224,141.314S218.479,144.175,216.224,146.114z"/>
<path d="M-44.5,90.596L-44.5,90.596c-5.444-5.445-14.258-5.445-19.691,0c-5.413,5.444-5.413,14.257,0,19.703L41.536,216.895v-0.052
	v0.052c5.444,5.414,14.258,5.414,19.681-0.052c5.424-5.446,5.424-14.228-0.021-19.683l0,0l0,0L-44.5,90.596z"/>
<path d="M264.75,152.226c0,0,164.613,158.438,173.67,167.367c9.057,8.889,18.74,0,18.74,0S611.158,162.5,612.068,161.875
	c0.965-0.604,30.752-30.094,32.881-85.961c2.162-55.92-38.059-91.84-38.059-91.84s-36.854-37.16-92.182-36.863
	c-55.23,0.328-86.713,34.088-86.713,34.088S272.609,127.035,264.75,134.705C256.932,142.374,264.75,152.226,264.75,152.226z
	 M295.818,141.314c0,0,124.541-117.814,151.574-142.792c27.033-24.999,68.418-25.804,68.418-25.804
	c82.148,7.065,101.301,65.719,102.941,102.561c1.664,36.863-21.078,64.49-21.078,64.49s-145.281,148.459-147.518,150.79
	c-2.256,2.34-4.311,0-4.311,0S298.064,148.073,295.818,146.114C293.563,144.175,295.818,141.314,295.818,141.314z"/>
<path d="M556.51,90.596L556.51,90.596c5.434-5.445,14.279-5.445,19.691,0c5.424,5.444,5.424,14.257,0,19.703L470.496,216.895v-0.052
	v0.052c-5.457,5.414-14.26,5.414-19.725-0.052c-5.424-5.446-5.424-14.228,0.031-19.683l0,0l0,0L556.51,90.596z"/>
<path d="M211.943,323.801c0,11.716-9.522,21.228-21.228,21.228c-11.727,0-21.239-9.512-21.239-21.228
	c0-11.77,9.513-21.282,21.239-21.282C202.421,302.519,211.943,312.031,211.943,323.801z"/>
<path d="M303.742,318.875c0,11.716-9.514,21.228-21.186,21.228c-11.748,0-21.26-9.512-21.26-21.228
	c0-11.77,9.512-21.271,21.26-21.271C294.229,297.604,303.742,307.105,303.742,318.875z"/>
<path d="M368.484,366.267c0,11.716-9.533,21.26-21.27,21.26c-11.693,0-21.195-9.544-21.195-21.26
	c0-11.737,9.502-21.238,21.195-21.238C358.951,345.028,368.484,354.529,368.484,366.267z"/>
<path d="M303.742,408.724c0,11.757-9.514,21.28-21.186,21.28c-11.748,0-21.26-9.523-21.26-21.28c0-11.674,9.512-21.197,21.26-21.197
	C294.229,387.526,303.742,397.05,303.742,408.724z"/>
<path d="M211.943,394.794c0,11.716-9.522,21.271-21.228,21.271c-11.727,0-21.239-9.556-21.239-21.271
	c0-11.77,9.513-21.271,21.239-21.271C202.421,373.523,211.943,383.024,211.943,394.794z"/>
<path d="M141.522,458.659c0,11.716-9.502,21.228-21.239,21.228c-11.736,0-21.249-9.512-21.249-21.228
	c0-11.737,9.513-21.24,21.249-21.24C132.021,437.419,141.522,446.922,141.522,458.659z"/>
<path d="M261.297,470.121c0,11.726-9.514,21.269-21.262,21.269c-11.715,0-21.228-9.543-21.228-21.269
	c0-11.718,9.513-21.23,21.228-21.23C251.783,448.891,261.297,458.403,261.297,470.121z"/>
<path d="M354.629,494.695c0,11.716-9.512,21.228-21.195,21.228c-11.77,0-21.26-9.512-21.26-21.228
	c0-11.715,9.49-21.228,21.26-21.228C345.117,473.468,354.629,482.98,354.629,494.695z"/>
<path d="M317.787,548.751c0,11.716-9.5,21.228-21.227,21.228c-11.77,0-21.26-9.512-21.26-21.228c0-11.727,9.49-21.228,21.26-21.228
	C308.287,527.523,317.787,537.024,317.787,548.751z"/>
<path d="M211.943,552.671c0,11.727-9.522,21.228-21.228,21.228c-11.727,0-21.239-9.501-21.239-21.228
	c0-11.726,9.513-21.229,21.239-21.229C202.421,531.441,211.943,540.945,211.943,552.671z"/>
<g>
	<g>
		<path d="M766.16,1058.207l79.182,45.24v93.646l-79.643,45.711l-79.596-47.508v-91.85L766.16,1058.207 M766.16,1028.207
			c-5.09,0-10.178,1.293-14.759,3.882l-80.058,45.239c-9.417,5.322-15.24,15.302-15.24,26.119v91.85
			c0,10.563,5.555,20.348,14.625,25.762l79.596,47.508c4.732,2.824,10.053,4.238,15.375,4.238c5.152,0,10.307-1.324,14.934-3.98
			l79.643-45.711c9.319-5.35,15.066-15.273,15.066-26.02v-93.646c0-10.768-5.77-20.707-15.117-26.049l-79.182-45.24
			C776.434,1029.525,771.297,1028.207,766.16,1028.207L766.16,1028.207z"/>
	</g>
	<g>
		<path d="M861.717,1221.982l79.137,45.24v93.646l-79.598,45.689l-79.641-47.486v-91.85L861.717,1221.982 M861.717,1191.982
			c-5.088,0-10.174,1.293-14.753,3.879l-80.103,45.238c-9.42,5.322-15.246,15.303-15.246,26.123v91.85
			c0,10.566,5.559,20.355,14.636,25.768l79.642,47.486c4.729,2.818,10.046,4.232,15.363,4.232c5.153,0,10.307-1.326,14.936-3.982
			l79.596-45.689c9.319-5.35,15.066-15.273,15.066-26.018v-93.646c0-10.764-5.768-20.703-15.111-26.045l-79.137-45.24
			C871.994,1193.303,866.855,1191.982,861.717,1191.982L861.717,1191.982z"/>
	</g>
	<g>
		<path d="M1142.578,1058.207l79.158,45.24v93.646l-79.607,45.711l-79.629-47.508v-91.85L1142.578,1058.207 M1142.578,1028.207
			c-5.09,0-10.178,1.293-14.756,3.88l-80.08,45.239c-9.418,5.322-15.242,15.303-15.242,26.121v91.85
			c0,10.564,5.557,20.352,14.629,25.764l79.629,47.508c4.732,2.822,10.051,4.236,15.371,4.236c5.154,0,10.311-1.326,14.939-3.982
			l79.607-45.713c9.316-5.35,15.061-15.271,15.061-26.016v-93.646c0-10.766-5.768-20.705-15.113-26.047l-79.16-45.24
			C1152.854,1029.525,1147.715,1028.207,1142.578,1028.207L1142.578,1028.207z"/>
	</g>
	<g>
		<path d="M954.353,1058.207l79.192,45.24v93.646l-79.631,45.711l-79.619-47.508v-91.85L954.353,1058.207 M954.353,1028.207
			c-5.089,0-10.179,1.293-14.759,3.882l-80.058,45.239c-9.417,5.322-15.241,15.302-15.241,26.119v91.85
			c0,10.564,5.557,20.35,14.629,25.764l79.619,47.508c4.731,2.822,10.051,4.236,15.372,4.236c5.152,0,10.308-1.326,14.935-3.982
			l79.631-45.711c9.318-5.348,15.064-15.273,15.064-26.018v-93.646c0-10.768-5.77-20.709-15.119-26.049l-79.191-45.24
			C964.624,1029.524,959.488,1028.207,954.353,1028.207L954.353,1028.207z"/>
	</g>
	<g>
		<path d="M677.5,1223.779l79.159,45.262v93.648l-79.619,45.688l-79.597-47.508v-91.828L677.5,1223.779 M677.5,1193.779
			c-5.092,0-10.182,1.295-14.764,3.885l-80.058,45.262c-9.415,5.322-15.235,15.301-15.235,26.115v91.828
			c0,10.563,5.555,20.346,14.625,25.76l79.596,47.51c4.732,2.824,10.054,4.238,15.377,4.238c5.15,0,10.304-1.324,14.93-3.979
			l79.619-45.688c9.321-5.35,15.069-15.275,15.069-26.021v-93.648c0-10.762-5.766-20.701-15.108-26.043l-79.159-45.262
			C687.779,1195.1,682.64,1193.779,677.5,1193.779L677.5,1193.779z"/>
	</g>
	
		<polyline fill="none" stroke="#000000" stroke-width="30" stroke-linecap="round" stroke-linejoin="round" stroke-miterlimit="10" points="
		1142.578,1043.854 1142.578,932.888 1237.574,878.596 1330.77,931.967 	"/>
	
		<polyline fill="none" stroke="#000000" stroke-width="30" stroke-linecap="round" stroke-linejoin="round" stroke-miterlimit="10" points="
		954.353,1042.057 954.353,931.08 859.358,876.799 	"/>
	<g>
		
			<polyline fill="none" stroke="#000000" stroke-width="30" stroke-linecap="round" stroke-linejoin="round" stroke-miterlimit="10" points="
			1280.791,990.584 1280.791,1017.942 1280.791,1047.134 		"/>
		
			<polyline fill="none" stroke="#000000" stroke-width="30" stroke-linecap="round" stroke-linejoin="round" stroke-miterlimit="10" points="
			1333.264,990.584 1333.264,1017.942 1333.264,1047.134 		"/>
		
			<line fill="none" stroke="#000000" stroke-width="30" stroke-linejoin="round" stroke-miterlimit="10" x1="1280.791" y1="1017.942" x2="1332.803" y2="1017.942"/>
	</g>
	<g>
		
			<polyline fill="none" stroke="#000000" stroke-width="30" stroke-linecap="round" stroke-linejoin="round" stroke-miterlimit="10" points="
			755.379,915.03 755.379,942.39 755.379,971.568 		"/>
		
			<polyline fill="none" stroke="#000000" stroke-width="30" stroke-linecap="round" stroke-linejoin="round" stroke-miterlimit="10" points="
			807.852,915.03 807.852,942.39 807.852,971.568 		"/>
		
			<line fill="none" stroke="#000000" stroke-width="30" stroke-linejoin="round" stroke-miterlimit="10" x1="755.379" y1="942.39" x2="807.402" y2="942.39"/>
	</g>
	<g>
		
			<polyline fill="none" stroke="#000000" stroke-width="30" stroke-linecap="round" stroke-linejoin="round" stroke-miterlimit="10" points="
			1036.25,1321.289 1036.25,1348.672 1036.25,1377.852 		"/>
		
			<polyline fill="none" stroke="#000000" stroke-width="30" stroke-linecap="round" stroke-linejoin="round" stroke-miterlimit="10" points="
			1088.736,1321.289 1088.736,1348.672 1088.736,1377.852 		"/>
		
			<line fill="none" stroke="#000000" stroke-width="30" stroke-linejoin="round" stroke-miterlimit="10" x1="1036.25" y1="1348.672" x2="1088.287" y2="1348.672"/>
	</g>
</g>
</svg>
