<?xml version="1.0" encoding="utf-8"?>
<!-- Generator: Adobe Illustrator 15.0.0, SVG Export Plug-In . SVG Version: 6.00 Build 0)  -->
<!DOCTYPE svg PUBLIC "-//W3C//DTD SVG 1.1//EN" "http://www.w3.org/Graphics/SVG/1.1/DTD/svg11.dtd">
<svg version="1.1" id="Layer_1" xmlns="http://www.w3.org/2000/svg" xmlns:xlink="http://www.w3.org/1999/xlink" x="0px" y="0px"
	 width="812px" height="812px" viewBox="-150 -150 812 812" enable-background="new -150 -150 812 812" xml:space="preserve">
<g>
	<path d="M-636.589-105.408c200.43,0,362.908,162.48,362.908,362.909S-436.16,620.406-636.589,620.406
		S-999.498,457.93-999.498,257.501S-837.019-105.408-636.589-105.408 M-636.589-140.408c-53.702,0-105.816,10.525-154.895,31.284
		c-47.387,20.043-89.937,48.729-126.469,85.261c-36.532,36.532-65.218,79.082-85.261,126.469
		c-20.758,49.079-31.284,101.193-31.284,154.895c0,53.702,10.525,105.815,31.284,154.895
		c20.043,47.386,48.729,89.937,85.261,126.468s79.082,65.217,126.469,85.26c49.078,20.758,101.192,31.283,154.895,31.283
		s105.816-10.525,154.895-31.283c47.387-20.043,89.938-48.729,126.47-85.26c36.531-36.531,65.217-79.082,85.26-126.468
		c20.759-49.079,31.284-101.192,31.284-154.895c0-53.702-10.525-105.816-31.284-154.895c-20.043-47.387-48.729-89.938-85.26-126.469
		c-36.532-36.532-79.082-65.218-126.47-85.261C-530.773-129.882-582.887-140.408-636.589-140.408L-636.589-140.408z"/>
</g>
<g>
	<path d="M-636.589-38.187c163.305,0,295.688,132.383,295.688,295.688c0,163.303-132.384,295.686-295.688,295.686
		c-163.305,0-295.688-132.383-295.688-295.686C-932.277,94.197-799.895-38.187-636.589-38.187 M-636.589-73.187
		c-44.627,0-87.938,8.748-128.73,26.001c-39.382,16.657-74.744,40.496-105.102,70.854s-54.197,65.72-70.854,105.102
		c-17.253,40.792-26.001,84.103-26.001,128.729s8.748,87.938,26.001,128.729c16.657,39.382,40.496,74.743,70.854,105.102
		s65.72,54.197,105.102,70.854c40.792,17.253,84.103,26.001,128.73,26.001c44.627,0,87.938-8.748,128.729-26.001
		c39.383-16.657,74.744-40.496,105.103-70.854s54.197-65.72,70.854-105.102c17.254-40.791,26.002-84.102,26.002-128.729
		s-8.748-87.938-26.002-128.729c-16.656-39.382-40.496-74.744-70.854-105.102s-65.72-54.197-105.103-70.854
		C-548.651-64.438-591.962-73.187-636.589-73.187L-636.589-73.187z"/>
</g>
<g>
	<path d="M1566.386,193.004c-7.817-7.669-163.215-153.406-163.215-153.406s-31.482-33.76-86.756-34.088
		c-55.273-0.297-92.147,36.863-92.147,36.863s-40.2,35.92-38.061,91.84c2.14,55.867,31.927,85.357,32.837,85.961
		c0.943,0.625,154.953,157.718,154.953,157.718s9.683,8.889,18.75,0c9.047-8.93,173.639-167.368,173.639-167.368
		S1574.235,200.673,1566.386,193.004z M1535.381,204.413c-2.235,1.959-150.069,144.444-150.069,144.444s-2.035,2.34-4.291,0
		c-2.277-2.33-147.506-150.79-147.506-150.79s-22.732-27.626-21.102-64.49c1.632-36.842,20.783-95.495,102.975-102.561
		c0,0,41.365,0.805,68.387,25.804c27.013,24.978,151.606,142.792,151.606,142.792S1537.637,202.475,1535.381,204.413z"/>
	<path d="M1274.657,148.896L1274.657,148.896c-5.444-5.445-14.258-5.445-19.691,0c-5.413,5.444-5.413,14.257,0,19.703
		l105.728,106.596v-0.052v0.052c5.444,5.413,14.258,5.413,19.681-0.052c5.424-5.445,5.424-14.228-0.021-19.683l0,0l0,0
		L1274.657,148.896z"/>
	<path d="M1583.907,210.525c0,0,164.613,158.438,173.67,167.368c9.057,8.889,18.74,0,18.74,0s153.998-157.093,154.908-157.718
		c0.965-0.604,30.752-30.094,32.881-85.961c2.162-55.92-38.059-91.84-38.059-91.84s-36.854-37.16-92.182-36.863
		c-55.23,0.328-86.713,34.088-86.713,34.088s-155.387,145.736-163.246,153.406C1576.089,200.673,1583.907,210.525,1583.907,210.525z
		 M1614.976,199.614c0,0,124.541-117.814,151.574-142.792c27.033-24.999,68.418-25.804,68.418-25.804
		c82.148,7.065,101.301,65.719,102.941,102.561c1.664,36.863-21.078,64.49-21.078,64.49s-145.281,148.459-147.518,150.79
		c-2.256,2.34-4.311,0-4.311,0s-147.781-142.485-150.027-144.444C1612.72,202.475,1614.976,199.614,1614.976,199.614z"/>
	<path d="M1875.667,148.896L1875.667,148.896c5.434-5.445,14.279-5.445,19.691,0c5.424,5.444,5.424,14.257,0,19.703
		l-105.705,106.596v-0.052v0.052c-5.457,5.413-14.26,5.413-19.725-0.052c-5.424-5.445-5.424-14.228,0.031-19.683l0,0l0,0
		L1875.667,148.896z"/>
	<path d="M1531.101,382.1c0,11.717-9.522,21.229-21.228,21.229c-11.727,0-21.239-9.512-21.239-21.229
		c0-11.77,9.513-21.281,21.239-21.281C1521.578,360.818,1531.101,370.33,1531.101,382.1z"/>
	<path d="M1622.899,377.174c0,11.717-9.514,21.229-21.186,21.229c-11.748,0-21.26-9.512-21.26-21.229
		c0-11.77,9.512-21.27,21.26-21.27C1613.386,355.904,1622.899,365.404,1622.899,377.174z"/>
	<path d="M1687.642,424.566c0,11.715-9.533,21.26-21.27,21.26c-11.693,0-21.195-9.545-21.195-21.26
		c0-11.738,9.502-21.238,21.195-21.238C1678.108,403.328,1687.642,412.828,1687.642,424.566z"/>
	<path d="M1622.899,467.023c0,11.756-9.514,21.279-21.186,21.279c-11.748,0-21.26-9.523-21.26-21.279
		c0-11.674,9.512-21.197,21.26-21.197C1613.386,445.826,1622.899,455.35,1622.899,467.023z"/>
	<path d="M1531.101,453.094c0,11.715-9.522,21.271-21.228,21.271c-11.727,0-21.239-9.557-21.239-21.271
		c0-11.77,9.513-21.271,21.239-21.271C1521.578,431.822,1531.101,441.324,1531.101,453.094z"/>
	<path d="M1460.68,516.959c0,11.715-9.502,21.227-21.239,21.227c-11.736,0-21.249-9.512-21.249-21.227
		c0-11.738,9.513-21.24,21.249-21.24C1451.178,495.719,1460.68,505.221,1460.68,516.959z"/>
	<path d="M1580.454,528.42c0,11.727-9.514,21.27-21.262,21.27c-11.715,0-21.228-9.543-21.228-21.27
		c0-11.717,9.513-21.23,21.228-21.23C1570.94,507.189,1580.454,516.703,1580.454,528.42z"/>
	<path d="M1673.786,552.994c0,11.717-9.512,21.229-21.195,21.229c-11.77,0-21.26-9.512-21.26-21.229
		c0-11.715,9.49-21.227,21.26-21.227C1664.274,531.768,1673.786,541.279,1673.786,552.994z"/>
	<path d="M1636.944,607.051c0,11.715-9.5,21.227-21.227,21.227c-11.77,0-21.26-9.512-21.26-21.227
		c0-11.727,9.49-21.229,21.26-21.229C1627.444,585.822,1636.944,595.324,1636.944,607.051z"/>
	<path d="M1531.101,610.971c0,11.727-9.522,21.227-21.228,21.227c-11.727,0-21.239-9.5-21.239-21.227s9.513-21.23,21.239-21.23
		C1521.578,589.74,1531.101,599.244,1531.101,610.971z"/>
</g>
<g>
	<g>
		<path d="M955.689,848.262l81.301,46.451v96.15l-81.773,46.934l-81.725-48.778v-94.306L955.689,848.262 M955.689,818.262
			c-5.09,0-10.178,1.293-14.76,3.882l-82.197,46.45c-9.417,5.322-15.24,15.302-15.24,26.119v94.306
			c0,10.563,5.555,20.347,14.625,25.761l81.725,48.778c4.732,2.824,10.053,4.239,15.376,4.239c5.152,0,10.306-1.325,14.933-3.981
			l81.773-46.934c9.318-5.349,15.066-15.273,15.066-26.019v-96.15c0-10.767-5.77-20.707-15.117-26.049l-81.301-46.451
			C965.963,819.58,960.826,818.262,955.689,818.262L955.689,818.262z"/>
	</g>
	<g>
		<path d="M1053.803,1016.418l81.254,46.45v96.152l-81.727,46.911l-81.771-48.757v-94.307L1053.803,1016.418 M1053.803,986.418
			c-5.087,0-10.174,1.292-14.752,3.878l-82.245,46.45c-9.421,5.321-15.247,15.303-15.247,26.122v94.307
			c0,10.567,5.56,20.355,14.637,25.768l81.771,48.757c4.729,2.819,10.046,4.232,15.363,4.232c5.153,0,10.307-1.325,14.935-3.981
			l81.728-46.911c9.318-5.35,15.065-15.273,15.065-26.019v-96.152c0-10.764-5.767-20.702-15.111-26.045l-81.254-46.45
			C1064.08,987.737,1058.941,986.418,1053.803,986.418L1053.803,986.418z"/>
	</g>
	<g>
		<path d="M1342.178,848.262l81.276,46.451v96.15l-81.737,46.934l-81.76-48.778v-94.306L1342.178,848.262 M1342.178,818.262
			c-5.089,0-10.177,1.293-14.757,3.88l-82.221,46.45c-9.419,5.322-15.243,15.303-15.243,26.121v94.306
			c0,10.564,5.557,20.351,14.63,25.764l81.76,48.778c4.73,2.822,10.05,4.236,15.37,4.236c5.154,0,10.311-1.326,14.938-3.983
			l81.737-46.934c9.316-5.35,15.062-15.273,15.062-26.017v-96.15c0-10.766-5.768-20.705-15.114-26.047l-81.276-46.451
			C1352.453,819.58,1347.314,818.262,1342.178,818.262L1342.178,818.262z"/>
	</g>
	<g>
		<path d="M1148.918,848.262l81.311,46.451v96.15l-81.762,46.934l-81.749-48.778v-94.306L1148.918,848.262 M1148.918,818.262
			c-5.09,0-10.18,1.293-14.76,3.882l-82.199,46.45c-9.418,5.322-15.241,15.302-15.241,26.119v94.306
			c0,10.564,5.556,20.35,14.628,25.763l81.75,48.778c4.731,2.823,10.051,4.237,15.372,4.237c5.152,0,10.308-1.326,14.935-3.981
			l81.762-46.934c9.318-5.35,15.064-15.273,15.064-26.019v-96.15c0-10.768-5.77-20.709-15.119-26.05l-81.311-46.45
			C1159.188,819.579,1154.053,818.262,1148.918,818.262L1148.918,818.262z"/>
	</g>
	<g>
		<path d="M864.658,1018.263l81.277,46.473v96.154l-81.75,46.909l-81.726-48.778v-94.285L864.658,1018.263 M864.658,988.263
			c-5.092,0-10.183,1.294-14.765,3.885l-82.198,46.473c-9.414,5.322-15.235,15.301-15.235,26.115v94.285
			c0,10.563,5.555,20.347,14.625,25.761l81.726,48.778c4.732,2.824,10.053,4.239,15.376,4.239c5.151,0,10.304-1.325,14.931-3.979
			l81.749-46.909c9.321-5.349,15.069-15.274,15.069-26.021v-96.154c0-10.763-5.766-20.701-15.109-26.043l-81.277-46.473
			C874.938,989.582,869.797,988.263,864.658,988.263L864.658,988.263z"/>
	</g>
	
		<polyline fill="none" stroke="#000000" stroke-width="30" stroke-linecap="round" stroke-linejoin="round" stroke-miterlimit="10" points="
		1342.178,833.525 1342.178,719.59 1439.715,663.846 1535.404,718.645 	"/>
	
		<polyline fill="none" stroke="#000000" stroke-width="30" stroke-linecap="round" stroke-linejoin="round" stroke-miterlimit="10" points="
		1148.918,831.68 1148.918,717.734 1051.381,662 	"/>
	<g>
		
			<polyline fill="none" stroke="#000000" stroke-width="30" stroke-linecap="round" stroke-linejoin="round" stroke-miterlimit="10" points="
			1484.088,778.83 1484.088,806.92 1484.088,836.893 		"/>
		
			<polyline fill="none" stroke="#000000" stroke-width="30" stroke-linecap="round" stroke-linejoin="round" stroke-miterlimit="10" points="
			1537.965,778.83 1537.965,806.92 1537.965,836.893 		"/>
		
			<line fill="none" stroke="#000000" stroke-width="30" stroke-linejoin="round" stroke-miterlimit="10" x1="1484.088" y1="806.92" x2="1537.491" y2="806.92"/>
	</g>
	<g>
		
			<polyline fill="none" stroke="#000000" stroke-width="30" stroke-linecap="round" stroke-linejoin="round" stroke-miterlimit="10" points="
			944.62,701.255 944.62,729.346 944.62,759.305 		"/>
		
			<polyline fill="none" stroke="#000000" stroke-width="30" stroke-linecap="round" stroke-linejoin="round" stroke-miterlimit="10" points="
			998.497,701.255 998.497,729.346 998.497,759.305 		"/>
		
			<line fill="none" stroke="#000000" stroke-width="30" stroke-linejoin="round" stroke-miterlimit="10" x1="944.62" y1="729.346" x2="998.035" y2="729.346"/>
	</g>
	<g>
		
			<polyline fill="none" stroke="#000000" stroke-width="30" stroke-linecap="round" stroke-linejoin="round" stroke-miterlimit="10" points="
			1233.006,1118.382 1233.006,1146.497 1233.006,1176.457 		"/>
		
			<polyline fill="none" stroke="#000000" stroke-width="30" stroke-linecap="round" stroke-linejoin="round" stroke-miterlimit="10" points="
			1286.896,1118.382 1286.896,1146.497 1286.896,1176.457 		"/>
		
			<line fill="none" stroke="#000000" stroke-width="30" stroke-linejoin="round" stroke-miterlimit="10" x1="1233.006" y1="1146.497" x2="1286.435" y2="1146.497"/>
	</g>
</g>
<g>
	<path d="M-265.125,933.054c0,0-35.161-50.749-42.032-103.492c0,0,1.744-16.764-17.736-15.534
		c-19.477,1.281-54.59,1.079-54.59,1.079s-22.4-1.542-18.608,25.22c3.792,26.704,9.329,118.56,35.473,147.061
		c0,0-43.775,40.855-53.924,110.055c-10.253,69.305-20.762,234.459-81.605,267.268c0,0-24.709,22.657-32.091,37.161
		c-7.382,14.561-19.886,22.454-35.677,25.018c-15.785,2.51-80.218,29.778-77.708,92.934c2.563,63.151,10.456,80.989,32.087,77.708
		c0,0,22.454-5.589,18.354-28.501c-4.101-22.965-1.026-86.627,54.025-83.553c54.95,3.025,59.936,40.22,136.966,42.238
		c84.646,2.218,328.646-90.782,363.941-363.738C-38.251,1163.976-24.546,919.932-265.125,933.054z M-296.186,1468.664
		c-68.813,30.48-112.926,36.288-157.469,15.891c-44.393-20.3-58.333-65.204-28.81-89.296
		c29.528-24.093,82.888-84.526,91.552-200.782c6.968-94.523,4.559-149.678,70.225-200.117c0,0-38.345-60.023-36.5-100.365h5.127
		c0,0,15.993,53.409,49.106,86.676c33.01,33.219,86.423,85.248,76.893,133.072c-9.536,47.925-25.837,94.11-45.521,109.693
		l21.019,19.736c0,0,51.153-60.843,53.205-129.531c2.049-68.842-48.132-115.691-69.814-136.556c0,0-10.201-6.87,3.589-9.175
		c13.733-2.255,87.755-16.815,137.68,47.313c49.929,64.227,76.276,145.269,27.885,250.196
		C-146.46,1370.347-224.546,1436.932-296.186,1468.664z"/>
	<path d="M-254.924,1249.629l-20.401,38.649l-13.584,76.123c0,0,0.718,14.556-14.045,5.738
		c-14.866-8.866-94.623-58.844-94.623-58.844s-5.078-6.716,0-12.099c5.123-5.483,88.984-38.751,88.984-38.751l31.576-30.549
		L-254.924,1249.629z"/>
</g>
<polyline fill="none" stroke="#000000" stroke-width="30" stroke-linecap="round" stroke-linejoin="round" stroke-miterlimit="10" points="
	1622.898,1254.496 1761.574,1254.496 1817.737,1122.565 1909.625,1491.782 2021.912,920.08 2113.82,1264.687 2202.287,1063.876 
	2261.832,1235.747 2397.125,1235.747 "/>
<g>
	<g>
		<path fill="none" stroke="#000000" stroke-width="25" stroke-miterlimit="10" d="M355.224,558.021
			c0,0,74.773-21.137,115.216-91.916"/>
		<g>
			<path fill="none" stroke="#000000" stroke-width="25" stroke-miterlimit="10" d="M496.904,396.722
				c0,0,31.307-110.515-56.002-218.569"/>
			<path fill="none" stroke="#000000" stroke-width="25" stroke-miterlimit="10" d="M486.813,130.534
				c0,0,168.538,121.264,74.132,335.571"/>
			<path fill="none" stroke="#000000" stroke-width="25" stroke-miterlimit="10" d="M481.988,78.245
				c0,0,158.901,43.513,156.989,267.021c-1.943,223.364-144.454,212.756-144.454,212.756"/>
		</g>
	</g>
	<g>
		<polyline fill="none" stroke="#000000" stroke-width="25" stroke-miterlimit="10" points="357.793,153.599 292.626,273.358 
			140.148,182.853 254.721,15.851 341.403,66.619 		"/>
		<polyline fill="none" stroke="#000000" stroke-width="25" stroke-miterlimit="10" points="272.458,261.403 245.742,306.014 
			137.578,238.667 164.2,197.049 		"/>
		<polyline fill="none" stroke="#000000" stroke-width="25" stroke-miterlimit="10" points="275.938,24.516 365.001,-124.655 
			452.623,-74.122 391.968,29.89 		"/>
		
			<line fill="none" stroke="#000000" stroke-width="25" stroke-miterlimit="10" x1="344.13" y1="-77.318" x2="423.103" y2="-29.167"/>
	</g>
</g>
<g>
	<g>
		<path d="M413.639,15.851c-48.418,0-87.639,39.282-87.639,87.638c0,48.464,39.221,87.653,87.639,87.653
			c48.386,0,87.622-39.188,87.622-87.653C501.261,55.133,462.024,15.851,413.639,15.851z M413.639,166.134
			c-34.566,0-62.584-28.047-62.584-62.645c0-34.583,28.018-62.552,62.584-62.552s62.582,27.97,62.582,62.552
			C476.221,138.086,448.205,166.134,413.639,166.134z"/>
		<path d="M413.639,64.488c-21.546,0-39.017,17.55-39.017,39.001c0,21.607,17.471,39.063,39.017,39.063
			c21.528,0,38.984-17.456,38.984-39.063C452.623,82.038,435.167,64.488,413.639,64.488z M413.639,115.805
			c-6.77,0-12.254-5.578-12.254-12.315c0-6.723,5.484-12.16,12.254-12.16c6.737,0,12.19,5.437,12.19,12.16
			C425.829,110.227,420.376,115.805,413.639,115.805z"/>
	</g>
	<path d="M567.463,545.033H85.979c-28.064,0-50.8,22.766-50.8,50.829c0,28.049,22.736,50.722,50.8,50.722h481.483
		c28.049,0,50.8-22.673,50.8-50.722C618.263,567.799,595.512,545.033,567.463,545.033z M566.318,620.762H85.181
		c-13.79,0-24.945-11.142-24.945-24.899c0-13.772,11.156-25.007,24.945-25.007h481.138c13.821,0,24.978,11.234,24.978,25.007
		C591.296,609.62,580.14,620.762,566.318,620.762z"/>
	<path d="M477.663,381.807c-12.441,0-23.787,4.59-32.545,12.048H148.327c-21.027,0-38.028,17.019-38.028,38.047
		c0,21.026,17.001,38.027,38.028,38.027h296.792c8.758,7.554,20.104,12.065,32.545,12.065c27.656,0,50.079-22.437,50.079-50.093
		C527.742,404.229,505.319,381.807,477.663,381.807z M147.92,444.45c-6.895,0-12.505-5.624-12.505-12.549
		c0-6.927,5.61-12.551,12.505-12.551h281.262c-1.034,4.073-1.599,8.194-1.599,12.551c0,4.308,0.564,8.475,1.599,12.549H147.92z
		 M477.663,455.984c-13.288,0-24.068-10.812-24.068-24.083c0-13.273,10.78-24.085,24.068-24.085
		c13.287,0,24.067,10.812,24.067,24.085C501.73,445.173,490.95,455.984,477.663,455.984z"/>
	<g>
		<path d="M22.441,27.18c-35.381,0-64.025,28.737-64.025,64.055c0,35.319,28.644,64.056,64.025,64.056
			c35.365,0,64.023-28.737,64.023-64.056C86.464,55.917,57.806,27.18,22.441,27.18z M22.441,129.516
			c-21.154,0-38.312-17.159-38.312-38.281c0-21.122,17.157-38.28,38.312-38.28c21.122,0,38.263,17.158,38.263,38.28
			C60.705,112.357,43.563,129.516,22.441,129.516z"/>
		<rect x="9.435" y="78.245" width="25.98" height="26.026"/>
		<rect x="160.862" y="-48.111" width="25.98" height="25.979"/>
		<rect x="-41.583" y="-10.082" width="25.979" height="25.933"/>
		<rect x="147.857" y="55.243" width="25.979" height="25.916"/>
		<rect x="73.46" y="178.152" width="25.98" height="26.026"/>
		<path d="M58.95,229.281c-19.899-1.41-35.648-17.878-35.648-38.139H-2.474c0,34.551,27.28,62.598,61.424,63.962V229.281z"/>
		<path d="M22.441-32.755c19.899-1.395,35.631-17.925,35.631-38.217h25.744c0,34.488-27.249,62.646-61.375,64.04V-32.755z"/>
		<path d="M185.62,271.525c-26.982,13.366-57.38,20.935-89.564,20.935c-111.127,0-201.24-90.036-201.24-201.225
			c0-111.188,90.113-201.224,201.24-201.224c81.636,0,151.897,48.606,183.486,118.381l15.528-26.951
			C256.335-88.616,181.733-136,96.055-136C-29.456-136-131.211-34.259-131.211,91.235c0,125.495,101.755,227.235,227.267,227.235
			c41.617,0,80.602-11.141,114.15-30.711L185.62,271.525z"/>
	</g>
</g>
</svg>
