<?xml version="1.0" encoding="utf-8"?>
<!-- Generator: Adobe Illustrator 15.0.0, SVG Export Plug-In . SVG Version: 6.00 Build 0)  -->
<!DOCTYPE svg PUBLIC "-//W3C//DTD SVG 1.1//EN" "http://www.w3.org/Graphics/SVG/1.1/DTD/svg11.dtd">
<svg version="1.1" id="Layer_1" xmlns="http://www.w3.org/2000/svg" xmlns:xlink="http://www.w3.org/1999/xlink" x="0px" y="0px"
	 width="812px" height="812px" viewBox="-150 -150 812 812" enable-background="new -150 -150 812 812" xml:space="preserve">
<g>
	<path d="M-636.589-105.408c200.43,0,362.908,162.48,362.908,362.909S-436.16,620.406-636.589,620.406
		S-999.498,457.93-999.498,257.501S-837.019-105.408-636.589-105.408 M-636.589-140.408c-53.702,0-105.816,10.525-154.895,31.284
		c-47.387,20.043-89.937,48.729-126.469,85.261c-36.532,36.532-65.218,79.082-85.261,126.469
		c-20.758,49.079-31.284,101.193-31.284,154.895c0,53.702,10.525,105.815,31.284,154.895
		c20.043,47.386,48.729,89.937,85.261,126.468s79.082,65.217,126.469,85.26c49.078,20.758,101.192,31.283,154.895,31.283
		s105.816-10.525,154.895-31.283c47.387-20.043,89.938-48.729,126.47-85.26c36.531-36.531,65.217-79.082,85.26-126.468
		c20.759-49.079,31.284-101.192,31.284-154.895c0-53.702-10.525-105.816-31.284-154.895c-20.043-47.387-48.729-89.938-85.26-126.469
		c-36.532-36.532-79.082-65.218-126.47-85.261C-530.773-129.882-582.887-140.408-636.589-140.408L-636.589-140.408z"/>
</g>
<g>
	<path d="M-636.589-38.187c163.305,0,295.688,132.383,295.688,295.688c0,163.303-132.384,295.686-295.688,295.686
		c-163.305,0-295.688-132.383-295.688-295.686C-932.277,94.197-799.895-38.187-636.589-38.187 M-636.589-73.187
		c-44.627,0-87.938,8.748-128.73,26.001c-39.382,16.657-74.744,40.496-105.102,70.854s-54.197,65.72-70.854,105.102
		c-17.253,40.792-26.001,84.103-26.001,128.729s8.748,87.938,26.001,128.729c16.657,39.382,40.496,74.743,70.854,105.102
		s65.72,54.197,105.102,70.854c40.792,17.253,84.103,26.001,128.73,26.001c44.627,0,87.938-8.748,128.729-26.001
		c39.383-16.657,74.744-40.496,105.103-70.854s54.197-65.72,70.854-105.102c17.254-40.791,26.002-84.102,26.002-128.729
		s-8.748-87.938-26.002-128.729c-16.656-39.382-40.496-74.744-70.854-105.102s-65.72-54.197-105.103-70.854
		C-548.651-64.438-591.962-73.187-636.589-73.187L-636.589-73.187z"/>
</g>
<g>
	<path d="M1566.386,193.004c-7.817-7.669-163.215-153.406-163.215-153.406s-31.482-33.76-86.756-34.088
		c-55.273-0.297-92.147,36.863-92.147,36.863s-40.2,35.92-38.061,91.84c2.14,55.867,31.927,85.357,32.837,85.961
		c0.943,0.625,154.953,157.718,154.953,157.718s9.683,8.889,18.75,0c9.047-8.93,173.639-167.368,173.639-167.368
		S1574.235,200.673,1566.386,193.004z M1535.381,204.413c-2.235,1.959-150.069,144.444-150.069,144.444s-2.035,2.34-4.291,0
		c-2.277-2.33-147.506-150.79-147.506-150.79s-22.732-27.626-21.102-64.49c1.632-36.842,20.783-95.495,102.975-102.561
		c0,0,41.365,0.805,68.387,25.804c27.013,24.978,151.606,142.792,151.606,142.792S1537.637,202.475,1535.381,204.413z"/>
	<path d="M1274.657,148.896L1274.657,148.896c-5.444-5.445-14.258-5.445-19.691,0c-5.413,5.444-5.413,14.257,0,19.703
		l105.728,106.596v-0.052v0.052c5.444,5.413,14.258,5.413,19.681-0.052c5.424-5.445,5.424-14.228-0.021-19.683l0,0l0,0
		L1274.657,148.896z"/>
	<path d="M1583.907,210.525c0,0,164.613,158.438,173.67,167.368c9.057,8.889,18.74,0,18.74,0s153.998-157.093,154.908-157.718
		c0.965-0.604,30.752-30.094,32.881-85.961c2.162-55.92-38.059-91.84-38.059-91.84s-36.854-37.16-92.182-36.863
		c-55.23,0.328-86.713,34.088-86.713,34.088s-155.387,145.736-163.246,153.406C1576.089,200.673,1583.907,210.525,1583.907,210.525z
		 M1614.976,199.614c0,0,124.541-117.814,151.574-142.792c27.033-24.999,68.418-25.804,68.418-25.804
		c82.148,7.065,101.301,65.719,102.941,102.561c1.664,36.863-21.078,64.49-21.078,64.49s-145.281,148.459-147.518,150.79
		c-2.256,2.34-4.311,0-4.311,0s-147.781-142.485-150.027-144.444C1612.72,202.475,1614.976,199.614,1614.976,199.614z"/>
	<path d="M1875.667,148.896L1875.667,148.896c5.434-5.445,14.279-5.445,19.691,0c5.424,5.444,5.424,14.257,0,19.703
		l-105.705,106.596v-0.052v0.052c-5.457,5.413-14.26,5.413-19.725-0.052c-5.424-5.445-5.424-14.228,0.031-19.683l0,0l0,0
		L1875.667,148.896z"/>
	<path d="M1531.101,382.1c0,11.717-9.522,21.229-21.228,21.229c-11.727,0-21.239-9.512-21.239-21.229
		c0-11.77,9.513-21.281,21.239-21.281C1521.578,360.818,1531.101,370.33,1531.101,382.1z"/>
	<path d="M1622.899,377.174c0,11.717-9.514,21.229-21.186,21.229c-11.748,0-21.26-9.512-21.26-21.229
		c0-11.77,9.512-21.27,21.26-21.27C1613.386,355.904,1622.899,365.404,1622.899,377.174z"/>
	<path d="M1687.642,424.566c0,11.715-9.533,21.26-21.27,21.26c-11.693,0-21.195-9.545-21.195-21.26
		c0-11.738,9.502-21.238,21.195-21.238C1678.108,403.328,1687.642,412.828,1687.642,424.566z"/>
	<path d="M1622.899,467.023c0,11.756-9.514,21.279-21.186,21.279c-11.748,0-21.26-9.523-21.26-21.279
		c0-11.674,9.512-21.197,21.26-21.197C1613.386,445.826,1622.899,455.35,1622.899,467.023z"/>
	<path d="M1531.101,453.094c0,11.715-9.522,21.271-21.228,21.271c-11.727,0-21.239-9.557-21.239-21.271
		c0-11.77,9.513-21.271,21.239-21.271C1521.578,431.822,1531.101,441.324,1531.101,453.094z"/>
	<path d="M1460.68,516.959c0,11.715-9.502,21.227-21.239,21.227c-11.736,0-21.249-9.512-21.249-21.227
		c0-11.738,9.513-21.24,21.249-21.24C1451.178,495.719,1460.68,505.221,1460.68,516.959z"/>
	<path d="M1580.454,528.42c0,11.727-9.514,21.27-21.262,21.27c-11.715,0-21.228-9.543-21.228-21.27
		c0-11.717,9.513-21.23,21.228-21.23C1570.94,507.189,1580.454,516.703,1580.454,528.42z"/>
	<path d="M1673.786,552.994c0,11.717-9.512,21.229-21.195,21.229c-11.77,0-21.26-9.512-21.26-21.229
		c0-11.715,9.49-21.227,21.26-21.227C1664.274,531.768,1673.786,541.279,1673.786,552.994z"/>
	<path d="M1636.944,607.051c0,11.715-9.5,21.227-21.227,21.227c-11.77,0-21.26-9.512-21.26-21.227
		c0-11.727,9.49-21.229,21.26-21.229C1627.444,585.822,1636.944,595.324,1636.944,607.051z"/>
	<path d="M1531.101,610.971c0,11.727-9.522,21.227-21.228,21.227c-11.727,0-21.239-9.5-21.239-21.227s9.513-21.23,21.239-21.23
		C1521.578,589.74,1531.101,599.244,1531.101,610.971z"/>
</g>
<g>
	<g>
		<path d="M955.689,848.262l81.301,46.451v96.15l-81.773,46.934l-81.725-48.778v-94.306L955.689,848.262 M955.689,818.262
			c-5.09,0-10.178,1.293-14.76,3.882l-82.197,46.45c-9.417,5.322-15.24,15.302-15.24,26.119v94.306
			c0,10.563,5.555,20.347,14.625,25.761l81.725,48.778c4.732,2.824,10.053,4.239,15.376,4.239c5.152,0,10.306-1.325,14.933-3.981
			l81.773-46.934c9.318-5.349,15.066-15.273,15.066-26.019v-96.15c0-10.767-5.77-20.707-15.117-26.049l-81.301-46.451
			C965.963,819.58,960.826,818.262,955.689,818.262L955.689,818.262z"/>
	</g>
	<g>
		<path d="M1053.803,1016.418l81.254,46.45v96.152l-81.727,46.911l-81.771-48.757v-94.307L1053.803,1016.418 M1053.803,986.418
			c-5.087,0-10.174,1.292-14.752,3.878l-82.245,46.45c-9.421,5.321-15.247,15.303-15.247,26.122v94.307
			c0,10.567,5.56,20.355,14.637,25.768l81.771,48.757c4.729,2.819,10.046,4.232,15.363,4.232c5.153,0,10.307-1.325,14.935-3.981
			l81.728-46.911c9.318-5.35,15.065-15.273,15.065-26.019v-96.152c0-10.764-5.767-20.702-15.111-26.045l-81.254-46.45
			C1064.08,987.737,1058.941,986.418,1053.803,986.418L1053.803,986.418z"/>
	</g>
	<g>
		<path d="M1342.178,848.262l81.276,46.451v96.15l-81.737,46.934l-81.76-48.778v-94.306L1342.178,848.262 M1342.178,818.262
			c-5.089,0-10.177,1.293-14.757,3.88l-82.221,46.45c-9.419,5.322-15.243,15.303-15.243,26.121v94.306
			c0,10.564,5.557,20.351,14.63,25.764l81.76,48.778c4.73,2.822,10.05,4.236,15.37,4.236c5.154,0,10.311-1.326,14.938-3.983
			l81.737-46.934c9.316-5.35,15.062-15.273,15.062-26.017v-96.15c0-10.766-5.768-20.705-15.114-26.047l-81.276-46.451
			C1352.453,819.58,1347.314,818.262,1342.178,818.262L1342.178,818.262z"/>
	</g>
	<g>
		<path d="M1148.918,848.262l81.311,46.451v96.15l-81.762,46.934l-81.749-48.778v-94.306L1148.918,848.262 M1148.918,818.262
			c-5.09,0-10.18,1.293-14.76,3.882l-82.199,46.45c-9.418,5.322-15.241,15.302-15.241,26.119v94.306
			c0,10.564,5.556,20.35,14.628,25.763l81.75,48.778c4.731,2.823,10.051,4.237,15.372,4.237c5.152,0,10.308-1.326,14.935-3.981
			l81.762-46.934c9.318-5.35,15.064-15.273,15.064-26.019v-96.15c0-10.768-5.77-20.709-15.119-26.05l-81.311-46.45
			C1159.188,819.579,1154.053,818.262,1148.918,818.262L1148.918,818.262z"/>
	</g>
	<g>
		<path d="M864.658,1018.263l81.277,46.473v96.154l-81.75,46.909l-81.726-48.778v-94.285L864.658,1018.263 M864.658,988.263
			c-5.092,0-10.183,1.294-14.765,3.885l-82.198,46.473c-9.414,5.322-15.235,15.301-15.235,26.115v94.285
			c0,10.563,5.555,20.347,14.625,25.761l81.726,48.778c4.732,2.824,10.053,4.239,15.376,4.239c5.151,0,10.304-1.325,14.931-3.979
			l81.749-46.909c9.321-5.349,15.069-15.274,15.069-26.021v-96.154c0-10.763-5.766-20.701-15.109-26.043l-81.277-46.473
			C874.938,989.582,869.797,988.263,864.658,988.263L864.658,988.263z"/>
	</g>
	
		<polyline fill="none" stroke="#000000" stroke-width="30" stroke-linecap="round" stroke-linejoin="round" stroke-miterlimit="10" points="
		1342.178,833.525 1342.178,719.59 1439.715,663.846 1535.404,718.645 	"/>
	
		<polyline fill="none" stroke="#000000" stroke-width="30" stroke-linecap="round" stroke-linejoin="round" stroke-miterlimit="10" points="
		1148.918,831.68 1148.918,717.734 1051.381,662 	"/>
	<g>
		
			<polyline fill="none" stroke="#000000" stroke-width="30" stroke-linecap="round" stroke-linejoin="round" stroke-miterlimit="10" points="
			1484.088,778.83 1484.088,806.92 1484.088,836.893 		"/>
		
			<polyline fill="none" stroke="#000000" stroke-width="30" stroke-linecap="round" stroke-linejoin="round" stroke-miterlimit="10" points="
			1537.965,778.83 1537.965,806.92 1537.965,836.893 		"/>
		
			<line fill="none" stroke="#000000" stroke-width="30" stroke-linejoin="round" stroke-miterlimit="10" x1="1484.088" y1="806.92" x2="1537.491" y2="806.92"/>
	</g>
	<g>
		
			<polyline fill="none" stroke="#000000" stroke-width="30" stroke-linecap="round" stroke-linejoin="round" stroke-miterlimit="10" points="
			944.62,701.255 944.62,729.346 944.62,759.305 		"/>
		
			<polyline fill="none" stroke="#000000" stroke-width="30" stroke-linecap="round" stroke-linejoin="round" stroke-miterlimit="10" points="
			998.497,701.255 998.497,729.346 998.497,759.305 		"/>
		
			<line fill="none" stroke="#000000" stroke-width="30" stroke-linejoin="round" stroke-miterlimit="10" x1="944.62" y1="729.346" x2="998.035" y2="729.346"/>
	</g>
	<g>
		
			<polyline fill="none" stroke="#000000" stroke-width="30" stroke-linecap="round" stroke-linejoin="round" stroke-miterlimit="10" points="
			1233.006,1118.382 1233.006,1146.497 1233.006,1176.457 		"/>
		
			<polyline fill="none" stroke="#000000" stroke-width="30" stroke-linecap="round" stroke-linejoin="round" stroke-miterlimit="10" points="
			1286.896,1118.382 1286.896,1146.497 1286.896,1176.457 		"/>
		
			<line fill="none" stroke="#000000" stroke-width="30" stroke-linejoin="round" stroke-miterlimit="10" x1="1233.006" y1="1146.497" x2="1286.435" y2="1146.497"/>
	</g>
</g>
<g>
	<path d="M342.921-15.378c0,0-35.161-50.749-42.032-103.492c0,0,1.744-16.764-17.736-15.535c-19.477,1.282-54.59,1.08-54.59,1.08
		s-22.4-1.542-18.608,25.22c3.792,26.704,9.329,118.56,35.473,147.061c0,0-43.775,40.856-53.924,110.055
		c-10.253,69.305-20.762,234.459-81.605,267.268c0,0-24.709,22.657-32.091,37.161c-7.382,14.561-19.886,22.454-35.677,25.018
		c-15.785,2.51-80.218,29.778-77.708,92.934c2.563,63.151,10.456,80.989,32.087,77.708c0,0,22.454-5.589,18.354-28.501
		c-4.101-22.965-1.026-86.627,54.025-83.553c54.95,3.025,59.936,40.22,136.966,42.238C290.5,581.5,534.5,488.5,569.795,215.544
		C569.795,215.544,583.5-28.5,342.921-15.378z M311.86,520.232c-68.813,30.48-112.926,36.288-157.469,15.891
		c-44.393-20.3-58.333-65.204-28.81-89.296c29.528-24.093,82.888-84.526,91.552-200.782c6.968-94.524,4.559-149.678,70.225-200.117
		c0,0-38.345-60.024-36.5-100.365h5.127c0,0,15.993,53.409,49.106,86.676c33.01,33.218,86.423,85.248,76.893,133.072
		c-9.536,47.925-25.837,94.11-45.521,109.693l21.019,19.736c0,0,51.153-60.843,53.205-129.531
		c2.049-68.842-48.132-115.692-69.814-136.556c0,0-10.201-6.871,3.589-9.175c13.733-2.255,87.755-16.815,137.68,47.313
		c49.929,64.226,76.276,145.268,27.885,250.196C461.586,421.915,383.5,488.5,311.86,520.232z"/>
	<path d="M353.122,301.197l-20.401,38.649l-13.584,76.123c0,0,0.718,14.556-14.045,5.738c-14.866-8.866-94.623-58.844-94.623-58.844
		s-5.078-6.716,0-12.099c5.123-5.483,88.984-38.751,88.984-38.751l31.576-30.549L353.122,301.197z"/>
</g>
</svg>
